<?xml version="1.0" encoding="UTF-8"?>
<svg id="Layer_2" data-name="Layer 2" xmlns="http://www.w3.org/2000/svg" viewBox="0 0 51.99 21">
  <defs>
    <style>
      .cls-1 {
        fill: #fff;
      }

      .cls-1, .cls-2 {
        stroke-width: 0px;
      }

      .cls-2 {
        fill: #fff;
      }
    </style>
  </defs>
  <g id="Layer_1-2" data-name="Layer 1">
    <path class="cls-1" d="M19.2,21h-5.4c-.57,0-.54-.43-.27-.68,1.74-1.57,1.27-7.87-.46-7.87-.68,0-1.3,1.17-1.71,2.71.08.38.11.76.11,1.17v1.79c0,1,.16,1.6,1.11,2.31.27.22.16.57-.11.57h-5.4c-.57,0-.54-.43-.27-.68,1.74-1.57,1.22-7.87-.54-7.87-.54,0-1,1.19-1.38,2.44-.19,2.96.19,4.86.95,5.43.3.22.3.68-.27.68H.27c-.27,0-.38-.35-.11-.57.95-.71,1.11-1.3,1.11-2.31v-2.28c0-1-.16-1.6-1.11-2.33-.27-.22-.16-.54.11-.54,2.6,0,3.69-1.76,4.72-1.98.57-.11.3.33.24.68l-.11.84c.52-.87,1.17-1.55,2.06-1.55,1.71,0,3.09,1.14,3.8,2.82.46-1.33,1.38-2.82,2.9-2.82,2.5,0,4.29,2.39,4.29,5.37v1.79c0,1,.19,1.6,1.11,2.31.3.22.19.57-.08.57Z"/>
    <path class="cls-1" d="M30.92,20.43c.24.27.19.57-.08.57h-2.5c-1.19,0-1.95-.79-2.22-1.57-.6.87-1.44,1.57-2.66,1.57-2.44,0-4.31-1.14-4.31-5.15,0-1-.16-1.6-1.11-2.33-.27-.22-.16-.54.11-.54,2.6,0,3.69-1.76,4.72-1.98.57-.11.33.33.24.68-.68,3.23-.57,8.08,1.46,8.08.57,0,1.09-.81,1.44-1.63v-2.28c0-1-.16-1.6-1.11-2.33-.27-.22-.16-.54.11-.54,2.6,0,3.72-1.76,4.72-1.98.57-.11.33.33.27.68-.35,2.17-.76,6.75.92,8.76Z"/>
    <path class="cls-1" d="M41.03,11.64c-1.52,1-2.69,6.7-4.31,8.6h.46c1.68,0,2.41-1.55,3.12-2.47.22-.27.57-.19.57.11v2.36c0,.54-.24.76-.76.76h-8.25c-.57,0-.54-.43-.16-.68,1.19-.76,4.86-7.65,3.96-8.49-.41-.38-1.66.35-1.49,1.6.24,1.71-4.34,1.95-3.47-.49.41-1.19,2.09-1.98,3.8-1.98h6.54c.57,0,.35.43,0,.68Z"/>
    <path class="cls-1" d="M51.72,21h-2.77c-1.46,0-2.03-1.3-2.03-1.3-.6.79-1.57,1.3-2.66,1.3-1.82,0-3.31-1.44-3.31-3.2s1.49-3.2,3.31-3.2c1.09,0,2.06.52,2.66,1.3v-.81c0-1.57-.6-3.36-1.57-3.36-.41,0-.41.65-.08,1.36.57,1.33-3.5,1.87-3.5.3,0-1.17,1.36-2.41,3.85-2.41,2.9,0,5.1,2.01,5.1,4.94v2.22c0,1,.16,1.6,1.11,2.31.27.22.19.57-.11.57ZM46.81,17.79c0-.95-.6-1.74-1.36-1.74s-1.33.79-1.33,1.74.6,1.74,1.33,1.74,1.36-.79,1.36-1.74Z"/>
    <path class="cls-2" d="M25.69,8.16c-.56-.92-1.57-1.54-2.73-1.54-.5,0-.97.12-1.39.32-.65-1.96-2.49-3.37-4.67-3.37-.96,0-1.86.28-2.61.76-1.1-2.21-3.38-3.73-6.02-3.73C4.54.59,1.53,3.6,1.53,7.31c0,.29.02.57.05.85h24.1Z"/>
    <path class="cls-1" d="M2.16,8.16c-.03-.27-.05-.6-.05-.85,0-3.38,2.75-6.14,6.14-6.14,2.34,0,4.45,1.31,5.5,3.41l.29.58.55-.35c.69-.44,1.49-.67,2.3-.67,1.87,0,3.52,1.19,4.11,2.97l.21.64.6-.29c.36-.18.74-.26,1.14-.26.76,0,1.46.4,1.95.96h1.37c-.01-.08-.04-.23-.08-.3-.69-1.14-1.9-1.83-3.24-1.83-.36,0-.72.05-1.06.15-.89-1.94-2.83-3.2-5-3.2-.83,0-1.64.19-2.38.55-1.32-2.19-3.67-3.52-6.25-3.52C4.22,0,.94,3.28.94,7.31c0,.25.02.58.05.85h1.18Z"/>
    <path class="cls-2" d="M26.61,8.16c.56-.92,1.57-1.54,2.73-1.54.5,0,.97.12,1.39.32.65-1.96,2.49-3.37,4.67-3.37.96,0,1.86.28,2.61.76,1.1-2.21,3.38-3.73,6.02-3.73,3.71,0,6.73,3.01,6.73,6.73,0,.29-.02.57-.05.85h-24.1Z"/>
    <path class="cls-1" d="M50.13,8.16c.03-.27.05-.6.05-.85,0-3.38-2.75-6.14-6.14-6.14-2.34,0-4.45,1.31-5.5,3.41l-.29.58-.55-.35c-.69-.44-1.49-.67-2.3-.67-1.87,0-3.52,1.19-4.11,2.97l-.21.64-.6-.29c-.36-.18-.74-.26-1.14-.26-.76,0-1.46.4-1.95.96h-1.37c.01-.08.04-.23.08-.3.69-1.14,1.9-1.83,3.24-1.83.36,0,.72.05,1.06.15.89-1.94,2.83-3.2,5-3.2.83,0,1.64.19,2.38.55,1.32-2.19,3.67-3.52,6.25-3.52,4.03,0,7.31,3.28,7.31,7.31,0,.25-.02.58-.05.85h-1.18Z"/>
    <g>
      <g>
        <path class="cls-1" d="M39.87,8.35c-.44,0-.9-.12-1.34-.41-1.86-1.19-1.48-3.08-1.02-3.91.16-.28.52-.39.8-.23.28.16.38.51.23.8-.08.15-.74,1.47.62,2.35.68.43,1.34.19,1.7-.25.3-.37.44-.96-.09-1.52-.22-.24-.22-.61.02-.83.23-.22.61-.22.83.02.99,1.04.79,2.3.15,3.08-.44.53-1.13.9-1.9.9Z"/>
        <path class="cls-1" d="M31.98,9.6c-.25,0-.51-.06-.75-.17-.93-.44-1.36-1.52-1.06-2.65.09-.31.41-.5.72-.41.31.08.5.41.41.72-.18.66.1,1.12.42,1.28.31.14.64.01.9-.36.19-.27.55-.33.82-.14.27.19.33.55.14.82-.42.6-1.01.92-1.61.92Z"/>
      </g>
      <g>
        <path class="cls-1" d="M12.42,8.35c.44,0,.9-.12,1.34-.41,1.86-1.19,1.48-3.08,1.02-3.91-.16-.28-.52-.39-.8-.23-.28.16-.38.51-.23.8.08.15.74,1.47-.62,2.35-.68.43-1.34.19-1.7-.25-.3-.37-.44-.96.09-1.52.22-.24.22-.61-.02-.83-.23-.22-.61-.22-.83.02-.99,1.04-.79,2.3-.15,3.08.44.53,1.13.9,1.9.9Z"/>
        <path class="cls-1" d="M20.31,9.6c.25,0,.51-.06.75-.17.93-.44,1.36-1.52,1.06-2.65-.09-.31-.41-.5-.72-.41-.31.08-.5.41-.41.72.18.66-.1,1.12-.42,1.28-.31.14-.64.01-.9-.36-.19-.27-.55-.33-.82-.14-.27.19-.33.55-.14.82.42.6,1.01.92,1.61.92Z"/>
      </g>
    </g>
  </g>
</svg>