<?xml version="1.0" encoding="UTF-8"?>
<svg id="Layer_2" data-name="Layer 2" xmlns="http://www.w3.org/2000/svg" viewBox="0 0 51.99 21.37">
  <defs>
    <style>
      .cls-1 {
        stroke: #fff;
        stroke-linecap: round;
        stroke-linejoin: round;
        stroke-width: .75px;
      }

      .cls-1, .cls-2 {
        fill: #fff;
      }

      .cls-2 {
        stroke-width: 0px;
      }
    </style>
  </defs>
  <g id="Layer_1-2" data-name="Layer 1">
    <path class="cls-2" d="M19.2,21.37h-5.4c-.57,0-.54-.43-.27-.68,1.74-1.57,1.27-7.87-.46-7.87-.68,0-1.3,1.17-1.71,2.71.08.38.11.76.11,1.17v1.79c0,1,.16,1.6,1.11,2.31.27.22.16.57-.11.57h-5.4c-.57,0-.54-.43-.27-.68,1.74-1.57,1.22-7.87-.54-7.87-.54,0-1,1.19-1.38,2.44-.19,2.96.19,4.86.95,5.43.3.22.3.68-.27.68H.27c-.27,0-.38-.35-.11-.57.95-.71,1.11-1.3,1.11-2.31v-2.28c0-1-.16-1.6-1.11-2.33-.27-.22-.16-.54.11-.54,2.6,0,3.69-1.76,4.72-1.98.57-.11.3.33.24.68l-.11.84c.52-.87,1.17-1.55,2.06-1.55,1.71,0,3.09,1.14,3.8,2.82.46-1.33,1.38-2.82,2.9-2.82,2.5,0,4.29,2.39,4.29,5.37v1.79c0,1,.19,1.6,1.11,2.31.3.22.19.57-.08.57Z"/>
    <path class="cls-2" d="M30.92,20.8c.24.27.19.57-.08.57h-2.5c-1.19,0-1.95-.79-2.22-1.57-.6.87-1.44,1.57-2.66,1.57-2.44,0-4.31-1.14-4.31-5.15,0-1-.16-1.6-1.11-2.33-.27-.22-.16-.54.11-.54,2.6,0,3.69-1.76,4.72-1.98.57-.11.33.33.24.68-.68,3.23-.57,8.08,1.46,8.08.57,0,1.09-.81,1.44-1.63v-2.28c0-1-.16-1.6-1.11-2.33-.27-.22-.16-.54.11-.54,2.6,0,3.72-1.76,4.72-1.98.57-.11.33.33.27.68-.35,2.17-.76,6.75.92,8.76Z"/>
    <path class="cls-2" d="M41.03,12.01c-1.52,1-2.69,6.7-4.31,8.6h.46c1.68,0,2.41-1.55,3.12-2.47.22-.27.57-.19.57.11v2.36c0,.54-.24.76-.76.76h-8.25c-.57,0-.54-.43-.16-.68,1.19-.76,4.86-7.65,3.96-8.49-.41-.38-1.66.35-1.49,1.6.24,1.71-4.34,1.95-3.47-.49.41-1.19,2.09-1.98,3.8-1.98h6.54c.57,0,.35.43,0,.68Z"/>
    <path class="cls-2" d="M51.72,21.37h-2.77c-1.46,0-2.03-1.3-2.03-1.3-.6.79-1.57,1.3-2.66,1.3-1.82,0-3.31-1.44-3.31-3.2s1.49-3.2,3.31-3.2c1.09,0,2.06.52,2.66,1.3v-.81c0-1.57-.6-3.36-1.57-3.36-.41,0-.41.65-.08,1.36.57,1.33-3.5,1.87-3.5.3,0-1.17,1.36-2.41,3.85-2.41,2.9,0,5.1,2.01,5.1,4.94v2.22c0,1,.16,1.6,1.11,2.31.27.22.19.57-.11.57ZM46.81,18.17c0-.95-.6-1.74-1.36-1.74s-1.33.79-1.33,1.74.6,1.74,1.33,1.74,1.36-.79,1.36-1.74Z"/>
    <path class="cls-1" d="M44.04.38c-2.59,0-4.93,1.34-6.25,3.52-.74-.36-1.56-.55-2.38-.55-2.17,0-4.11,1.26-5,3.2-.34-.1-.7-.15-1.06-.15-1.31,0-2.5.66-3.2,1.77-.7-1.11-1.89-1.77-3.2-1.77-.36,0-.72.05-1.06.15-.89-1.94-2.83-3.2-5-3.2-.83,0-1.64.19-2.38.55C13.18,1.71,10.84.38,8.25.38,4.22.38.94,3.66.94,7.69c0,.25.02.58.05.85h1.18c-.03-.27-.05-.6-.05-.85C2.11,3.44,6.46.18,10.94,2.13c1.26.55,2.23,1.58,2.8,2.83h0s0,.02,0,.02c.08.15.74,1.47-.62,2.35-.68.43-1.34.19-1.7-.25-.3-.37-.44-.96.09-1.52.22-.24.22-.61-.02-.83-.23-.22-.61-.22-.83.02-.99,1.04-.79,2.3-.15,3.08.44.53,1.13.9,1.9.9.44,0,.9-.12,1.34-.41,1.52-.97,1.54-2.4,1.24-3.35.59-.28,1.23-.44,1.88-.44,1.86,0,3.5,1.18,4.1,2.94h0c.18.66-.1,1.12-.42,1.28-.31.14-.64.01-.9-.36-.19-.27-.55-.33-.82-.14-.27.19-.33.55-.14.82.42.6,1.01.92,1.61.92.25,0,.51-.06.75-.17.78-.36,1.2-1.19,1.14-2.1.24-.07.49-.12.75-.12.76,0,1.46.4,1.95.96h2.5c.49-.56,1.19-.96,1.95-.96.26,0,.5.05.75.12-.06.92.37,1.74,1.14,2.1.25.12.5.17.75.17.6,0,1.19-.32,1.61-.92.19-.27.12-.63-.14-.82-.27-.19-.63-.12-.82.14-.27.38-.59.51-.9.36-.33-.15-.6-.62-.42-1.28h0c.6-1.76,2.24-2.94,4.1-2.94.65,0,1.29.16,1.88.44-.3.95-.28,2.38,1.24,3.35.44.28.9.41,1.34.41.76,0,1.46-.37,1.9-.9.64-.78.85-2.04-.15-3.08-.22-.24-.6-.24-.83-.02-.24.22-.24.6-.02.83.53.56.39,1.15.09,1.52-.36.44-1.02.68-1.7.25-1.37-.87-.7-2.2-.62-2.35,0,0,0-.01,0-.02h0c.72-1.44,1.95-2.59,3.48-3.09,4.23-1.37,8.16,1.77,8.16,5.81,0,.25-.02.58-.05.85h1.18c.03-.26.05-.59.05-.85,0-4.03-3.28-7.31-7.31-7.31Z"/>
  </g>
</svg>