<?xml version="1.0" encoding="UTF-8"?>
<svg id="Layer_2" data-name="Layer 2" xmlns="http://www.w3.org/2000/svg" viewBox="0 0 1195.33 305.7">
  <defs>
    <style>
      .cls-1 {
        fill: #fff;
        stroke-width: 0px;
      }
    </style>
  </defs>
  <g id="Layer_1-2" data-name="Layer 1">
    <g>
      <path class="cls-1" d="M440.33,216.2c-21.08-16.1-25.4-29.73-25.4-52.65v-40.88C414.93,54.52,374.03,0,317.05,0c-34.7,0-55.76,34.08-66.28,64.43C234.65,26.02,203.05,0,164.03,0c-20.44,0-35.3,15.49-47.07,35.31l2.47-19.2c1.23-8.06,7.42-17.97-5.57-15.49C90.31,5.58,65.53,45.84,6.06,45.84c-6.2,0-8.67,7.43-2.47,12.39,21.68,16.73,25.39,30.35,25.39,53.28v52.04c0,22.92-3.7,36.55-25.39,52.65-6.2,4.96-3.72,13.01,2.47,13.01h120.79c13.01,0,13.01-10.53,6.2-15.49-14.97-11.23-23.47-45.07-22.74-97.55.29-20.47,4.54-40.74,12.87-59.44,5.96-13.38,12.56-22.83,19.78-22.66,40.6.98,84.62,126.29,46.35,172.48-8.2,6.86-17.66,12.28-27.99,15.87-.14.02-.28.05-.42.08-.04.03-.07.06-.1.1-3.8,1.3-7.72,2.36-11.74,3.14-3.69.72-3.73,5.98-.05,6.76,35.16,7.41,62.47,35.14,69.35,70.41.72,3.69,5.98,3.73,6.76.05,7.41-35.16,35.14-62.47,70.41-69.35h0c3.69-.72,3.73-5.98.05-6.76h0c-6.57-1.38-12.86-3.48-18.8-6.2-52.51-47.63-6.15-190.46,21.67-186.58,39.27,5.47,50.19,143.72,10.54,179.65-6.2,5.57-6.82,15.49,6.2,15.49h123.27c6.2,0,8.67-8.06,1.87-13.01Z"/>
      <path class="cls-1" d="M684.96,16.11c1.25-8.06,6.82-17.97-6.2-15.49-22.91,4.96-48.32,45.22-107.78,45.22-6.2,0-8.69,7.43-2.49,12.39,21.68,16.73,25.41,30.35,25.41,53.28v52.04c-8.05,18.59-19.81,37.17-32.83,37.17-46.47,0-48.94-110.89-33.45-184.61,1.85-8.06,7.42-17.97-5.57-15.49-23.55,4.96-48.34,45.22-107.8,45.22-6.2,0-8.67,7.43-2.47,12.39,21.68,16.73,25.39,30.35,25.39,53.28,0,91.69,42.75,117.7,98.5,117.7,27.88,0,47.09-16.1,60.71-35.94,6.2,17.97,23.55,35.94,50.81,35.94h56.99c6.2,0,7.42-6.82,1.85-13.01-38.4-45.83-29.11-150.53-21.06-200.09Z"/>
      <path class="cls-1" d="M937.05,0h-149.3c-39.02,0-77.44,17.96-86.74,45.23-19.81,55.75,84.87,50.18,79.29,11.14-3.72-28.49,24.78-45.22,34.07-36.55,20.44,19.21-63.18,176.55-90.44,193.9-8.67,5.57-9.29,15.49,3.7,15.49h188.34c11.77,0,17.34-4.96,17.34-17.35v-53.89c0-6.82-8.05-8.68-13.01-2.48-16.09,21.06-32.83,56.37-71.23,56.37h-10.54c37.17-43.36,63.81-173.45,98.5-196.38,8.05-5.57,13.01-15.49,0-15.49Z"/>
      <path class="cls-1" d="M1191.56,216.2c-21.68-16.1-25.4-29.73-25.4-52.65v-50.8c0-66.9-50.19-112.75-116.47-112.75-56.99,0-87.96,28.5-87.96,55.14,0,35.94,92.91,23.54,79.92-6.81-7.44-16.11-7.44-30.98,1.85-30.98,22.31,0,35.93,40.88,35.93,76.82v18.58c-13.62-17.96-35.93-29.73-60.71-29.73-41.5,0-75.57,32.83-75.57,73.1s34.08,73.1,75.57,73.1c24.78,0,47.09-11.77,60.71-29.74,0,0,13.01,29.74,46.47,29.74h63.18c6.82,0,8.69-8.06,2.49-13.01ZM1045.97,195.76c-16.72,0-30.35-17.96-30.35-39.65s13.64-39.65,30.35-39.65,30.98,17.96,30.98,39.65-13.62,39.65-30.98,39.65Z"/>
    </g>
  </g>
</svg>