<?xml version="1.0" encoding="UTF-8"?>
<svg id="Layer_2" data-name="Layer 2" xmlns="http://www.w3.org/2000/svg" viewBox="0 0 677.99 146.13">
  <defs>
    <style>
      .cls-1 {
        fill: #fff;
        stroke-width: 0px;
        }
      
    </style>
  </defs>
  <g id="Layer_1-2" data-name="Layer 1">
    <path class="cls-1" d="M202.06,69.24v73.7h-27.54v-73.7c0-21.26-7.49-41.71-34.42-41.71-7.69,0-14.98,2.83-21.06,6.88,11.34,16.2,25.11,45.96,25.11,66.21,0,25.31-17.41,45.15-43.13,45.15s-43.13-20.04-43.13-45.15c0-20.25,12.96-50.01,24.09-66.21-5.87-4.05-12.76-6.88-20.04-6.88-27.13,0-34.42,19.84-34.42,41.71v73.7H0v-73.7C0,31.79,19.44,0,61.96,0c14.17,0,27.54,5.47,38.47,14.17C111.76,5.26,125.53,0,140.11,0c42.52,0,61.96,31.79,61.96,69.24ZM116.62,100.63c0-12.76-9.52-33.61-15.99-44.34-6.07,10.53-15.19,31.99-15.19,44.34,0,9.92,5.26,17.62,15.59,17.62s15.59-7.69,15.59-17.62ZM310.82,8.1h30.98v134.85h-30.98v-17.54c-6.61,12.07-17.77,20.27-36.22,20.27-29.16,0-51.48-17.54-51.48-56.26V8.1h30.98v81.32c0,24.37,13.44,30.29,28.25,30.07,23.46-.23,28.47-19.59,28.47-43.96V8.1ZM469.12,8.1v23.92l-70.38,87.01h72.66v23.92h-110.25v-23.92l69.7-87.01h-64.46V8.1h102.73ZM540.87,51.6c20.73,0,41,6.61,56.95,20.27v-3.19c0-24.6-20.96-32.8-42.14-32.8h-61.96V8.1h61.96c36.9,0,69.93,20.5,69.93,60.59,0,10.93-1.37,21.87-5.24,31.89,6.15,12.07,10.71,25.06,12.3,38.5l-27.56,3.42c-.68-5.24-2.05-10.25-3.64-15.26-15.94,14.35-36.9,18.91-56.95,18.91-28.47,0-59.45-14.81-59.45-47.83s27.11-46.7,55.81-46.7ZM588.02,101.49c-11.84-14.81-28.7-21.87-47.61-21.87-13.21,0-27.56,2.96-27.56,19.82,0,15.03,20.73,18.91,31.66,18.91,15.26,0,32.8-2.96,43.51-16.86ZM677.99,128.37c0,9.34-6.83,16.86-17.31,16.86s-17.54-7.52-17.54-16.86,6.83-16.63,17.54-16.63,17.31,7.52,17.31,16.63Z"/>
  </g>
</svg>