<?xml version="1.0" encoding="UTF-8"?>
<svg id="Layer_2" data-name="Layer 2" xmlns="http://www.w3.org/2000/svg" viewBox="0 0 547.1 547.1">
  <defs>
    <style>
      .cls-1 {
        fill: #fff;
        stroke-width: 0px;
      }
    </style>
  </defs>
  <g id="Layer_1-2" data-name="Layer 1">
    <g>
      <path class="cls-1" d="M271.6,545.6c-5.65,0-12.03-3.44-13.53-11.14-24.41-125.2-120.82-223.09-245.64-249.4-7.61-1.6-10.98-7.98-10.93-13.58.04-5.6,3.5-11.93,11.14-13.41,125.15-24.4,223.02-120.76,249.37-245.5l.03-.14c1.59-7.55,7.91-10.93,13.47-10.93s12.03,3.44,13.52,11.14l.03.14c24.45,125.13,120.84,222.96,245.61,249.26,7.61,1.6,10.98,7.98,10.93,13.58-.04,5.6-3.5,11.93-11.14,13.41-125.2,24.41-223.09,120.82-249.4,245.63-1.59,7.55-7.91,10.93-13.47,10.93Z"/>
      <path class="cls-1" d="M275.51,3c5.38,0,10.77,3.32,12.05,9.93h0c24.47,125.52,121.67,224.21,246.8,250.58h0c13.09,2.76,12.95,21.5-.18,24.06h0c-125.52,24.47-224.21,121.67-250.58,246.8-1.37,6.51-6.69,9.74-12,9.74s-10.77-3.32-12.05-9.93c-24.47-125.51-121.67-224.21-246.8-250.58-13.09-2.76-12.95-21.5.18-24.06,125.52-24.47,224.21-121.67,250.58-246.8h0c1.37-6.51,6.69-9.74,12-9.74M275.51,0h0c-6.16,0-13.17,3.75-14.94,12.12l-.05.26h0c-26.26,124.1-123.64,219.95-248.16,244.22C3.89,258.25.05,265.26,0,271.47s3.68,13.28,12.12,15.06c124.22,26.18,220.18,123.61,244.47,248.22,1.66,8.53,8.73,12.35,15,12.35s13.17-3.75,14.94-12.12c26.17-124.14,123.5-220.07,248-244.43l.22-.04c8.47-1.65,12.3-8.66,12.35-14.88s-3.68-13.28-12.12-15.06l-.31-.06h0c-124-26.26-219.78-123.52-244.12-247.91l-.05-.24c-1.66-8.53-8.73-12.35-15-12.35h0Z"/>
    </g>
  </g>
</svg>