<?xml version="1.0" standalone="no"?>
<!DOCTYPE svg PUBLIC "-//W3C//DTD SVG 1.1//EN" "http://www.w3.org/Graphics/SVG/1.1/DTD/svg11.dtd" >
<svg xmlns="http://www.w3.org/2000/svg" xmlns:xlink="http://www.w3.org/1999/xlink" version="1.1">
<metadata>
Created by FontForge 20191125 at Sun Feb  7 10:09:16 2021
 By convertio
Copyright \(c\) 2021 by Dharmas Studio. All rights reserved.
</metadata>
<defs>
<font id="Bright-Italic" horiz-adv-x="429" >
  <font-face 
    font-family="Bright"
    font-weight="400"
    font-style="italic"
    font-stretch="normal"
    units-per-em="1000"
    panose-1="0 0 0 0 0 0 0 0 0 0"
    ascent="773"
    descent="-227"
    x-height="487"
    cap-height="627"
    bbox="-387.449 -192.022 1190.01 789.349"
    underline-thickness="50"
    underline-position="-100"
    stemh="28"
    stemv="140"
    unicode-range="U+000D-FB02"
  />
<missing-glyph horiz-adv-x="168" 
 />
    <glyph glyph-name="r_i" unicode="ri" horiz-adv-x="506" 
d="M347 452c-6 48 -80 -27 -119 -105c-22 -112 -18 -182 7 -204c9 -8 7 -25 -14 -25h-193c-11 0 -14 13 -3 21c39 26 48 48 53 85l12 84c5 37 2 59 -29 86c-9 8 -3 20 7 20c96 0 145 65 184 73c22 4 9 -12 5 -25l-10 -39c46 70 135 144 191 144c43 0 57 -26 57 -52
c0 -90 -139 -122 -148 -63zM492 143c8 -8 7 -25 -15 -25h-195c-10 0 -12 13 -1 21c39 26 48 48 53 85l3 24c6 37 3 59 -29 85c-9 8 -3 21 7 21c96 0 146 65 184 72c22 5 11 -11 7 -24c-53 -179 -48 -231 -14 -259z" />
    <glyph glyph-name="g_i" unicode="gi" horiz-adv-x="713" 
d="M394 172c160 -79 -17 -307 -206 -307c-185 0 -221 176 -95 234c83 38 199 -14 99 -70c-115 -63 -3 -153 71 -124c107 41 92 202 -68 222c-57 7 -109 0 -117 35c-4 20 17 43 41 58c-50 27 -79 71 -72 120c12 81 119 148 240 148c41 0 78 -8 109 -21c77 95 224 128 272 98
c84 -50 -6 -166 -83 -142c-50 16 -82 105 -164 31c45 -27 70 -68 63 -114c-11 -82 -119 -149 -239 -149c-34 0 -65 6 -93 15c-14 -11 -28 -22 -20 -34c22 -35 180 40 262 0zM704 143c8 -8 6 -25 -15 -25h-195c-10 0 -12 13 -1 21c39 26 48 48 53 85l3 24c6 37 3 59 -29 85
c-9 8 -3 21 7 21c96 0 146 65 184 72c22 5 11 -11 7 -24c-53 -179 -48 -231 -14 -259zM283 460c-32 0 -65 -54 -75 -120c-9 -67 9 -121 41 -121c31 0 65 54 74 121c10 66 -9 120 -40 120z" />
    <glyph glyph-name="f_i" unicode="fi" horiz-adv-x="516" 
d="M311 396h-71l-3 -23c-14 -99 -19 -213 2 -230c8 -8 7 -25 -15 -25h-198c-10 0 -12 13 -1 21c39 26 48 48 53 85l24 172h-16c-14 0 -16 11 -14 24c1 13 7 24 21 24h16v2c15 108 125 181 232 181c93 0 191 -60 154 -144c-38 -90 -186 -80 -135 24c30 63 10 98 -24 91
c-35 -7 -67 -75 -86 -154h68c13 0 15 -11 14 -24c-2 -13 -8 -24 -21 -24zM502 143c8 -8 7 -25 -15 -25h-195c-10 0 -12 13 -1 21c39 26 49 48 54 85l3 24c6 37 2 59 -30 85c-9 8 -3 21 7 21c96 0 146 65 184 72c22 5 11 -11 7 -24c-53 -179 -48 -231 -14 -259z" />
    <glyph glyph-name="t_i" unicode="ti" horiz-adv-x="515" 
d="M374 427c-41 17 -76 21 -115 0c-32 -143 -30 -262 -3 -284c8 -8 7 -25 -15 -25h-202c-13 0 -11 16 1 25c37 31 46 106 52 148c4 27 12 72 2 105h-22c-13 0 -15 11 -13 24c1 13 7 24 20 24h6c96 0 132 106 181 123c21 8 28 -8 24 -21l-21 -70c72 60 152 119 216 83
c67 -37 -28 -166 -111 -132zM503 143c9 -8 7 -25 -14 -25h-195c-10 0 -12 13 -1 21c39 26 48 48 53 85l3 24c6 37 3 59 -29 85c-9 8 -3 21 7 21c96 0 145 65 184 72c22 5 10 -11 6 -24c-52 -179 -47 -231 -14 -259z" />
    <glyph glyph-name="v_i" unicode="vi" horiz-adv-x="597" 
d="M438 440c-50 35 -187 -285 -187 -285c-9 -20 -20 -37 -42 -37h-66c-31 0 -41 12 -45 39l-23 134c-20 120 -39 155 -65 172c-11 8 -14 25 6 25h215c11 0 16 -12 7 -21c-65 -62 -3 -261 1 -270c80 195 196 370 295 370c119 0 11 -202 -96 -127zM583 143c8 -8 7 -25 -15 -25
h-195c-10 0 -12 13 -1 21c39 26 48 48 53 85l3 24c6 37 3 59 -29 85c-9 8 -3 21 7 21c96 0 146 65 184 72c22 5 11 -11 7 -24c-53 -179 -48 -231 -14 -259z" />
    <glyph glyph-name="w_i" unicode="wi" horiz-adv-x="843" 
d="M685 440c-49 35 -187 -285 -187 -285c-9 -20 -20 -37 -42 -37h-66c-31 0 -41 12 -45 39l-23 134c0 8 -1 15 -4 22l-70 -158c-9 -20 -20 -37 -42 -37h-66c-31 0 -41 12 -45 39l-23 134c-20 120 -39 155 -65 172c-11 8 -14 25 6 25h215c11 0 16 -12 7 -21
c-65 -62 -1 -265 3 -274c0 0 48 121 61 204c-12 39 -26 56 -42 66c-11 8 -15 25 6 25h216c10 0 15 -12 6 -21c-65 -62 -3 -261 1 -270c80 195 196 370 295 370c119 0 11 -202 -96 -127zM830 143c8 -8 7 -25 -15 -25h-195c-10 0 -12 13 -1 21c39 26 49 48 54 85l3 24
c6 37 2 59 -30 85c-9 8 -3 21 7 21c96 0 146 65 184 72c22 5 11 -11 7 -24c-53 -179 -48 -231 -14 -259z" />
    <glyph glyph-name="y_i" unicode="yi" horiz-adv-x="593" 
d="M452 428c-47 20 -91 -44 -171 -241l-63 -138c-69 -146 -146 -183 -204 -183c-108 0 -136 109 -81 170c65 72 176 48 147 -32c-32 -86 52 -71 127 82l15 32h-63c-40 0 -44 15 -50 50l-22 123c-19 120 -39 155 -64 172c-12 8 -16 25 6 25h218c10 0 14 -10 7 -21
c-66 -111 -5 -265 -1 -274l1 -3l3 9c91 224 189 368 275 368c118 0 24 -183 -80 -139zM584 143c9 -8 7 -25 -14 -25h-195c-11 0 -12 13 -1 21c38 26 48 48 53 85l3 24c6 37 2 59 -29 85c-9 8 -4 21 7 21c95 0 145 65 184 72c21 5 10 -12 6 -25c-53 -178 -47 -230 -14 -258z
" />
    <glyph glyph-name="f_f" unicode="ff" horiz-adv-x="547" 
d="M573 627c92 0 138 -46 130 -88c-13 -74 -165 -56 -127 10c14 27 18 50 3 50c-28 0 -59 -73 -78 -155h67c14 0 16 -11 15 -24c-2 -13 -8 -24 -22 -24h-70c-2 -8 -3 -16 -4 -23c-14 -99 -19 -213 2 -230c9 -8 7 -25 -14 -25h-199c-10 0 -12 13 -1 21c39 26 48 48 53 85
l24 172h-113l-2 -23c-14 -99 -19 -213 2 -230c8 -8 7 -25 -15 -25h-198c-10 0 -12 13 -1 21c39 26 48 48 53 85l24 172h-16c-14 0 -16 11 -14 24c1 13 7 24 21 24h16l8 56c8 55 60 127 149 127c86 0 112 -46 106 -88c-7 -55 -149 -56 -111 10c14 27 0 61 -43 36
c-35 -20 -57 -65 1 -141h140v2c15 108 107 181 214 181z" />
    <glyph glyph-name="t_t" unicode="tt" horiz-adv-x="531" 
d="M558 444c14 0 16 -11 15 -24c-2 -13 -8 -24 -22 -24h-50c-19 -126 -17 -235 5 -253c9 -8 7 -25 -14 -25h-202c-13 0 -11 16 0 25c37 31 46 106 52 148c4 27 13 72 3 105h-93c-24 -129 -20 -232 4 -253c8 -8 7 -25 -15 -25h-202c-13 0 -11 16 1 25c37 31 46 106 52 148
c4 27 12 72 2 105h-22c-13 0 -15 11 -13 24c1 13 7 24 20 24h6c96 0 132 106 181 123c21 8 28 -8 24 -21c-11 -35 -20 -69 -28 -102h74c65 0 130 164 178 181c21 8 39 -8 34 -21c-16 -51 -29 -106 -39 -160h49z" />
    <glyph glyph-name="o_o" unicode="oo" horiz-adv-x="692" 
d="M525 488c110 0 188 -83 174 -185s-116 -185 -226 -185c-49 0 -92 17 -123 44c-38 -27 -85 -44 -134 -44c-111 0 -188 83 -174 185s115 185 226 185c49 0 92 -17 122 -44c39 27 86 44 135 44zM220 146c31 0 67 71 79 157c12 87 -4 157 -35 157c-32 0 -68 -70 -80 -157
c-12 -86 4 -157 36 -157zM477 146c32 0 68 71 80 157c12 87 -4 157 -36 157s-67 -70 -79 -157c-12 -86 3 -157 35 -157z" />
    <glyph glyph-name="l_l" unicode="ll" horiz-adv-x="484" 
d="M480 143c9 -8 7 -25 -14 -25h-199c-10 0 -12 13 0 21c38 26 48 48 53 85l32 225c5 37 1 59 -29 85c-10 8 -5 20 5 20c96 0 150 66 189 73c21 5 10 -12 5 -25c-61 -191 -75 -431 -42 -459zM239 143c8 -8 7 -25 -15 -25h-198c-10 0 -12 13 -1 21c39 26 48 48 53 85l21 150
c5 37 2 59 -29 85c-9 8 -3 21 7 21c96 0 149 65 187 72c22 5 10 -12 7 -24c-62 -191 -65 -357 -32 -385z" />
    <glyph glyph-name="j_j" unicode="jj" horiz-adv-x="460" 
d="M482 462c-35 -120 -51 -291 -51 -395c1 -149 -170 -249 -304 -259c-25 -1 -31 32 1 48c182 88 147 198 175 399c12 82 10 113 -21 139c-9 8 -3 20 7 20c96 0 149 65 188 73c21 5 9 -12 5 -25zM367 481c-40 0 -61 33 -47 73c15 41 60 73 100 73c41 0 61 -32 47 -73
c-14 -40 -59 -73 -100 -73zM210 67c8 -119 -94 -201 -229 -201c-148 0 -198 116 -109 172c84 54 136 -17 89 -60c-41 -36 22 -100 70 -73c73 39 24 149 52 350c12 82 9 113 -21 139c-10 8 -4 20 7 20c95 0 149 65 187 73c22 5 10 -12 6 -25c-35 -120 -59 -292 -52 -395z
M147 481c-41 0 -61 33 -47 73c14 41 59 73 100 73c40 0 61 -32 46 -73c-14 -40 -59 -73 -99 -73z" />
    <glyph glyph-name="t_h" unicode="th" horiz-adv-x="783" 
d="M773 139c10 -8 4 -21 -6 -21h-199c-21 0 -18 16 -6 25c72 58 77 303 8 303c-19 0 -48 -22 -72 -61c-17 -121 -15 -224 6 -242c9 -8 7 -25 -14 -25h-199c-10 0 -12 13 -1 21c39 26 48 48 53 85l30 211c17 124 -205 165 -131 9h66c13 0 15 -11 14 -24
c-2 -13 -8 -24 -21 -24h-48c-27 -135 -23 -231 3 -253c8 -8 7 -25 -15 -25h-202c-13 0 -11 16 1 25c37 31 46 106 52 148c4 27 12 72 2 105h-22c-13 0 -15 11 -13 24c1 13 7 24 20 24h6c78 0 87 101 164 126c64 20 130 -32 205 10c36 21 64 43 87 47c20 5 10 -12 5 -25
c-16 -53 -30 -109 -40 -164c26 28 60 50 99 50c108 0 164 -88 148 -198l-9 -66c-5 -37 -1 -59 29 -85z" />
    <glyph glyph-name="s_h" unicode="sh" horiz-adv-x="840" 
d="M827 139c9 -8 3 -21 -7 -21h-199c-21 0 -18 16 -6 25c72 58 77 303 8 303c-19 0 -48 -22 -72 -61c-17 -121 -15 -224 6 -242c9 -8 7 -25 -14 -25h-199c-10 0 -12 13 -1 21c39 26 49 48 54 85l32 225c15 108 -101 93 -59 -21l2 -7c24 -77 -147 -92 -127 -4
c12 55 -37 51 -47 17c-27 -86 151 -105 153 -197c1 -56 -80 -116 -168 -118l-2 -1c-64 -1 -135 19 -150 67c-25 77 146 92 127 4c-13 -55 34 -50 46 -17c32 85 -154 92 -152 192c1 74 78 121 167 124h2c25 0 52 -2 76 -9c24 77 131 53 212 103c35 21 63 41 85 45
c20 5 10 -12 5 -25c-16 -53 -30 -109 -40 -164c26 28 60 50 99 50c108 0 164 -88 148 -198l-9 -66c-5 -37 -1 -59 30 -85z" />
    <glyph glyph-name="f_l" unicode="fl" horiz-adv-x="508" 
d="M496 143c8 -8 7 -25 -15 -25h-198c-11 0 -12 13 -1 21c39 26 48 48 53 85l34 239c12 90 -13 136 -35 136c-39 0 -67 -73 -85 -155h69c13 0 15 -11 14 -24c-2 -13 -8 -24 -21 -24h-71l-3 -23c-14 -99 -19 -213 2 -230c8 -8 7 -25 -15 -25h-198c-10 0 -12 13 -1 21
c39 26 48 48 53 85l24 172h-16c-14 0 -16 11 -14 24c1 13 7 24 21 24h16v2c15 108 118 181 225 181c45 0 82 -20 110 -48c38 20 65 44 88 48c21 5 10 -12 6 -25c-15 -46 -27 -95 -36 -144v-1c-29 -150 -31 -293 -6 -314z" />
    <glyph glyph-name="f_t" unicode="ft" horiz-adv-x="524" 
d="M548 444c13 0 15 -11 14 -24c-2 -13 -8 -24 -21 -24h-49c-24 -129 -20 -232 4 -253c8 -8 7 -25 -14 -25h-203c-13 0 -11 16 1 25c37 31 46 106 52 148c4 27 12 72 3 105h-95l-3 -23c-14 -99 -19 -213 2 -230c8 -8 7 -25 -15 -25h-198c-10 0 -12 13 -1 21
c39 26 48 48 53 85l24 172h-16c-14 0 -16 11 -14 24c1 13 7 24 21 24h16v2c15 108 107 181 214 181c92 0 127 -43 109 -88c-27 -72 -145 -56 -107 10c15 27 19 50 4 50c-28 0 -60 -73 -79 -155h75c109 0 132 106 181 123c21 8 28 -8 24 -21c-11 -35 -20 -69 -28 -102h46z
" />
    <glyph glyph-name="a_m" unicode="am" horiz-adv-x="1134" 
d="M1122 139c9 -8 3 -21 -7 -21h-199c-21 0 -18 16 -6 25c72 58 88 290 23 290c-25 0 -54 -43 -77 -100c1 -14 0 -28 -2 -43l-9 -66c-5 -37 -1 -59 29 -85c9 -8 4 -21 -7 -21h-198c-22 0 -19 16 -7 25c73 58 85 290 21 290c-18 0 -38 -34 -57 -74c-12 -71 -17 -140 -23 -186
c-12 -85 -102 -184 -206 -184c-102 0 -165 81 -154 177c-26 -29 -65 -48 -105 -48c-67 0 -114 53 -105 118s71 118 138 118c40 0 74 -19 92 -48l4 30c8 58 -5 124 -41 124c-15 0 -18 -24 -10 -50c14 -49 -139 -69 -130 -11c6 43 62 89 154 89c107 0 178 -74 163 -182
l-28 -198c-6 -43 2 -89 26 -89s46 46 52 89l28 200c5 37 2 59 -29 86c-9 8 -3 20 7 20c96 0 146 65 184 73c22 4 10 -12 6 -25l-8 -30c23 32 51 56 83 56c63 0 108 -42 125 -104c25 49 66 104 123 104c91 0 145 -88 129 -198l-9 -66c-5 -37 -1 -59 30 -85zM190 172
c28 0 54 29 59 64s-13 64 -41 64c-27 0 -53 -29 -58 -64s13 -64 40 -64z" />
    <glyph glyph-name="a_n" unicode="an" horiz-adv-x="915" 
d="M896 139c9 -8 4 -21 -7 -21h-198c-22 0 -19 16 -7 25c73 58 77 299 8 299c-19 0 -41 -26 -62 -60c-15 -79 -20 -158 -27 -209c-12 -85 -102 -184 -206 -184c-102 0 -165 81 -154 177c-26 -29 -65 -48 -105 -48c-67 0 -114 53 -105 118s71 118 138 118c40 0 74 -19 92 -48
l4 30c8 58 -5 124 -41 124c-15 0 -18 -24 -10 -50c14 -49 -139 -69 -130 -11c6 43 62 89 154 89c107 0 178 -74 163 -182l-28 -198c-6 -43 2 -89 26 -89s46 46 52 89l28 200c5 37 2 59 -29 86c-9 8 -3 20 7 20c96 0 146 65 184 73c22 4 10 -12 6 -25l-6 -21
c24 27 52 47 84 47c109 0 165 -88 149 -198l-9 -66c-5 -37 -2 -59 29 -85zM190 172c28 0 54 29 59 64s-13 64 -41 64c-27 0 -53 -29 -58 -64s13 -64 40 -64z" />
    <glyph glyph-name="n_g" unicode="ng" horiz-adv-x="939" 
d="M608 172c22 -35 259 63 303 -42c5 -13 7 -27 5 -41c-25 -179 -646 -350 -581 114c20 144 16 239 -34 239c-20 0 -45 -30 -67 -68c-29 -127 -26 -208 1 -231c9 -8 7 -25 -14 -25h-195c-10 0 -12 13 -1 21c39 26 48 48 53 85l12 84c5 37 2 59 -29 86c-9 8 -3 20 7 20
c96 0 145 65 184 73c22 4 9 -12 5 -25l-6 -21c24 26 53 47 85 47c108 0 165 -88 149 -198l-18 -132c-46 -322 237 -250 260 -84c4 27 -13 49 -56 53c-57 6 -108 -6 -117 35c-2 16 21 40 43 57c-51 27 -81 71 -74 121c12 81 119 148 240 148c19 0 38 -2 55 -5
c17 44 70 82 126 80c65 -3 47 -96 -6 -88c-37 6 -74 14 -94 2c76 -22 125 -75 116 -137c-11 -82 -118 -149 -239 -149c-34 0 -65 6 -92 15c-15 -11 -29 -22 -21 -34zM759 460c-32 0 -65 -54 -75 -120c-9 -67 9 -121 41 -121s65 54 74 121c10 66 -8 120 -40 120z" />
    <glyph glyph-name=".notdef" horiz-adv-x="168" 
 />
    <glyph glyph-name="NULL" horiz-adv-x="0" 
 />
    <glyph glyph-name="NULL" horiz-adv-x="0" 
 />
    <glyph glyph-name="CR" unicode="&#xd;" horiz-adv-x="168" 
 />
    <glyph glyph-name="space" unicode=" " horiz-adv-x="168" 
 />
    <glyph glyph-name="e" unicode="e" horiz-adv-x="399" 
d="M388 233c12 13 27 -4 19 -15c-41 -59 -114 -100 -191 -100c-111 0 -188 83 -174 185s114 185 234 185c78 0 155 -53 145 -119c-9 -65 -80 -118 -158 -118c-26 0 -48 6 -68 15c5 -33 23 -61 62 -73c35 -10 98 3 131 40zM267 460c-16 0 -53 -31 -62 -95
c-8 -53 13 -86 37 -86c27 0 51 41 58 90c7 50 -6 91 -33 91z" />
    <glyph glyph-name="f" unicode="f" horiz-adv-x="296" 
d="M318 444c13 0 15 -11 14 -24c-2 -13 -8 -24 -21 -24h-71l-3 -23c-14 -99 -19 -213 2 -230c8 -8 7 -25 -15 -25h-198c-10 0 -12 13 -1 21c39 26 48 48 53 85l24 172h-16c-14 0 -16 11 -14 24c1 13 7 24 21 24h16v2c15 108 107 181 214 181c92 0 137 -46 130 -88
c-14 -74 -166 -56 -128 10c15 27 19 50 4 50c-28 0 -60 -73 -79 -155h68z" />
    <glyph glyph-name="g" unicode="g" horiz-adv-x="460" 
d="M394 172c146 -84 -17 -307 -198 -307c-127 0 -213 68 -230 142c-22 98 194 117 165 36c-35 -97 79 -170 160 -140c89 32 64 204 -96 224c-56 7 -108 -6 -116 35c-3 16 20 40 43 57c-52 27 -82 71 -75 121c12 81 119 148 240 148c19 0 38 -2 55 -5c17 44 70 82 126 80
c65 -3 47 -96 -6 -88c-36 6 -74 14 -94 2c76 -22 126 -75 117 -137c-11 -82 -119 -149 -240 -149c-34 0 -65 6 -92 15c-15 -11 -29 -22 -20 -34c22 -35 184 44 261 0zM283 460c-32 0 -65 -54 -75 -120c-9 -67 9 -121 41 -121s66 54 75 121c10 66 -9 120 -41 120z" />
    <glyph glyph-name="h" unicode="h" horiz-adv-x="519" 
d="M508 139c10 -8 4 -21 -6 -21h-199c-21 0 -18 16 -7 25c73 58 77 303 8 303c-18 0 -47 -22 -71 -61c-17 -121 -16 -224 6 -242c8 -8 7 -25 -15 -25h-198c-10 0 -12 13 -1 21c39 26 48 48 53 85l32 225c5 37 2 59 -29 85c-9 8 -4 20 6 20c96 0 150 66 188 73
c21 5 10 -12 6 -25c-17 -53 -30 -109 -40 -164c26 28 59 50 98 50c109 0 165 -88 149 -198l-9 -66c-5 -37 -1 -59 29 -85z" />
    <glyph glyph-name="i" unicode="i" horiz-adv-x="247" 
d="M221 118h-195c-10 0 -12 13 -1 21c39 26 48 48 53 85l12 84c5 37 2 59 -29 86c-9 8 -3 20 7 20c96 0 145 65 184 73c22 4 9 -12 5 -25c-52 -178 -55 -291 -22 -319c9 -8 7 -25 -14 -25zM142 481c-40 0 -61 33 -47 73c15 41 60 73 101 73c40 0 61 -32 46 -73
c-14 -40 -59 -73 -100 -73z" />
    <glyph glyph-name="j" unicode="j" horiz-adv-x="235" 
d="M262 462c-35 -120 -59 -292 -52 -395c8 -119 -94 -202 -229 -202c-148 0 -198 117 -109 173c84 54 136 -17 89 -60c-40 -36 22 -100 70 -73c73 39 24 148 52 349c12 83 9 113 -21 140c-10 8 -4 20 7 20c95 0 149 65 187 73c22 4 10 -12 6 -25zM147 481
c-41 0 -61 33 -47 73c14 41 59 73 100 73c40 0 61 -32 46 -73c-14 -40 -59 -73 -99 -73z" />
    <glyph glyph-name="k" unicode="k" horiz-adv-x="506" 
d="M495 143c11 -8 14 -25 -7 -25h-210c-11 0 -17 13 -8 21c30 26 30 48 26 85c-6 54 -13 147 -67 134c-14 -109 -10 -199 10 -215c8 -8 7 -25 -15 -25h-198c-10 0 -12 13 -1 21c39 26 48 48 53 85l32 225c5 37 2 59 -29 85c-9 8 -4 20 6 20c96 0 150 66 188 73
c21 5 10 -12 6 -25c-23 -69 -38 -145 -48 -215c53 14 156 140 231 88c62 -42 -20 -122 -86 -76c-21 15 -42 9 -64 -2c87 -24 84 -187 181 -254z" />
    <glyph glyph-name="l" unicode="l" horiz-adv-x="243" 
d="M239 143c8 -8 7 -25 -15 -25h-198c-10 0 -12 13 -1 21c39 26 48 48 53 85l32 225c5 37 2 59 -29 85c-9 8 -4 20 6 20c96 0 150 66 188 73c21 5 10 -12 6 -25c-62 -191 -75 -431 -42 -459z" />
    <glyph glyph-name="m" unicode="m" horiz-adv-x="738" 
d="M730 139c10 -8 4 -21 -6 -21h-199c-21 0 -18 16 -6 25c72 58 87 290 23 290c-25 0 -54 -43 -77 -100c1 -14 0 -28 -2 -43l-9 -66c-5 -37 -2 -59 29 -85c9 -8 3 -21 -7 -21h-199c-21 0 -18 16 -6 25c72 58 85 290 20 290c-20 0 -43 -44 -63 -90c-23 -109 -18 -179 7 -200
c9 -8 7 -25 -14 -25h-195c-10 0 -12 13 -1 21c39 26 48 48 53 85l12 84c5 37 2 59 -29 86c-9 8 -3 20 7 20c96 0 145 65 184 73c22 4 9 -12 5 -25l-8 -31c24 32 51 57 84 57c63 0 108 -42 125 -104c24 49 66 104 122 104c92 0 146 -88 130 -198l-9 -66c-5 -37 -1 -59 29 -85
z" />
    <glyph glyph-name="n" unicode="n" horiz-adv-x="515" 
d="M505 139c9 -8 3 -21 -7 -21h-199c-21 0 -18 16 -6 25c72 58 77 299 8 299c-20 0 -45 -30 -67 -68c-29 -127 -26 -208 1 -231c9 -8 7 -25 -14 -25h-195c-10 0 -12 13 -1 21c39 26 48 48 53 85l12 84c5 37 2 59 -29 86c-9 8 -3 20 7 20c96 0 145 65 184 73
c22 4 9 -12 5 -25l-6 -21c24 26 53 47 85 47c108 0 165 -88 149 -198l-9 -66c-5 -37 -2 -59 29 -85z" />
    <glyph glyph-name="o" unicode="o" horiz-adv-x="425" 
d="M268 488c110 0 187 -83 173 -185s-115 -185 -225 -185c-111 0 -188 83 -174 185s115 185 226 185zM220 146c31 0 67 71 79 157c12 87 -4 157 -35 157c-32 0 -68 -70 -80 -157c-12 -86 4 -157 36 -157z" />
    <glyph glyph-name="p" unicode="p" horiz-adv-x="473" 
d="M320 488c109 -1 186 -83 172 -185s-116 -185 -226 -185c-25 0 -47 5 -68 12c-8 -82 -4 -149 17 -174c9 -10 8 -25 -13 -25h-202c-9 0 -11 13 0 21c37 26 47 48 52 85l38 271c5 37 2 59 -29 86c-9 8 -3 20 7 20c96 0 141 74 250 74h2zM270 146c32 0 68 71 80 157
c12 87 -4 157 -36 157s-68 -70 -80 -157c-12 -86 4 -157 36 -157z" />
    <glyph glyph-name="q" unicode="q" horiz-adv-x="471" 
d="M445 308l-38 -271c-5 -37 -2 -59 29 -85c10 -8 4 -21 -6 -21h-202c-22 0 -18 15 -8 25c30 25 52 92 67 174c-22 -7 -47 -12 -71 -12c-111 0 -188 83 -174 185s114 184 224 185h2c108 0 134 -74 230 -74c10 0 12 -12 0 -20c-38 -27 -48 -49 -53 -86zM220 146
c31 0 67 71 79 157c12 87 -4 157 -35 157c-32 0 -68 -70 -80 -157c-12 -86 4 -157 36 -157z" />
    <glyph glyph-name="r" unicode="r" horiz-adv-x="419" 
d="M372 488c39 0 85 -21 87 -63c6 -95 -166 -126 -145 -48c8 22 19 42 1 42c-24 0 -63 -37 -87 -73c-22 -111 -18 -182 7 -203c9 -8 7 -25 -14 -25h-195c-10 0 -12 13 -1 21c39 26 48 48 53 85l12 84c5 37 2 59 -29 86c-9 8 -3 20 7 20c96 0 145 65 184 73c22 4 9 -12 5 -25
l-17 -65c28 34 82 91 132 91z" />
    <glyph glyph-name="s" unicode="s" horiz-adv-x="339" 
d="M198 434c-27 -86 151 -105 153 -197c1 -56 -80 -116 -168 -118l-2 -1c-64 -1 -135 19 -150 67c-25 77 146 92 127 4c-13 -55 34 -50 46 -17c32 85 -154 92 -152 192c1 74 78 121 167 124h2c63 1 136 -18 151 -67c24 -77 -147 -92 -127 -4c12 55 -37 51 -47 17z" />
    <glyph glyph-name="t" unicode="t" horiz-adv-x="281" 
d="M308 444c13 0 15 -11 14 -24c-2 -13 -8 -24 -21 -24h-49c-24 -129 -20 -232 4 -253c8 -8 7 -25 -15 -25h-202c-13 0 -11 16 1 25c37 31 46 106 53 149c3 26 11 71 1 104h-22c-13 0 -15 11 -13 24c1 13 7 24 20 24h6c96 0 132 106 181 123c21 8 28 -8 24 -21
c-11 -35 -20 -69 -28 -102h46z" />
    <glyph glyph-name="u" unicode="u" horiz-adv-x="501" 
d="M511 462c-24 -80 -63 -249 -11 -323c8 -10 4 -21 -6 -21h-92c-44 0 -68 29 -74 58c-26 -32 -61 -58 -106 -58c-90 0 -153 42 -132 190c5 37 2 59 -29 86c-9 8 -3 20 7 20c96 0 145 65 184 73c22 4 10 -12 5 -25c-41 -119 -62 -298 13 -298c21 0 44 30 61 60l12 84
c5 37 2 59 -29 86c-9 8 -3 20 7 20c96 0 146 65 184 73c22 4 10 -12 6 -25z" />
    <glyph glyph-name="v" unicode="v" horiz-adv-x="453" 
d="M493 488c12 0 8 -13 -6 -21c-38 -20 -52 -48 -68 -85l-102 -227c-9 -20 -20 -37 -42 -37h-66c-31 0 -41 12 -45 39l-23 134c-20 120 -39 155 -65 172c-12 8 -15 25 6 25h215c11 0 16 -12 7 -21c-65 -62 -1 -265 3 -274c0 0 90 228 58 274c-7 9 -1 21 13 21h115z" />
    <glyph glyph-name="w" unicode="w" horiz-adv-x="701" 
d="M743 488c12 0 8 -13 -6 -21c-38 -20 -52 -48 -68 -85l-102 -227c-9 -20 -20 -37 -42 -37h-66c-31 0 -41 12 -45 39l-23 134c0 8 -1 15 -4 22l-70 -158c-9 -20 -20 -37 -42 -37h-66c-31 0 -41 12 -45 39l-23 134c-20 120 -39 155 -65 172c-12 8 -15 25 6 25h215
c11 0 16 -12 7 -21c-65 -62 -1 -265 3 -274c0 0 48 121 61 204c-12 39 -26 56 -42 66c-11 8 -15 25 6 25h216c10 0 15 -12 6 -21c-65 -62 -1 -265 3 -274c0 0 90 228 58 274c-6 9 -1 21 13 21h115z" />
    <glyph glyph-name="x" unicode="x" horiz-adv-x="423" 
d="M410 143c12 -9 18 -25 -3 -25h-207c-10 0 -18 13 -10 21c21 19 16 45 5 78c-5 17 -10 32 -15 46c-18 -45 -33 -98 -14 -124c6 -8 -1 -21 -14 -21h-108c-12 0 -8 13 7 21c40 20 56 48 76 85l41 78c-37 111 -62 144 -89 161c-13 8 -19 25 2 25h206c11 0 18 -12 11 -21
c-15 -17 -10 -70 7 -129c20 46 36 103 16 129c-6 8 2 21 15 21h108c12 0 7 -13 -7 -21c-40 -20 -57 -48 -76 -85l-43 -82c24 -69 60 -137 92 -157z" />
    <glyph glyph-name="y" unicode="y" horiz-adv-x="457" 
d="M497 488c12 0 8 -13 -6 -21c-38 -20 -52 -48 -69 -85l-87 -195l-63 -138c-69 -146 -146 -183 -204 -183c-108 0 -136 109 -81 170c64 72 176 48 147 -32c-32 -86 52 -71 127 82l15 32h-63c-40 0 -44 15 -50 50l-22 123c-19 120 -39 155 -64 172c-12 8 -16 25 6 25h218
c10 0 14 -10 7 -21c-66 -111 -5 -265 -1 -274l1 -3l3 9s92 221 57 268c-6 9 0 21 13 21h116z" />
    <glyph glyph-name="z" unicode="z" horiz-adv-x="414" 
d="M453 488c21 0 11 -16 -3 -25c-62 -37 -134 -247 -204 -317h17c62 0 97 57 128 91c9 10 22 7 20 -4l-12 -87c-3 -20 -13 -28 -32 -28h-304c-21 0 -18 16 -2 25c48 28 218 282 190 313c-13 14 -63 -13 -64 -59c0 -63 -170 -72 -125 18c21 44 87 73 150 73h241z" />
    <glyph glyph-name="A" unicode="A" horiz-adv-x="547" 
d="M542 139c12 -8 5 -21 -5 -21h-222c-10 0 -14 12 -7 21c21 24 28 76 27 136h-174c-12 -28 -26 -78 26 -136c7 -8 1 -21 -9 -21h-151c-10 0 -15 13 -1 21c32 17 59 38 82 84l129 289c17 37 24 69 2 95c-7 8 2 20 13 20h97c62 0 92 -62 99 -99c0 -4 49 -300 50 -304
c6 -37 6 -59 44 -85zM174 303h160c-6 106 -34 223 -52 242z" />
    <glyph glyph-name="B" unicode="B" horiz-adv-x="493" 
d="M405 383c68 -14 112 -67 103 -130c-10 -74 -89 -135 -176 -135h-306c-10 0 -12 13 -1 21c39 26 48 48 53 85l42 298c5 36 2 59 -29 85c-9 8 -3 20 7 20h260c75 0 140 -60 130 -134c-7 -45 -40 -85 -83 -110zM239 146c60 0 118 48 126 107c8 58 -36 106 -96 106h-32
c-8 -64 -15 -136 -17 -213h19zM357 493c8 56 -21 102 -74 106c-10 -38 -27 -114 -42 -212h4c59 0 104 48 112 106z" />
    <glyph glyph-name="C" unicode="C" horiz-adv-x="522" 
d="M514 312c10 26 36 17 30 -4c-28 -109 -143 -190 -259 -190c-148 0 -253 114 -233 255c20 140 157 254 305 254c131 0 249 -112 162 -217c-62 -74 -245 -110 -193 15c55 131 22 172 -36 156c-61 -17 -97 -124 -76 -238c33 -177 253 -150 300 -31z" />
    <glyph glyph-name="D" unicode="D" horiz-adv-x="520" 
d="M308 627c154 0 264 -114 244 -254s-162 -255 -316 -255h-210c-10 0 -12 13 -1 21c39 26 48 48 53 85l42 298c5 36 2 59 -29 85c-9 8 -3 20 7 20h210zM220 147c92 8 160 104 177 226s-24 218 -114 226c-18 -66 -57 -240 -63 -452z" />
    <glyph glyph-name="E" unicode="E" horiz-adv-x="432" 
d="M423 237c9 10 22 7 20 -4l-12 -87c-3 -20 -13 -28 -32 -28h-373c-10 0 -12 13 -1 21c39 26 48 48 53 85l42 298c5 36 2 59 -29 85c-9 8 -3 20 7 20h281c52 0 113 -15 105 -65c-10 -75 -105 -77 -133 -12c-18 43 -36 48 -68 49c-10 -38 -27 -114 -42 -212h20
c62 0 60 21 91 55c9 11 22 8 20 -5l-18 -128c-2 -13 -15 -16 -22 -6c-21 35 -13 56 -75 56h-20c-8 -64 -15 -136 -17 -213h75c62 0 97 57 128 91z" />
    <glyph glyph-name="F" unicode="F" horiz-adv-x="353" 
d="M402 627c53 0 113 -15 105 -65c-10 -75 -104 -77 -133 -12c-19 45 -38 49 -73 49c-38 -34 -52 -157 -62 -224h33c62 0 60 21 91 55c9 11 22 7 20 -6l-18 -127c-2 -13 -15 -16 -22 -6c-21 34 -13 56 -75 56h-33c-10 -73 -24 -179 6 -204c9 -8 7 -25 -14 -25h-201
c-10 0 -12 13 -1 21c39 26 48 48 53 85l42 298c5 36 2 59 -29 85c-9 8 -3 20 7 20h304z" />
    <glyph glyph-name="G" unicode="G" horiz-adv-x="530" 
d="M549 337c-39 -27 -48 -49 -53 -86l-4 -27c-5 -37 -2 -59 29 -85c9 -8 4 -21 -7 -21h-238c-149 0 -244 114 -224 255c20 140 157 254 305 254c131 0 208 -75 184 -147c-29 -89 -187 -101 -170 -14c22 107 -33 130 -81 115c-128 -42 -76 -467 33 -426c56 21 47 152 16 178
c-10 8 -7 24 14 24h195c11 0 12 -12 1 -20z" />
    <glyph glyph-name="H" unicode="H" horiz-adv-x="550" 
d="M609 603c-42 -29 -63 -160 -73 -230s-25 -202 9 -230c8 -8 6 -25 -15 -25h-208c-10 0 -12 13 -1 21c39 26 49 48 54 85l18 125h-157c-10 -72 -18 -181 12 -206c9 -8 7 -25 -14 -25h-208c-10 0 -12 13 -1 21c39 26 48 48 53 85l42 298c5 36 2 59 -29 85c-9 8 -3 20 7 20
h208c21 0 18 -16 6 -24c-40 -28 -63 -155 -73 -226h157l21 145c5 36 1 59 -30 85c-9 8 -3 20 7 20h208c21 0 18 -16 7 -24z" />
    <glyph glyph-name="I" unicode="I" horiz-adv-x="255" 
d="M313 603c-41 -29 -63 -160 -73 -230s-24 -202 9 -230c8 -8 7 -25 -14 -25h-202c-21 0 -18 17 -6 25c41 28 63 160 73 230s24 201 -9 230c-9 8 -7 24 14 24h202c21 0 17 -16 6 -24z" />
    <glyph glyph-name="J" unicode="J" horiz-adv-x="457" 
d="M515 627c21 0 18 -16 7 -24c-42 -29 -62 -191 -71 -261c-20 -138 -107 -224 -244 -224c-112 0 -183 59 -171 139c17 122 202 76 155 0c-39 -64 8 -123 49 -100c37 22 53 82 64 158c15 118 18 262 -8 288c-8 9 -7 24 14 24h205z" />
    <glyph glyph-name="K" unicode="K" horiz-adv-x="530" 
d="M523 143c11 -8 8 -25 -14 -25h-221c-11 0 -9 13 -1 21c30 26 31 48 26 85c-6 52 -25 142 -76 135c-9 -72 -21 -189 11 -216c9 -8 7 -25 -14 -25h-208c-10 0 -12 13 -1 21c39 26 48 48 53 85l42 298c5 36 2 59 -29 85c-9 8 -3 20 7 20h208c21 0 18 -16 6 -24
c-37 -26 -59 -137 -70 -209c50 39 136 233 265 233c98 0 22 -198 -59 -116c-46 48 -112 -53 -168 -113c148 22 132 -178 243 -255z" />
    <glyph glyph-name="L" unicode="L" horiz-adv-x="446" 
d="M442 258c9 10 22 7 20 -4c-1 -7 -26 -81 -33 -108c-5 -20 -12 -28 -31 -28h-372c-10 0 -12 13 -1 21c39 26 48 48 53 85l42 298c5 36 2 59 -29 85c-9 8 -3 20 7 20h208c21 0 18 -16 6 -24c-41 -29 -63 -160 -73 -230c-9 -67 -23 -192 5 -227h33c62 0 134 77 165 112z" />
    <glyph glyph-name="M" unicode="M" horiz-adv-x="621" 
d="M626 522l-42 -298c-5 -37 -1 -59 29 -85c10 -8 4 -21 -6 -21h-208c-22 0 -19 17 -7 25c41 28 63 160 73 230c6 44 15 112 11 163l-123 -249l-71 -143c-18 -35 -40 -35 -47 1l-85 393l-47 -338c-6 -37 2 -35 32 -61c10 -8 4 -21 -6 -21h-103c-10 0 -12 13 -1 21
c39 26 44 24 50 61l48 346c5 37 -1 35 -32 61c-9 8 -3 20 7 20h123c42 0 62 -14 69 -52l54 -246l121 245c20 40 41 53 76 53h138c10 0 12 -12 0 -20c-38 -26 -48 -49 -53 -85z" />
    <glyph glyph-name="N" unicode="N" horiz-adv-x="499" 
d="M557 607c-38 -26 -45 -24 -50 -61l-48 -346c-6 -37 2 -35 32 -61c10 -8 4 -21 -7 -21h-112c-55 0 -83 22 -100 70l-121 359l-48 -347c-6 -37 2 -35 32 -61c10 -8 4 -21 -6 -21h-103c-10 0 -12 13 -1 21c39 26 44 24 50 61l48 346c5 37 -1 35 -32 61c-9 8 -3 20 7 20h112
c56 0 83 -21 100 -69l120 -359l49 347c5 37 -2 35 -32 61c-9 8 -4 20 7 20h102c11 0 13 -12 1 -20z" />
    <glyph glyph-name="O" unicode="O" horiz-adv-x="556" 
d="M357 627c149 0 254 -114 234 -254c-20 -141 -157 -255 -306 -255c-148 0 -253 114 -233 255c20 140 157 254 305 254zM290 156c59 0 121 97 138 217c17 119 -18 216 -77 216c-58 0 -119 -97 -136 -216c-17 -120 17 -217 75 -217z" />
    <glyph glyph-name="P" unicode="P" horiz-adv-x="420" 
d="M345 627c94 0 161 -67 150 -149c-12 -82 -98 -149 -192 -149h-70c-10 -71 -19 -163 8 -186c9 -8 7 -25 -14 -25h-201c-10 0 -12 13 -1 21c39 26 48 48 53 85l42 298c5 36 2 59 -29 85c-9 8 -3 20 7 20h247zM237 359c56 8 106 59 115 119c7 52 -18 96 -58 113
c-32 -43 -46 -155 -55 -218z" />
    <glyph glyph-name="Q" unicode="Q" horiz-adv-x="560" 
d="M512 75c32 90 153 34 116 -32c-32 -56 -128 -76 -222 -34c-18 8 -37 20 -54 30c-73 45 -142 113 -234 51c-14 -9 -28 15 0 31c20 12 39 18 57 21c-86 40 -137 129 -123 231c20 140 157 254 305 254c149 0 254 -114 234 -254s-156 -254 -305 -255c31 -15 60 -36 87 -53
c67 -42 122 -39 139 10zM351 589c-58 0 -119 -97 -136 -216c-17 -120 17 -217 75 -217c59 0 121 97 138 217c17 119 -18 216 -77 216z" />
    <glyph glyph-name="R" unicode="R" horiz-adv-x="509" 
d="M501 143c11 -8 11 -25 -10 -25h-194c-11 0 -13 13 -4 21c30 26 30 48 25 85c-4 43 -6 104 -60 104c-7 0 -17 -2 -26 -5c-9 -70 -17 -158 9 -180c9 -8 7 -25 -14 -25h-201c-10 0 -12 13 -1 21c39 26 48 48 53 85l42 298c5 36 2 59 -29 85c-9 8 -3 20 7 20h247
c94 0 161 -67 150 -149c-10 -67 -69 -124 -142 -142c57 -41 69 -138 148 -193zM352 478c7 52 -18 96 -58 113c-32 -43 -46 -155 -55 -218l-2 -14c56 8 106 59 115 119z" />
    <glyph glyph-name="S" unicode="S" horiz-adv-x="421" 
d="M332 417c52 -40 107 -82 107 -142c1 -77 -90 -153 -200 -156h-3c-58 -2 -86 17 -121 28c-40 13 -103 -58 -97 -14l22 154c4 28 20 34 34 6c87 -163 182 -173 208 -113c43 100 -223 130 -214 284c5 103 89 160 201 163h3c79 2 169 -25 188 -91c29 -106 -184 -115 -158 6
c16 75 -63 69 -76 23c-19 -62 48 -104 106 -148z" />
    <glyph glyph-name="T" unicode="T" horiz-adv-x="428" 
d="M573 627c19 0 23 -8 23 -27c-1 -27 3 -79 2 -86c-2 -11 -17 -13 -26 -4c-28 32 -88 89 -128 89h-23l-32 -226c-10 -70 -20 -202 14 -230c8 -8 7 -25 -15 -25h-210c-21 0 -19 17 -7 25c42 28 68 160 78 230l32 226h-23c-40 0 -116 -57 -154 -89c-10 -9 -26 -7 -24 4
c1 7 19 59 26 86c4 19 12 27 31 27h436z" />
    <glyph glyph-name="U" unicode="U" horiz-adv-x="587" 
d="M643 603c-41 -29 -63 -160 -73 -230s-24 -202 9 -230c9 -8 7 -25 -14 -25h-83c-35 0 -71 18 -78 61c-27 -32 -71 -61 -142 -61c-112 0 -189 63 -168 216l6 39c10 70 24 201 -9 230c-10 8 -7 24 14 24h207c21 0 17 -16 6 -24c-41 -29 -63 -160 -73 -230l-6 -39
c-11 -81 -11 -188 62 -188c34 0 97 34 107 107l17 120c10 70 24 201 -9 230c-9 8 -7 24 14 24h207c21 0 18 -16 6 -24z" />
    <glyph glyph-name="V" unicode="V" horiz-adv-x="454" 
d="M614 627c11 0 15 -12 0 -20c-49 -26 -54 -24 -74 -61l-214 -396c-20 -41 -67 -44 -79 0c-28 95 -98 368 -98 372c-10 36 -15 59 -56 85c-13 8 -5 20 5 20h226c10 0 10 -12 2 -20c-29 -26 -29 -49 -20 -85c0 -4 40 -159 62 -244l142 268c20 37 12 35 -8 61
c-6 8 -3 20 8 20h104z" />
    <glyph glyph-name="W" unicode="W" horiz-adv-x="747" 
d="M906 627c10 0 14 -12 0 -20c-49 -26 -55 -24 -74 -61l-214 -396c-20 -41 -67 -44 -79 0c-17 56 -48 175 -70 263l-143 -263c-20 -41 -67 -44 -79 0c-28 95 -98 368 -98 372c-10 36 -15 59 -56 85c-13 8 -5 20 5 20h226c10 0 10 -12 2 -20c-29 -26 -29 -49 -20 -85
c0 -4 40 -159 62 -244l91 171l-19 73c-9 36 -15 59 -56 85c-12 8 -4 20 6 20h225c4 0 6 -2 8 -4c1 -3 0 -6 -1 -9c0 -2 -3 -5 -5 -7c-28 -26 -29 -49 -19 -85c0 -4 40 -159 61 -244l143 268c19 37 12 35 -8 61c-7 8 -3 20 7 20h105z" />
    <glyph glyph-name="X" unicode="X" horiz-adv-x="561" 
d="M555 139c14 -8 8 -21 -2 -21h-249c-10 0 -12 13 -5 21c23 26 20 48 4 85c-1 2 -18 39 -38 87l-94 -111c-32 -37 -22 -35 -10 -61c3 -8 -4 -21 -14 -21h-109c-10 0 -10 13 7 21c57 26 61 24 93 61l115 137l-80 185c-16 36 -32 59 -78 85c-14 8 -8 20 2 20h249
c10 0 12 -12 5 -20c-23 -26 -20 -49 -4 -85l38 -87l93 111c31 37 23 35 11 61c-4 8 4 20 14 20h108c11 0 11 -12 -6 -20c-57 -26 -62 -24 -93 -61l-116 -137l80 -185c17 -37 33 -59 79 -85z" />
    <glyph glyph-name="Y" unicode="Y" horiz-adv-x="424" 
d="M593 627c10 0 13 -12 -2 -20c-52 -26 -57 -24 -81 -61l-117 -184l-20 -33c-9 -70 -15 -161 14 -186c9 -8 7 -25 -14 -25h-201c-22 0 -19 17 -7 25c36 25 56 116 67 185l-67 194c-13 36 -28 59 -71 85c-13 8 -7 20 4 20h248c11 0 11 -12 4 -20c-26 -26 -24 -49 -11 -85
c0 -2 20 -61 43 -126l95 150c23 37 15 35 -2 61c-6 8 -1 20 10 20h108z" />
    <glyph glyph-name="Z" unicode="Z" horiz-adv-x="466" 
d="M468 297c10 10 22 7 21 -4c-1 -7 -32 -120 -39 -147c-5 -20 -12 -28 -31 -28h-357c-23 0 -35 21 -13 39c109 92 245 356 288 442h-11c-44 0 -77 -38 -112 -89c-46 -65 -148 -36 -138 36c7 50 69 81 122 81h302c22 0 26 -14 13 -38c-59 -116 -146 -298 -276 -443h49
c62 0 151 116 182 151z" />
    <glyph glyph-name="zero" unicode="0" horiz-adv-x="458" 
d="M307 627c121 0 202 -114 182 -254c-20 -141 -133 -255 -254 -255s-203 114 -183 255c20 140 134 254 255 254zM241 159c34 0 74 95 91 214c17 118 3 214 -31 214s-75 -96 -92 -214c-17 -119 -2 -214 32 -214z" />
    <glyph glyph-name="one" unicode="1" horiz-adv-x="241" 
d="M239 143c8 -8 7 -25 -15 -25h-198c-10 0 -12 13 -1 21c39 26 48 48 53 85l32 225c5 37 2 59 -29 85c-9 8 -4 20 6 20c96 0 150 66 188 73c21 5 10 -12 6 -25c-62 -191 -75 -431 -42 -459z" />
    <glyph glyph-name="two" unicode="2" horiz-adv-x="401" 
d="M445 464c-32 -141 -230 -153 -325 -248h118c59 0 135 46 165 81c9 10 20 7 19 -4c-1 -7 -31 -120 -38 -147c-4 -20 -12 -28 -29 -28h-339c36 255 292 226 307 447c3 47 -74 52 -78 -23c-9 -121 -209 -112 -152 -6c35 66 129 93 204 91h2c105 -3 169 -60 146 -163z" />
    <glyph glyph-name="three" unicode="3" horiz-adv-x="425" 
d="M293 391c100 -1 150 -33 153 -100c5 -101 -86 -163 -204 -171l-2 -1c-85 -6 -181 17 -204 81c-37 104 188 124 167 2c-13 -75 65 -65 81 -19c38 103 -29 188 -105 193c-15 1 -2 20 9 21c149 12 134 126 123 170c-10 44 -57 49 -57 -26c-2 -120 -201 -121 -145 -13
c35 68 117 96 178 99h3c117 3 185 -36 178 -104c-6 -64 -85 -110 -175 -132z" />
    <glyph glyph-name="four" unicode="4" horiz-adv-x="438" 
d="M479 473c-23 -16 -48 -79 -63 -165c-9 -86 -2 -149 17 -165c8 -8 7 -25 -15 -25h-198c-11 0 -13 13 -1 21c38 26 48 48 53 85l8 56h-196c-38 0 -53 15 -31 57l129 223c60 96 197 74 169 28c0 0 -102 -177 -129 -225c-29 -47 -30 -55 44 -55h18l12 84c5 37 29 106 79 106
h96c22 0 19 -17 8 -25z" />
    <glyph glyph-name="five" unicode="5" horiz-adv-x="417" 
d="M126 432c127 24 310 2 315 -113c5 -117 -88 -189 -204 -199h-2c-83 -8 -177 18 -199 93c-33 121 189 144 165 3c-15 -88 63 -76 79 -23c46 159 -61 220 -157 213c-26 -1 -28 10 -23 30c11 44 31 121 38 153c7 29 31 38 49 38h230c18 0 22 -8 22 -27
c-1 -27 -3 -140 -4 -148c-1 -10 -14 -14 -20 -3c-22 34 -86 81 -147 81h-91c-18 0 -27 -6 -33 -28c-4 -18 -18 -70 -18 -70z" />
    <glyph glyph-name="six" unicode="6" 
d="M288 454c102 0 175 -75 162 -168s-107 -168 -209 -168c-3 0 -7 1 -10 1l-1 -1c-123 0 -200 99 -180 243c19 131 141 266 267 266c105 0 159 -52 161 -100c0 -56 -159 -74 -149 -2c4 26 -1 74 -31 74c-40 0 -79 -76 -103 -167c29 14 61 22 93 22zM245 147
c36 0 74 62 85 139s-10 139 -46 139s-73 -62 -84 -139c-10 -70 7 -129 37 -137c1 -1 2 -1 3 -1c2 0 3 -1 5 -1z" />
    <glyph glyph-name="seven" unicode="7" horiz-adv-x="363" 
d="M434 627l-208 -480c-9 -20 -20 -29 -38 -29h-91c-17 0 -21 9 -8 31l248 381h-81c-62 0 -142 -47 -173 -81c-10 -11 -21 -7 -20 3c1 8 32 121 38 148c4 19 13 27 32 27h301z" />
    <glyph glyph-name="eight" unicode="8" horiz-adv-x="427" 
d="M340 414c71 -23 117 -78 108 -142c-12 -85 -114 -154 -227 -154s-195 69 -183 154c9 64 69 119 148 142c-43 19 -68 56 -62 99c8 63 84 114 169 114s146 -51 138 -114c-6 -43 -43 -80 -91 -99zM289 599c-19 0 -41 -38 -47 -86c-7 -48 3 -87 22 -87c20 0 42 39 49 87
c6 48 -4 86 -24 86zM225 146c31 0 65 56 75 126c9 69 -9 125 -40 125s-64 -56 -73 -125c-10 -70 7 -126 38 -126z" />
    <glyph glyph-name="nine" unicode="9" horiz-adv-x="428" 
d="M283 627c124 0 201 -98 181 -242c-19 -131 -141 -267 -267 -267c-105 0 -160 52 -161 101c-1 55 158 74 148 2c-4 -27 1 -75 31 -75c41 0 84 79 110 171c-30 -16 -64 -25 -100 -25c-101 0 -174 75 -161 168c13 92 107 167 208 167h11zM229 321c36 0 73 62 84 139
c10 70 -6 128 -37 137c-2 0 -2 1 -3 1h-5c-36 0 -74 -62 -85 -138c-11 -77 10 -139 46 -139z" />
    <glyph glyph-name="asciitilde" unicode="~" horiz-adv-x="351" 
d="M370 381c11 3 16 -4 7 -12c-134 -116 -202 22 -313 -9c-11 -3 -18 8 -7 18c115 113 210 -21 313 3z" />
    <glyph glyph-name="exclam" unicode="!" horiz-adv-x="193" 
d="M119 229c30 0 51 -24 47 -55s-33 -56 -63 -56c-31 0 -52 25 -48 56s33 55 64 55zM175 627c49 0 98 -27 66 -112l-90 -234c-6 -15 -18 -22 -28 -22c-11 0 -21 7 -23 22l-24 234c-8 85 49 112 99 112z" />
    <glyph glyph-name="at" unicode="@" horiz-adv-x="528" 
d="M332 558c141 0 239 -114 219 -255c-5 -33 -15 -64 -31 -93c-80 -141 -226 -132 -212 -37l4 27c-22 -23 -52 -37 -84 -37c-53 0 -90 41 -83 93c8 51 57 93 110 93c32 0 57 -15 72 -38l4 24c6 46 -5 98 -33 98c-12 0 -14 -19 -8 -40c11 -38 -110 -54 -103 -8
c4 34 49 70 122 70c85 0 141 -58 129 -143l-10 -75c-15 -107 49 -84 87 32c4 11 6 22 8 34c18 125 -70 227 -195 227c-124 0 -240 -102 -258 -227c-17 -125 70 -226 194 -226c24 0 49 3 71 10l5 -26c-26 -8 -53 -12 -80 -12c-140 0 -238 114 -218 254
c20 141 150 255 290 255zM269 205c22 0 44 23 47 51c4 28 -10 50 -32 50c-21 0 -43 -22 -47 -50c-3 -28 11 -51 32 -51z" />
    <glyph glyph-name="numbersign" unicode="#" horiz-adv-x="489" 
d="M503 627l-74 -160h107l-4 -28h-116l-69 -148h108l-4 -28h-117l-66 -145h-29l66 145h-127l-67 -145h-29l66 145h-112l4 28h121l68 148h-112l4 28h121l75 160h29l-74 -160h127l75 160h29zM318 291l68 148h-127l-68 -148h127z" />
    <glyph glyph-name="dollar" unicode="$" horiz-adv-x="421" 
d="M332 417c52 -40 107 -82 107 -142c1 -77 -90 -153 -200 -156h-3c-6 -1 -13 -1 -19 0l-7 -53h-28l8 56c-31 6 -51 18 -75 25c-40 13 -103 -58 -97 -14l22 154c4 28 20 34 34 6c87 -163 182 -173 208 -113c43 100 -223 130 -214 284c5 100 85 157 193 163l7 53h28l-7 -53
c74 -2 153 -30 171 -91c29 -106 -184 -115 -158 6c16 75 -63 69 -76 23c-19 -62 48 -104 106 -148z" />
    <glyph glyph-name="percent" unicode="%" horiz-adv-x="436" 
d="M363 366c59 0 99 -55 90 -124c-10 -68 -66 -124 -125 -124s-98 56 -88 124c9 69 64 124 123 124zM283 503c-9 -68 -65 -124 -123 -124c-59 0 -99 56 -90 124c10 69 66 124 125 124c58 0 98 -55 88 -124zM413 627h32l-335 -509h-32zM331 138c17 0 37 47 45 104
c8 58 1 105 -16 105c-16 0 -36 -47 -44 -105c-8 -57 -1 -104 15 -104zM147 503c-8 -57 -1 -104 16 -104c16 0 36 47 44 104c8 58 1 105 -15 105c-17 0 -37 -47 -45 -105z" />
    <glyph glyph-name="asciicircum" unicode="^" horiz-adv-x="187" 
d="M194 617c2 -2 48 -71 48 -71c6 -7 4 -16 -2 -22c-6 -5 -14 -7 -21 -1l-55 44l-66 -44c-9 -6 -18 -4 -21 1c-4 6 -4 15 4 22c0 0 66 69 67 71c8 7 17 11 25 10c9 1 16 -3 21 -10z" />
    <glyph glyph-name="ampersand" unicode="&#x26;" horiz-adv-x="500" 
d="M445 494c25 89 139 22 99 -46s-122 -60 -187 -82c142 -3 75 -248 -143 -248c-251 0 -225 255 2 283c-190 33 -136 226 44 226c103 0 153 -46 141 -110c-10 -61 -147 -51 -111 13c15 28 12 69 -3 69c-39 0 -91 -146 -30 -192c8 -6 18 -19 3 -20c-77 -6 -105 -220 10 -220
c107 0 167 134 105 170c-41 23 -42 -30 -37 -52c14 -64 -84 -72 -93 -30c-4 15 -1 30 5 44c46 109 164 90 195 195z" />
    <glyph glyph-name="asterisk" unicode="*" horiz-adv-x="203" 
d="M234 572c16 7 28 1 30 -12s-5 -25 -23 -28l-54 -9l33 -37c10 -13 6 -26 -6 -35c-12 -8 -26 -5 -32 10l-17 48l-31 -48c-11 -15 -24 -18 -34 -10c-11 9 -10 22 3 35l43 37l-52 9c-15 3 -21 15 -15 28s20 19 34 12l44 -25v53c-1 17 11 27 25 27s21 -10 17 -27l-17 -53z" />
    <glyph glyph-name="parenleft" unicode="(" horiz-adv-x="186" 
d="M236 655c16 9 32 4 24 -7c-38 -48 -80 -172 -94 -275c-15 -103 -8 -227 16 -276c6 -10 -12 -15 -26 -6c-71 50 -122 158 -104 282c17 124 99 232 184 282z" />
    <glyph glyph-name="parenright" unicode=")" horiz-adv-x="191" 
d="M118 655c71 -50 122 -158 105 -282c-18 -124 -100 -232 -185 -282c-15 -9 -31 -4 -24 6c38 49 80 173 95 276c14 103 7 227 -17 275c-5 11 13 16 26 7z" />
    <glyph glyph-name="bracketleft" unicode="[" horiz-adv-x="238" 
d="M12 86l80 574h203l-4 -28h-86l-72 -518h86l-4 -28h-203z" />
    <glyph glyph-name="bracketright" unicode="]" horiz-adv-x="238" 
d="M88 632l4 28h203l-80 -574h-203l4 28h86l72 518h-86z" />
    <glyph glyph-name="braceleft" unicode="{" horiz-adv-x="261" 
d="M230 424c-3 -25 -29 -41 -58 -51c27 -10 47 -26 44 -51l-22 -157c-6 -41 22 -51 51 -51c16 0 11 -28 -4 -28h-93c-42 0 -76 40 -66 111l17 121c4 24 -14 41 -37 41c-17 0 -11 28 4 28c23 0 45 17 49 41l17 121c10 71 54 111 96 111h93c15 0 12 -28 -4 -28
c-29 0 -59 -10 -65 -51z" />
    <glyph glyph-name="braceright" unicode="}" horiz-adv-x="250" 
d="M269 387c15 0 12 -28 -4 -28c-24 0 -46 -17 -50 -41l-17 -121c-10 -71 -54 -111 -96 -111h-92c-14 0 -12 28 4 28c28 0 58 10 64 51l22 157c3 25 29 41 58 51c-27 10 -47 26 -44 51l22 157c6 41 -22 51 -50 51c-17 0 -11 28 4 28h92c42 0 76 -40 66 -111l-17 -121
c-4 -24 14 -41 38 -41z" />
    <glyph glyph-name="underscore" unicode="_" horiz-adv-x="283" 
d="M16 118l4 28h260l-4 -28h-260z" />
    <glyph glyph-name="hyphen" unicode="-" horiz-adv-x="222" 
d="M50 359l4 28h200l-4 -28h-200z" />
    <glyph glyph-name="plus" unicode="+" horiz-adv-x="222" 
d="M180 473l-12 -86h86l-4 -28h-86l-12 -86h-28l12 86h-86l4 28h86l12 86h28z" />
    <glyph glyph-name="multiply" unicode="&#xd7;" horiz-adv-x="184" 
d="M221 434l-69 -61l52 -61l-22 -20l-52 61l-69 -61l-18 20l70 61l-53 61l23 20l53 -61l68 61z" />
    <glyph glyph-name="divide" unicode="&#xf7;" horiz-adv-x="245" 
d="M50 358l4 28h221l-4 -28h-221zM168 409c-19 0 -33 16 -30 35s21 34 40 34c18 0 32 -15 29 -34s-21 -35 -39 -35zM158 336c18 0 32 -15 29 -34s-21 -34 -39 -34c-19 0 -33 15 -30 34s21 34 40 34z" />
    <glyph glyph-name="equal" unicode="=" horiz-adv-x="222" 
d="M57 411l4 28h200l-4 -28h-200zM43 306l3 28h200l-3 -28h-200z" />
    <glyph glyph-name="bar" unicode="|" horiz-adv-x="65" 
d="M16 118l72 509h28l-72 -509h-28z" />
    <glyph glyph-name="slash" unicode="/" horiz-adv-x="146" 
d="M16 118l174 509h28l-173 -509h-29z" />
    <glyph glyph-name="backslash" unicode="\" horiz-adv-x="149" 
d="M88 627h29l29 -509h-28z" />
    <glyph glyph-name="colon" unicode=":" horiz-adv-x="127" 
d="M115 446c29 0 50 -23 46 -53c-4 -29 -32 -53 -61 -53s-49 24 -45 53c4 30 31 53 60 53zM90 266c29 0 50 -24 45 -53c-4 -29 -31 -53 -60 -53s-50 24 -46 53c5 29 32 53 61 53z" />
    <glyph glyph-name="semicolon" unicode=";" horiz-adv-x="128" 
d="M109 405c30 0 50 -24 46 -53s-30 -53 -60 -53c-29 0 -50 24 -46 53s31 53 60 53zM84 224c30 0 50 -23 46 -53c-9 -62 -76 -96 -134 -103c-7 -1 -10 6 -4 9c21 10 49 27 57 46c-22 10 -28 33 -25 48c4 30 31 53 60 53z" />
    <glyph glyph-name="period" unicode="." horiz-adv-x="132" 
d="M84 224c29 0 50 -23 46 -53c-5 -29 -32 -53 -61 -53s-50 24 -45 53c4 30 31 53 60 53z" />
    <glyph glyph-name="comma" unicode="," horiz-adv-x="127" 
d="M85 224c30 0 50 -23 46 -53c-9 -62 -76 -96 -134 -103c-7 -1 -10 6 -4 9c21 10 49 27 57 46c-22 10 -28 33 -25 48c4 30 31 53 60 53z" />
    <glyph glyph-name="quotedblleft" unicode="&#x201c;" horiz-adv-x="279" 
d="M119 471c-29 0 -50 23 -46 52c9 62 76 97 135 104c7 1 10 -6 4 -9c-22 -10 -50 -27 -58 -46c21 -10 27 -33 25 -49c-4 -29 -31 -52 -60 -52zM247 471c-29 0 -50 23 -46 52c9 62 77 97 135 104c8 1 11 -6 4 -9c-21 -10 -50 -27 -58 -46c22 -10 27 -33 25 -49
c-4 -29 -31 -52 -60 -52z" />
    <glyph glyph-name="quoteleft" unicode="&#x2018;" horiz-adv-x="151" 
d="M119 471c-29 0 -50 23 -46 52c9 62 76 97 135 104c7 1 10 -6 4 -9c-22 -10 -50 -27 -58 -46c21 -10 27 -33 25 -49c-4 -29 -31 -52 -60 -52z" />
    <glyph glyph-name="quoteright" unicode="&#x2019;" horiz-adv-x="154" 
d="M163 627c30 0 49 -23 45 -53c-9 -62 -75 -96 -134 -103c-7 -1 -10 6 -4 9c21 10 50 27 57 46c-21 10 -27 33 -25 48c4 30 32 53 61 53z" />
    <glyph glyph-name="quotedblright" unicode="&#x201d;" horiz-adv-x="279" 
d="M292 627c29 0 49 -23 45 -53c-9 -62 -76 -96 -135 -103c-7 -1 -10 6 -4 9c21 10 51 27 58 46c-22 10 -27 33 -25 48c4 30 31 53 61 53zM163 627c30 0 49 -23 45 -53c-9 -62 -75 -96 -134 -103c-7 -1 -10 6 -4 9c21 10 50 27 57 46c-21 10 -27 33 -25 48c4 30 32 53 61 53
z" />
    <glyph glyph-name="quotesingle" unicode="'" horiz-adv-x="81" 
d="M118 627c19 0 30 -14 23 -37l-26 -87c-2 -10 -10 -15 -17 -15s-14 5 -14 15l-2 87c1 23 16 37 36 37z" />
    <glyph glyph-name="quotedbl" unicode="&#x22;" horiz-adv-x="157" 
d="M118 627c19 0 30 -14 23 -37l-26 -87c-2 -10 -10 -15 -17 -15s-14 5 -14 15l-2 87c1 23 16 37 36 37zM191 627c19 0 31 -14 24 -37l-26 -87c-3 -10 -11 -15 -18 -15s-13 5 -13 15l-2 87c1 23 16 37 35 37z" />
    <glyph glyph-name="less" unicode="&#x3c;" horiz-adv-x="181" 
d="M215 529l17 -19l-142 -137l104 -137l-23 -19l-119 156z" />
    <glyph glyph-name="greater" unicode="&#x3e;" horiz-adv-x="183" 
d="M71 510l24 19l118 -156l-162 -156l-18 19l143 137z" />
    <glyph glyph-name="question" unicode="?" horiz-adv-x="388" 
d="M286 627c105 -3 162 -49 152 -115c-15 -111 -208 -162 -217 -227c-5 -33 -60 -37 -54 0c19 135 122 184 123 280c-1 46 -38 52 -42 -23c-9 -121 -224 -112 -168 -6c35 66 129 93 204 91h2zM187 229c31 0 52 -24 48 -55s-33 -56 -64 -56c-30 0 -51 25 -47 56s33 55 63 55z
" />
    <glyph glyph-name="acute" unicode="&#xb4;" horiz-adv-x="154" 
d="M209 605c9 -17 1 -38 -23 -50l-88 -37c-11 -6 -19 -2 -22 4c-4 6 -2 16 7 23l74 63c21 17 42 14 52 -3z" />
    <glyph glyph-name="grave" unicode="`" horiz-adv-x="152" 
d="M143 608l57 -63c7 -7 6 -17 1 -23c-6 -6 -16 -10 -24 -4l-77 37c-22 12 -24 33 -9 50c14 17 35 20 52 3z" />
    <glyph glyph-name="circumflex" unicode="&#x2c6;" horiz-adv-x="213" 
d="M210 608l56 -63c7 -7 6 -17 1 -23c-6 -6 -16 -10 -24 -4l-68 33l-77 -33c-11 -6 -19 -2 -22 4c-4 6 -2 16 7 23l74 63c9 7 17 11 26 12h5c7 -1 15 -5 22 -12z" />
    <glyph glyph-name="cedilla" unicode="&#xb8;" horiz-adv-x="170" 
d="M133 94c78 -33 -7 -174 -95 -159c-97 18 2 127 26 82c12 -22 48 -10 51 22c1 13 -11 22 -26 27c-16 6 -20 18 -7 35l35 54l33 -14l-20 -29c-5 -8 -4 -15 3 -18z" />
    <glyph glyph-name="ring" unicode="&#x2da;" horiz-adv-x="151" 
d="M153 642c35 0 60 -29 55 -64s-38 -63 -73 -63s-59 28 -54 63s37 64 72 64zM139 547c17 0 33 14 36 31c2 17 -10 31 -27 31s-33 -14 -35 -31c-3 -17 9 -31 26 -31z" />
    <glyph glyph-name="tilde" unicode="&#x2dc;" horiz-adv-x="207" 
d="M260 560c6 2 10 -4 4 -9c-79 -87 -115 16 -180 -7c-7 -3 -10 6 -4 13c69 84 121 -15 180 3z" />
    <glyph glyph-name="dieresis" unicode="&#xa8;" horiz-adv-x="202" 
d="M123 595c22 0 38 -18 35 -40c-4 -22 -24 -40 -46 -40s-38 18 -34 40c3 22 23 40 45 40zM223 595c22 0 38 -18 35 -40c-4 -22 -24 -40 -46 -40s-38 18 -34 40c3 22 23 40 45 40z" />
    <glyph glyph-name="A.A1" unicode="&#xe000;" horiz-adv-x="633" 
d="M628 139c12 -8 4 -21 -6 -21h-221c-10 0 -15 12 -7 21c20 24 28 76 26 136h-173c-13 -28 -26 -78 26 -136c7 -8 1 -21 -9 -21h-151c-10 0 -15 13 -1 21c31 17 58 38 82 84l168 377h-52c-71 0 -116 -72 -83 -118c46 -63 -15 -136 -92 -136c-128 0 -101 281 179 281h121
c61 0 92 -62 98 -99l50 -304c7 -37 6 -59 45 -85zM259 303h160c-6 106 -34 223 -51 242z" />
    <glyph glyph-name="B.B1" unicode="&#xe001;" horiz-adv-x="672" 
d="M583 383c68 -14 113 -67 104 -130c-10 -74 -90 -135 -176 -135h-307c-10 0 -12 13 -1 21c39 26 48 48 53 85l53 376c-70 -1 -115 -72 -82 -118c46 -63 -15 -136 -92 -136c-128 0 -102 280 178 281h223c75 0 140 -60 130 -134c-7 -45 -40 -85 -83 -110zM418 146
c59 0 117 48 125 107c8 58 -36 106 -95 106h-32c-9 -64 -16 -136 -18 -213h20zM536 493c8 56 -21 102 -75 106c-10 -38 -27 -114 -42 -212h5c58 0 104 48 112 106z" />
    <glyph glyph-name="D.D1" unicode="&#xe002;" horiz-adv-x="696" 
d="M488 627c154 0 264 -114 244 -254s-162 -255 -316 -255h-211c-10 0 -12 13 0 21c38 26 48 48 53 85l53 376c-71 0 -117 -72 -84 -118c46 -63 -15 -136 -92 -136c-128 0 -101 281 180 281h173zM399 147c92 8 160 104 177 226s-23 218 -113 226c-18 -66 -57 -240 -64 -452z
" />
    <glyph glyph-name="E.E1" unicode="&#xe003;" horiz-adv-x="610" 
d="M603 237c9 10 21 7 19 -4l-12 -87c-3 -20 -12 -28 -31 -28h-374c-10 0 -12 13 0 21c38 26 48 48 53 85l53 376c-71 0 -117 -72 -84 -118c46 -63 -15 -136 -92 -136c-128 0 -101 281 180 281h243c53 0 113 -15 105 -65c-10 -75 -104 -77 -132 -12c-19 43 -36 48 -68 49
c-11 -38 -28 -114 -42 -212h19c62 0 61 21 92 55c9 11 21 8 19 -5l-18 -128c-2 -13 -14 -16 -21 -6c-21 35 -14 56 -76 56h-19c-9 -64 -15 -136 -18 -213h75c62 0 97 57 129 91z" />
    <glyph glyph-name="F.F1" unicode="&#xe004;" horiz-adv-x="534" 
d="M582 627c52 0 113 -15 105 -65c-10 -75 -105 -77 -133 -12c-20 45 -38 49 -73 49c-38 -34 -52 -157 -62 -224h32c62 0 61 21 92 55c9 11 21 7 19 -6l-18 -127c-2 -13 -14 -16 -21 -6c-21 34 -14 56 -76 56h-32c-10 -73 -24 -179 6 -204c8 -8 7 -25 -15 -25h-201
c-10 0 -12 13 0 21c38 26 48 48 53 85l53 376c-71 0 -117 -72 -84 -118c46 -63 -15 -136 -92 -136c-128 0 -101 281 180 281h267z" />
    <glyph glyph-name="H.H1" unicode="&#xe005;" horiz-adv-x="730" 
d="M788 603c-41 -29 -63 -160 -73 -230s-24 -202 9 -230c9 -8 7 -25 -14 -25h-208c-11 0 -12 13 -1 21c39 26 48 48 53 85l18 125h-156c-10 -72 -19 -181 12 -206c8 -8 7 -25 -15 -25h-208c-10 0 -12 13 0 21c38 26 48 48 53 85l53 376c-71 0 -117 -72 -84 -118
c46 -63 -15 -136 -92 -136c-128 0 -101 281 180 281h170c22 0 18 -16 7 -24c-41 -28 -63 -155 -73 -226h156l21 145c5 36 2 59 -29 85c-9 8 -4 20 7 20h208c21 0 18 -16 6 -24z" />
    <glyph glyph-name="I.I1" unicode="&#xe006;" horiz-adv-x="432" 
d="M492 603c-42 -29 -63 -160 -73 -230s-25 -202 9 -230c8 -8 7 -25 -15 -25h-201c-21 0 -19 17 -6 25c41 28 63 160 73 230l32 227c-71 0 -117 -72 -84 -118c46 -63 -15 -136 -92 -136c-128 0 -101 281 180 281h170c22 0 18 -16 7 -24z" />
    <glyph glyph-name="K.K1" unicode="&#xe007;" horiz-adv-x="712" 
d="M703 143c11 -8 7 -25 -14 -25h-222c-10 0 -9 13 0 21c30 26 30 48 26 85c-7 52 -26 142 -76 135c-10 -72 -21 -189 11 -216c8 -8 7 -25 -15 -25h-208c-10 0 -12 13 0 21c38 26 48 48 53 85l53 376c-71 0 -117 -72 -84 -118c46 -63 -15 -136 -92 -136
c-128 0 -101 281 180 281h170c22 0 18 -16 7 -24c-37 -26 -59 -137 -70 -209c50 39 135 233 264 233c99 0 23 -198 -58 -116c-46 48 -113 -53 -168 -113c147 22 132 -178 243 -255z" />
    <glyph glyph-name="L.L1" unicode="&#xe008;" horiz-adv-x="628" 
d="M622 258c9 10 21 7 19 -4c-1 -7 -25 -81 -32 -108c-5 -20 -13 -28 -31 -28h-373c-10 0 -12 13 0 21c38 26 48 48 53 85l53 376c-71 0 -117 -72 -84 -118c46 -63 -15 -136 -92 -136c-128 0 -101 281 180 281h170c22 0 18 -16 7 -24c-42 -29 -63 -160 -73 -230
c-9 -67 -24 -192 5 -227h32c62 0 134 77 166 112z" />
    <glyph glyph-name="M.M1" unicode="&#xe009;" horiz-adv-x="800" 
d="M806 522l-42 -298c-5 -37 -2 -59 29 -85c9 -8 3 -21 -7 -21h-208c-21 0 -19 17 -6 25c41 28 63 160 73 230c6 44 14 112 11 163l-124 -249l-70 -143c-18 -35 -41 -35 -48 1l-84 393l-47 -338c-6 -37 1 -35 32 -61c9 -8 3 -21 -7 -21h-103c-10 0 -12 13 0 21
c38 26 44 24 50 61l56 400c-71 0 -117 -72 -84 -118c46 -63 -15 -136 -92 -136c-128 0 -101 281 180 281h86c42 0 61 -14 69 -52l54 -246l121 245c20 40 41 53 76 53h137c10 0 12 -12 1 -20c-39 -26 -48 -49 -53 -85z" />
    <glyph glyph-name="N.N1" unicode="&#xe00a;" horiz-adv-x="676" 
d="M737 607c-39 -26 -45 -24 -50 -61l-48 -346c-6 -37 1 -35 32 -61c9 -8 3 -21 -7 -21h-113c-55 0 -82 22 -99 70l-121 359l-48 -347c-6 -37 1 -35 32 -61c9 -8 3 -21 -7 -21h-103c-10 0 -12 13 0 21c38 26 44 24 50 61l56 400c-71 0 -117 -72 -84 -118
c46 -63 -15 -136 -92 -136c-128 0 -101 281 180 281h75c55 0 83 -21 100 -69l120 -359l49 347c5 37 -2 35 -32 61c-10 8 -4 20 6 20h103c10 0 12 -12 1 -20z" />
    <glyph glyph-name="P.P1" unicode="&#xe00b;" horiz-adv-x="602" 
d="M525 627c94 0 161 -67 150 -149c-12 -82 -98 -149 -192 -149h-70c-10 -71 -20 -163 8 -186c8 -8 7 -25 -15 -25h-201c-10 0 -12 13 0 21c38 26 48 48 53 85l53 376c-71 0 -117 -72 -84 -118c46 -63 -15 -136 -92 -136c-128 0 -101 281 180 281h210zM417 359
c56 8 106 59 115 119c7 52 -18 96 -58 113c-33 -43 -46 -155 -55 -218z" />
    <glyph glyph-name="R.R1" unicode="&#xe00c;" horiz-adv-x="687" 
d="M681 143c11 -8 11 -25 -10 -25h-195c-10 0 -12 13 -3 21c30 26 30 48 25 85c-5 43 -6 104 -60 104c-7 0 -17 -2 -26 -5c-10 -70 -18 -158 9 -180c8 -8 7 -25 -15 -25h-201c-10 0 -12 13 0 21c38 26 48 48 53 85l53 376c-71 0 -117 -72 -84 -118c46 -63 -15 -136 -92 -136
c-128 0 -101 281 180 281h210c94 0 161 -67 150 -149c-10 -67 -70 -124 -142 -142c57 -41 68 -138 148 -193zM532 478c7 52 -18 96 -58 113c-33 -43 -46 -155 -55 -218l-2 -14c56 8 106 59 115 119z" />
    <glyph glyph-name="U.U1" unicode="&#xe00d;" horiz-adv-x="755" 
d="M748 143c8 -8 7 -25 -14 -25h-83c-35 0 -66 18 -73 61c-27 -32 -71 -61 -142 -61c-112 0 -184 63 -163 216l38 266c-71 0 -117 -72 -84 -118c46 -63 -15 -136 -92 -136c-128 0 -101 281 180 281h170c22 0 18 -16 7 -24c-42 -29 -63 -160 -73 -230l-6 -39
c-11 -81 -12 -188 62 -188c34 0 97 34 107 107l17 120c10 70 24 201 -9 230c-10 8 -7 24 14 24h202c21 0 17 -16 6 -24c-41 -29 -63 -160 -73 -230s-24 -202 9 -230z" />
    <glyph glyph-name="V.V1" unicode="&#xe00e;" horiz-adv-x="594" 
d="M771 627c10 0 14 -12 -1 -20c-49 -26 -54 -24 -74 -61l-214 -396c-20 -41 -73 -44 -85 0c-27 89 -108 403 -119 444c-51 -17 -79 -73 -51 -112c46 -63 -15 -136 -92 -136c-128 0 -101 281 180 281h165c10 0 10 -12 2 -20c-28 -26 -29 -49 -20 -85c0 -4 40 -159 62 -244
l142 268c20 37 12 35 -8 61c-6 8 -3 20 8 20h105z" />
    <glyph glyph-name="W.W1" unicode="&#xe00f;" horiz-adv-x="885" 
d="M1062 627c11 0 14 -12 0 -20c-49 -26 -55 -24 -74 -61l-214 -396c-20 -41 -74 -44 -86 0c-16 55 -46 167 -69 254l-137 -254c-20 -41 -73 -44 -85 0c-27 89 -108 403 -119 444c-51 -17 -79 -73 -51 -112c46 -63 -15 -136 -92 -136c-128 0 -101 281 180 281h165
c10 0 10 -12 2 -20c-28 -26 -29 -49 -20 -85c0 -4 40 -159 62 -244l86 162l-21 82c-9 36 -14 59 -55 85c-13 8 -5 20 5 20h233c4 0 5 -2 7 -4c1 -3 1 -6 -1 -9c0 -2 -3 -5 -5 -7c-28 -26 -29 -49 -19 -85c0 -4 40 -159 62 -244l142 268c19 37 12 35 -8 61c-7 8 -3 20 7 20
h105z" />
    <glyph glyph-name="X.X1" unicode="&#xe010;" horiz-adv-x="686" 
d="M679 139c14 -8 8 -21 -2 -21h-249c-10 0 -12 13 -5 21c23 26 20 48 4 85l-38 87l-93 -111c-32 -37 -23 -35 -11 -61c4 -8 -4 -21 -14 -21h-108c-11 0 -11 13 6 21c57 26 61 24 93 61l116 138c-37 85 -84 196 -110 252c-44 -20 -67 -72 -41 -108c46 -63 -15 -136 -92 -136
c-128 0 -101 281 180 281h155c10 0 12 -12 5 -20c-23 -26 -20 -49 -4 -85l38 -87l94 111c31 37 22 35 10 61c-3 8 4 20 14 20h109c10 0 10 -12 -7 -20c-57 -26 -62 -24 -93 -61l-116 -137l81 -185c16 -37 32 -59 78 -85z" />
    <glyph glyph-name="Y.Y1" unicode="&#xe011;" horiz-adv-x="546" 
d="M733 627c10 0 13 -12 -3 -20c-51 -26 -57 -24 -80 -61l-117 -184l-21 -33c-8 -70 -14 -161 15 -186c8 -8 7 -25 -14 -25h-202c-21 0 -18 17 -6 25c35 25 55 116 67 185l-93 267c-52 -17 -80 -74 -52 -113c46 -63 -15 -136 -92 -136c-128 0 -101 281 180 281h171
c10 0 11 -12 3 -20c-25 -26 -24 -49 -11 -85l43 -126l95 150c24 37 16 35 -1 61c-6 8 -1 20 9 20h109z" />
    <glyph glyph-name="Z.Z1" unicode="&#xe012;" horiz-adv-x="509" 
d="M511 297c10 10 21 7 20 -4c-1 -7 -32 -120 -38 -147c-5 -20 -13 -28 -32 -28h-357c-23 0 -34 21 -13 39c109 92 246 356 288 443h-68c-71 0 -117 -72 -84 -118c46 -63 -15 -136 -92 -136c-128 0 -101 281 180 281h227c23 0 26 -14 13 -38c-59 -116 -146 -298 -275 -443
h48c62 0 151 116 183 151z" />
    <glyph glyph-name="A.A2" unicode="&#xe013;" horiz-adv-x="671" 
d="M669 139c12 -8 4 -21 -6 -21h-221c-11 0 -15 12 -7 21c6 8 12 19 16 32c17 92 -47 174 -93 202c-8 4 -15 8 -22 10l-36 -80l-12 -28c-13 -28 -26 -78 26 -136c7 -8 0 -21 -10 -21h-150c-11 0 -16 13 -2 21c32 17 59 38 82 84l74 166c-54 3 -105 -36 -103 -96
c3 -111 -231 -115 -149 32c43 76 167 124 267 96l40 91c17 37 24 69 2 95c-7 8 3 20 13 20h97c62 0 93 -62 99 -99l50 -304c6 -37 6 -59 45 -85zM372 401c35 -22 68 -59 88 -104v6c-6 106 -34 223 -52 242l-59 -133c8 -3 15 -7 23 -11z" />
    <glyph glyph-name="B.B2" unicode="&#xe014;" horiz-adv-x="676" 
d="M582 382c68 -19 110 -96 98 -178c-20 -143 -165 -224 -315 -224c-312 0 -303 271 -97 333l41 287c-70 -1 -115 -72 -82 -118c46 -63 -15 -136 -92 -136c-128 0 -102 280 178 281h223c75 0 140 -60 130 -134c-7 -46 -41 -87 -84 -111zM319 293c-78 -32 -90 -325 75 -280
c129 36 188 338 38 338h-17l-6 -41c94 -39 99 -110 67 -163c-52 -86 -196 -50 -150 31c20 38 37 132 -7 115zM536 493c8 56 -21 102 -74 106c-11 -39 -28 -115 -42 -212h4c58 0 104 48 112 106z" />
    <glyph glyph-name="C.C2" unicode="&#xe015;" horiz-adv-x="522" 
d="M514 312c10 26 36 17 30 -4c-28 -109 -143 -190 -259 -190c-148 0 -253 114 -233 255c20 140 157 254 305 254c95 0 172 -60 171 -158c0 -177 -266 -224 -248 -96c11 77 91 128 146 73c27 -26 70 -29 64 38c-6 63 -52 105 -127 105c-97 0 -170 -132 -149 -246
c33 -177 253 -150 300 -31z" />
    <glyph glyph-name="D.D2" unicode="&#xe016;" horiz-adv-x="729" 
d="M487 627c154 0 291 -110 263 -311c-29 -209 -227 -336 -414 -336c-269 0 -241 299 -67 337l40 283c-70 -1 -115 -72 -82 -118c46 -63 -15 -136 -92 -136c-128 0 -102 280 178 281h174zM306 293c-63 0 -82 -296 73 -284c93 7 193 150 215 307c19 139 -41 271 -132 282
c-12 -50 -38 -162 -54 -293c96 -37 74 -133 42 -177c-58 -82 -189 -22 -136 55c25 36 37 110 -8 110z" />
    <glyph glyph-name="E.E2" unicode="&#xe017;" horiz-adv-x="442" 
d="M512 671c83 -33 79 -159 -2 -203c-76 -43 -156 30 -82 92c41 34 52 71 33 87c-22 18 -90 6 -174 -31c-8 -29 -29 -113 -46 -229h20c62 0 60 21 91 55c9 11 22 8 20 -5l-18 -128c-2 -13 -15 -16 -22 -6c-21 35 -13 56 -75 56h-20c-8 -64 -15 -136 -17 -213h75
c62 0 97 57 128 91c9 10 22 7 20 -4l-12 -87c-3 -20 -13 -28 -32 -28h-373c-10 0 -12 13 -1 21c39 26 48 48 53 85l42 298c5 36 2 59 -29 85c-9 8 -3 20 7 20c7 0 136 -6 202 21c74 30 156 45 212 23z" />
    <glyph glyph-name="F.F2" unicode="&#xe018;" horiz-adv-x="347" 
d="M512 671c83 -33 79 -159 -2 -203c-76 -43 -156 30 -82 92c41 34 52 71 33 87c-22 18 -90 6 -174 -31c-8 -29 -29 -113 -46 -229h20c62 0 60 21 91 55c9 11 22 8 20 -5l-18 -128c-2 -13 -15 -16 -22 -6c-21 35 -13 56 -75 56h-20c-10 -72 -28 -190 4 -216
c9 -8 7 -25 -14 -25h-201c-10 0 -12 13 -1 21c39 26 48 48 53 85l42 298c5 36 2 59 -29 85c-9 8 -3 20 7 20c7 0 136 -6 202 21c74 30 156 45 212 23z" />
    <glyph glyph-name="G.G2" unicode="&#xe019;" horiz-adv-x="530" 
d="M549 337c-39 -27 -48 -49 -53 -86l-4 -27c-5 -37 -2 -59 29 -85c9 -8 4 -21 -7 -21h-238c-149 0 -244 114 -224 255c20 140 149 254 335 254c84 0 163 -48 153 -121c-6 -42 -40 -80 -72 -95c-52 -23 -127 -21 -136 38c-10 55 63 95 119 72c34 -14 64 50 -32 69
c-98 21 -212 -81 -204 -223c7 -117 48 -234 108 -212c56 21 47 152 16 178c-10 8 -7 24 14 24h195c11 0 12 -12 1 -20z" />
    <glyph glyph-name="H.H2" unicode="&#xe01a;" horiz-adv-x="810" 
d="M868 603c-41 -29 -63 -160 -73 -230s-24 -202 9 -230c9 -8 7 -25 -14 -25h-208c-10 0 -12 13 -1 21c39 26 48 48 53 85l26 184c-39 -12 -144 -52 -179 -148c-34 -160 -101 -223 -218 -259c-142 -44 -293 63 -231 175c43 76 189 56 163 -32c-15 -48 7 -129 60 -111
c43 15 69 100 85 202l51 365c-71 0 -117 -72 -84 -118c46 -63 -15 -136 -92 -136c-128 0 -101 281 180 281h170c22 0 18 -16 7 -24c-41 -29 -63 -160 -73 -230l-6 -39c58 69 145 96 171 104l12 84c5 36 2 59 -29 85c-9 8 -3 20 7 20h208c21 0 18 -16 6 -24z" />
    <glyph glyph-name="J.J2" unicode="&#xe01b;" horiz-adv-x="491" 
d="M565 627c22 0 18 -16 7 -24c-41 -29 -63 -160 -73 -230l-6 -42c-30 -213 -97 -289 -230 -330c-142 -44 -293 63 -231 175c43 76 189 56 163 -32c-15 -48 7 -129 60 -111c43 15 69 100 85 202l51 365c-71 0 -117 -72 -84 -118c46 -63 -15 -136 -92 -136
c-128 0 -101 281 180 281h170z" />
    <glyph glyph-name="S.S2" unicode="&#xe01c;" horiz-adv-x="475" 
d="M355 366c62 -47 127 -85 128 -156c1 -91 -98 -182 -227 -185h-2c-70 -2 -93 21 -134 34c-48 15 -121 -69 -115 -17l26 182c5 33 25 42 41 8c90 -193 205 -217 245 -134c65 131 -260 163 -254 336c6 110 96 190 229 193h3c94 3 195 -29 216 -108c38 -133 -275 -114 -181 7
c77 99 -82 87 -100 28c-21 -74 56 -136 125 -188z" />
    <glyph glyph-name="T.T2" unicode="&#xe01d;" horiz-adv-x="481" 
d="M723 738c68 -45 37 -171 -55 -203c-57 -20 -120 -14 -187 14l-25 -176c-10 -70 -20 -202 14 -230c8 -8 7 -25 -15 -25h-210c-21 0 -19 17 -7 25c42 28 68 160 78 230l34 243c-61 27 -114 34 -138 18c-24 -15 -23 -53 8 -87c57 -61 -43 -134 -109 -92
c-67 45 -37 171 56 203c76 27 166 3 254 -49c90 -52 170 -72 203 -50c23 15 22 53 -10 87c-55 61 45 134 109 92z" />
    <glyph glyph-name="W.W2" unicode="&#xe01e;" horiz-adv-x="889" 
d="M1127 693c118 0 45 -189 -15 -155c-59 34 -102 48 -149 -39l-189 -349c-20 -41 -74 -44 -86 0c-16 55 -46 167 -69 254l-137 -254c-20 -41 -73 -44 -85 0c-27 89 -108 403 -119 444c-51 -17 -79 -73 -51 -112c46 -63 -15 -136 -92 -136c-128 0 -101 281 180 281h165
c10 0 10 -12 2 -20c-28 -26 -29 -49 -20 -85c0 -4 40 -159 62 -244l86 162l-21 82c-9 36 -14 59 -55 85c-13 8 -5 20 5 20h233c4 0 5 -2 7 -4c1 -3 1 -6 -1 -9c0 -2 -3 -5 -5 -7c-28 -26 -29 -49 -19 -85c0 -4 40 -159 62 -244l117 221c56 106 114 194 194 194z" />
    <glyph glyph-name="X.X2" unicode="&#xe01f;" horiz-adv-x="685" 
d="M802 688c119 0 36 -173 -53 -147c-50 15 -102 11 -152 -42l-77 -90l81 -185c16 -37 32 -59 78 -85c14 -8 8 -21 -2 -21h-249c-10 0 -12 13 -5 21c23 26 20 48 4 85l-38 87l-93 -111c-32 -37 -23 -35 -11 -61c4 -8 -4 -21 -14 -21h-108c-11 0 -11 13 6 21
c57 26 61 24 93 61l116 138c-37 85 -84 196 -110 252c-44 -20 -67 -72 -41 -108c46 -63 -15 -136 -92 -136c-128 0 -101 281 180 281h155c10 0 12 -12 5 -20c-23 -26 -20 -49 -4 -85l38 -87l54 64c77 94 169 189 239 189z" />
    <glyph glyph-name="Y.Y2" unicode="&#xe020;" horiz-adv-x="564" 
d="M800 693c119 0 30 -189 -27 -155s-98 48 -153 -39l-87 -137l-21 -33c-8 -70 -14 -161 15 -186c8 -8 7 -25 -14 -25h-202c-21 0 -18 17 -6 25c35 25 55 116 67 185l-93 267c-52 -17 -80 -74 -52 -113c46 -63 -15 -136 -92 -136c-128 0 -101 281 180 281h171
c10 0 11 -12 3 -20c-25 -26 -24 -49 -11 -85l43 -126l66 103c64 106 134 194 213 194z" />
    <glyph glyph-name="A.A3" unicode="&#xe021;" horiz-adv-x="626" 
d="M621 139c12 -8 4 -21 -6 -21h-221c-11 0 -15 12 -7 21c20 24 28 76 26 136l-1 28c-1 26 -5 52 -8 77c-3 -7 -7 -14 -12 -21c-39 -58 -102 -96 -162 -112c-5 -29 -1 -66 36 -108c7 -8 1 -21 -10 -21h-150c-11 0 -16 13 -2 21c32 17 59 38 82 84l8 16c-46 -6 -87 2 -115 23
c-117 92 105 236 130 108c3 -19 12 -33 25 -41l81 183c17 37 24 69 2 95c-7 8 3 20 13 20h97c62 0 93 -62 99 -99l50 -304c6 -37 6 -59 45 -85zM371 377c29 41 20 102 -7 163c-1 2 -2 4 -4 5l-101 -226c36 -6 82 15 112 58z" />
    <glyph glyph-name="E.E3" unicode="&#xe022;" horiz-adv-x="616" 
d="M687 671c83 -33 78 -159 -2 -203c-76 -43 -156 30 -83 92c41 34 53 71 34 87c-23 18 -90 6 -175 -31c-10 -38 -30 -120 -45 -229h19c62 0 61 21 92 55c9 11 21 8 19 -5l-18 -128c-2 -13 -14 -16 -21 -6c-21 35 -14 56 -76 56h-19c-8 -64 -15 -136 -18 -213h75
c62 0 97 57 129 91c9 10 21 7 19 -4l-12 -87c-3 -20 -12 -28 -31 -28h-373c-11 0 -13 13 -1 21c38 26 48 48 53 85l46 324c-57 -15 -107 -17 -148 -1c-83 33 -78 158 2 203c77 43 157 -30 83 -92c-41 -34 -52 -72 -33 -87c26 -21 115 -1 216 51c107 55 199 75 268 49z" />
    <glyph glyph-name="G.G3" unicode="&#xe023;" horiz-adv-x="530" 
d="M548 357c11 0 12 -12 1 -20c-39 -27 -48 -49 -53 -86l-4 -27c-33 -233 -87 -290 -220 -336c-140 -49 -296 52 -238 165c41 77 189 63 164 -25c-12 -49 12 -128 65 -109c39 15 72 106 89 199h-76c-149 0 -244 114 -224 255c20 140 149 254 335 254c84 0 163 -48 153 -121
c-6 -42 -40 -80 -72 -95c-52 -23 -127 -21 -136 38c-10 55 63 95 119 72c34 -14 64 50 -32 69c-98 21 -212 -81 -204 -223c7 -117 48 -234 108 -212c56 21 47 152 16 178c-10 8 -7 24 14 24h195z" />
    <glyph glyph-name="a.a1" unicode="&#xe024;" 
d="M494 19c-2 88 150 107 172 32c31 -112 -151 -219 -280 -175c-95 32 -136 147 -134 297c-6 -4 -9 -7 -9 -7c-26 -29 -65 -48 -105 -48c-68 0 -114 53 -105 118s70 118 138 118c40 0 74 -19 92 -48l4 30c8 58 -5 124 -41 124c-15 0 -18 -24 -10 -50
c14 -49 -139 -69 -130 -11c6 43 62 89 154 89c107 0 161 -60 161 -182c-1 -197 -67 -370 2 -398c47 -19 92 62 91 111zM190 172c28 0 54 29 59 64s-13 64 -41 64c-27 0 -53 -29 -58 -64s13 -64 40 -64z" />
    <glyph glyph-name="c.c1" unicode="&#xe025;" horiz-adv-x="513" 
d="M391 511c-114 51 51 187 120 102c158 -197 -88 -495 -272 -495c-141 0 -211 83 -197 185s115 185 226 185c76 0 133 -29 161 -97c30 -69 -130 -133 -127 -60c4 73 16 129 -18 129c-50 0 -143 -259 20 -259c218 0 194 264 87 310z" />
    <glyph glyph-name="d.d1" unicode="&#xe026;" horiz-adv-x="462" 
d="M528 19c-1 88 150 107 172 32c31 -112 -150 -219 -280 -175c-76 26 -127 129 -131 254c-24 -7 -48 -12 -73 -12c-111 0 -188 83 -174 185s115 185 226 185c21 0 41 -3 59 -9c-3 25 -10 44 -22 55c-10 8 -5 20 5 20c96 0 150 66 189 73c21 5 10 -12 6 -25
c-24 -74 -34 -107 -43 -173l-29 -205c-11 -76 -48 -294 5 -316c47 -19 91 62 90 111zM220 146c31 0 67 71 79 157c12 87 -4 157 -35 157c-32 0 -68 -70 -80 -157c-12 -86 4 -157 36 -157z" />
    <glyph glyph-name="e.e1" unicode="&#xe027;" horiz-adv-x="515" 
d="M391 511c-114 51 51 187 120 102c158 -197 -88 -495 -272 -495c-132 0 -211 83 -197 185s114 185 234 185c78 0 155 -53 145 -119c-9 -65 -80 -118 -158 -118c-26 0 -48 6 -68 15c10 -32 56 -65 109 -65c218 0 194 264 87 310zM267 460c-16 0 -53 -31 -62 -95
c-8 -53 13 -86 37 -86c27 0 51 41 58 90c7 50 -6 91 -33 91z" />
    <glyph glyph-name="f.f1" unicode="&#xe028;" horiz-adv-x="292" 
d="M239 143c8 -8 7 -25 -15 -25h-198c-10 0 -12 13 -1 21c39 26 48 48 53 85l24 172h-16c-14 0 -16 11 -14 24c1 13 7 24 21 24h16v2c15 108 109 181 212 181c84 0 151 -36 158 -85c6 -59 -187 -68 -154 0c6 13 29 57 -17 57c-90 0 -165 -80 -117 -155h127
c13 0 15 -11 14 -24c-2 -13 -8 -24 -21 -24h-71c-14 -99 -22 -236 -1 -253z" />
    <glyph glyph-name="g.g1" unicode="&#xe029;" horiz-adv-x="460" 
d="M394 172c132 -65 24 -231 -115 -287c-186 -75 -208 98 -406 15c-88 -37 -86 116 18 165c204 95 243 -213 372 -160c84 34 98 175 -64 183c-58 2 -109 -1 -117 34c-6 25 12 63 45 95c-54 26 -87 71 -80 123c12 81 119 148 240 148c19 0 38 -2 55 -5c17 44 70 82 126 80
c65 -3 47 -96 -6 -88c-37 6 -74 14 -94 2c76 -22 125 -75 116 -137c-11 -82 -119 -149 -239 -149c-31 0 -60 5 -85 13c-21 -25 -40 -56 -30 -71c22 -35 182 79 264 39zM283 460c-32 0 -65 -54 -75 -120c-9 -67 9 -121 41 -121s65 54 74 121c10 66 -8 120 -40 120z" />
    <glyph glyph-name="h.h1" unicode="&#xe02a;" horiz-adv-x="519" 
d="M574 19c-1 88 150 107 172 32c31 -112 -151 -219 -280 -175c-95 32 -155 139 -126 348c16 116 14 222 -36 222c-18 0 -47 -22 -71 -61c-17 -121 -16 -224 6 -242c8 -8 7 -25 -15 -25h-198c-10 0 -12 13 -1 21c39 26 48 48 53 85l32 225c5 37 2 59 -29 85c-9 8 -4 20 6 20
c96 0 150 66 188 73c21 5 10 -12 6 -25c-17 -53 -30 -109 -40 -164c26 28 59 50 98 50c109 0 165 -88 149 -198l-9 -66c-11 -76 -48 -294 5 -316c47 -19 91 62 90 111z" />
    <glyph glyph-name="i.i1" unicode="&#xe02b;" horiz-adv-x="234" 
d="M308 19c-1 88 150 107 172 32c31 -112 -150 -219 -280 -175c-95 32 -148 163 -122 348l12 84c5 37 2 59 -29 86c-9 8 -3 20 7 20c96 0 145 65 184 73c22 4 9 -12 5 -25c-30 -102 -40 -182 -48 -238c-10 -74 -44 -294 9 -316c47 -19 91 62 90 111zM142 481
c-40 0 -61 33 -47 73c15 41 60 73 101 73c40 0 61 -32 46 -73c-14 -40 -59 -73 -100 -73z" />
    <glyph glyph-name="l.l1" unicode="&#xe02c;" horiz-adv-x="232" 
d="M308 19c-1 88 150 107 172 32c31 -112 -150 -219 -280 -175c-95 32 -148 163 -122 348l32 225c5 37 2 59 -29 85c-9 8 -4 20 6 20c96 0 150 66 188 73c21 5 10 -12 6 -25c-42 -131 -59 -282 -72 -378c-10 -74 -44 -294 9 -316c47 -19 91 62 90 111z" />
    <glyph glyph-name="m.m1" unicode="&#xe02d;" horiz-adv-x="719" 
d="M796 19c-1 88 150 107 172 32c31 -112 -150 -219 -280 -175c-95 32 -158 143 -123 348c19 106 23 209 -23 209c-25 0 -54 -43 -77 -100c0 -14 0 -28 -2 -43l-9 -66c-5 -37 -2 -59 29 -85c9 -8 3 -21 -7 -21h-199c-21 0 -18 16 -6 25c72 58 85 290 20 290
c-20 0 -43 -43 -63 -89c-23 -110 -18 -180 7 -201c9 -8 7 -25 -14 -25h-195c-10 0 -12 13 -1 21c39 26 48 48 53 85l12 84c5 37 2 59 -29 86c-9 8 -3 20 7 20c96 0 145 65 184 73c22 4 9 -12 5 -25l-8 -31c24 32 51 57 84 57c63 0 108 -42 125 -104c24 49 66 104 122 104
c92 0 146 -88 130 -198l-9 -66c-11 -76 -48 -294 5 -316c47 -19 91 62 90 111z" />
    <glyph glyph-name="n.n1" unicode="&#xe02e;" horiz-adv-x="503" 
d="M574 19c-1 88 150 107 172 32c31 -112 -151 -219 -280 -175c-95 32 -155 139 -126 348c16 116 14 222 -36 222c-16 0 -41 -18 -64 -50c-36 -140 -34 -228 -5 -253c9 -8 7 -25 -14 -25h-195c-10 0 -12 13 -1 21c39 26 48 48 53 85l12 84c5 37 2 59 -29 86c-9 8 -3 20 7 20
c96 0 145 65 184 73c22 4 9 -12 5 -25c0 -3 -2 -7 -2 -10c24 21 52 36 84 36c109 0 165 -88 149 -198l-9 -66c-11 -76 -48 -294 5 -316c47 -19 91 62 90 111z" />
    <glyph glyph-name="t.t1" unicode="&#xe02f;" horiz-adv-x="281" 
d="M330 19c-1 88 150 107 172 32c31 -112 -151 -219 -280 -175c-95 32 -173 109 -144 310c11 81 24 165 14 210h-20c-13 0 -15 11 -13 24c1 13 7 24 20 24h6c96 0 132 106 181 123c21 8 28 -8 24 -21c-7 -23 -16 -59 -25 -102h43c13 0 15 -11 14 -24c-2 -13 -8 -24 -21 -24
h-45c-36 -190 -65 -466 -17 -488c46 -22 92 62 91 111z" />
    <glyph glyph-name="u.u1" unicode="&#xe030;" horiz-adv-x="487" 
d="M561 19c-1 88 150 107 172 32c32 -112 -150 -219 -280 -175c-86 29 -137 139 -127 297c-25 -30 -60 -55 -104 -55c-90 0 -153 42 -132 190c5 37 2 59 -29 86c-9 8 -3 20 7 20c96 0 145 65 184 73c22 4 10 -12 5 -25c-41 -119 -62 -298 13 -298c21 0 44 30 61 59l12 85
c5 37 2 59 -29 86c-9 8 -3 20 7 20c96 0 146 65 184 73c22 4 10 -12 6 -25c-30 -102 -40 -182 -48 -238c-10 -74 -45 -294 8 -316c47 -19 91 62 90 111z" />
    <glyph glyph-name="v.v1" unicode="&#xe031;" horiz-adv-x="320" 
d="M397 488c12 0 8 -13 -6 -21c-38 -20 -52 -48 -68 -85l-102 -227c-9 -20 -20 -37 -42 -37h-66c-31 0 -41 12 -45 39c-5 26 -15 103 -32 186c-47 236 -88 303 -124 303c-39 0 -29 -92 -107 -110c-128 -30 -124 94 -32 129c188 72 359 -51 408 -348c10 -52 28 -120 30 -124
c0 0 90 228 58 274c-6 9 -1 21 13 21h115z" />
    <glyph glyph-name="w.w1" unicode="&#xe032;" horiz-adv-x="571" 
d="M648 488c12 0 9 -13 -5 -21c-38 -20 -53 -48 -69 -85l-101 -227c-10 -20 -21 -37 -43 -37h-66c-31 0 -40 12 -45 39l-23 134l-3 22l-71 -158c-9 -20 -20 -37 -42 -37h-66c-31 0 -41 12 -45 39c-5 26 -15 103 -32 186c-47 236 -88 303 -124 303c-39 0 -29 -92 -107 -110
c-128 -30 -124 94 -32 129c188 72 359 -51 408 -348c10 -52 28 -120 30 -124c0 0 48 121 61 204c-12 39 -26 56 -42 66c-11 8 -15 25 6 25h216c10 0 15 -12 7 -21c-66 -62 -2 -265 2 -274c0 0 90 228 58 274c-6 9 -1 21 13 21h115z" />
    <glyph glyph-name="x.x1" unicode="&#xe033;" horiz-adv-x="392" 
d="M392 143c11 -9 18 -25 -4 -25h-206c-10 0 -18 13 -10 21c21 19 15 45 5 78l-16 46c-18 -45 -32 -99 -13 -124c6 -8 -1 -21 -15 -21h-108c-12 0 -7 13 8 21c39 20 56 48 75 85l41 77l-14 42c-84 236 -135 303 -170 303c-40 0 -16 -92 -91 -110c-123 -30 -139 94 -52 129
c177 72 367 -32 435 -255l29 -74c20 47 37 104 17 131c-6 8 1 21 15 21h108c11 0 7 -13 -8 -21c-39 -20 -56 -48 -75 -85l-43 -82c24 -69 59 -137 92 -157z" />
    <glyph glyph-name="y.y1" unicode="&#xe034;" horiz-adv-x="338" 
d="M416 488c12 0 9 -13 -5 -21c-38 -20 -53 -48 -69 -85l-88 -195l-63 -138c-68 -146 -145 -183 -203 -183c-108 0 -136 109 -81 170c65 72 176 48 147 -32c-32 -86 51 -71 127 82l14 32h-63c-39 0 -44 15 -49 50l-22 123l-9 52c-52 236 -97 303 -133 303
c-39 0 -27 -92 -105 -110c-127 -30 -126 94 -35 129c187 72 372 -31 401 -255c0 0 43 -211 47 -217c-1 -1 0 -2 0 -3l4 9s92 221 57 268c-6 9 0 21 13 21h115z" />
    <glyph glyph-name="b.b2" unicode="&#xe035;" horiz-adv-x="475" 
d="M318 488c110 0 188 -83 174 -185s-116 -185 -226 -185h-240c-10 0 -12 13 -1 21c39 26 48 48 53 85l21 149c11 79 7 131 -3 152c-111 -15 -223 26 -258 81c-49 79 122 143 126 51c4 -99 119 -135 238 -69c31 17 54 35 73 39c21 5 10 -12 6 -25c-13 -40 -24 -83 -32 -125
c22 7 45 11 69 11zM270 146c32 0 68 71 80 157c12 87 -4 157 -36 157s-68 -70 -80 -157c-12 -86 4 -157 36 -157z" />
    <glyph glyph-name="d.d2" unicode="&#xe036;" horiz-adv-x="475" 
d="M500 525c-17 -21 -35 -73 -46 -152l-21 -149c-5 -37 -1 -59 29 -85c10 -8 4 -21 -6 -21h-199c-5 0 -8 1 -10 3c-11 -2 -21 -3 -31 -3c-111 0 -188 83 -174 185s115 185 226 185c24 0 47 -4 67 -11c2 42 3 85 2 125c-1 13 -8 30 13 25c18 -4 37 -22 61 -39
c102 -66 227 -30 260 69c30 92 183 28 111 -51c-50 -55 -174 -96 -282 -81zM220 146c31 0 67 71 79 157c12 87 -4 157 -35 157c-32 0 -68 -70 -80 -157c-12 -86 4 -157 36 -157z" />
    <glyph glyph-name="f.f2" unicode="&#xe037;" horiz-adv-x="292" 
d="M318 444c13 0 15 -11 14 -24c-2 -13 -8 -24 -21 -24h-71l-3 -23c-14 -99 -19 -213 2 -230c8 -8 7 -25 -15 -25h-198c-10 0 -12 13 -1 21c39 26 48 48 53 85l24 172h-16c-14 0 -16 11 -14 24c1 13 7 24 21 24h16v2c15 108 107 181 214 181c92 0 220 -66 300 21
c67 72 129 -50 52 -107c-123 -89 -261 73 -335 53c-50 -13 -76 -75 -91 -150h69z" />
    <glyph glyph-name="g.g2" unicode="&#xe038;" horiz-adv-x="460" 
d="M371 137c72 0 94 -50 88 -91c-12 -82 -91 -181 -244 -181c-152 0 -239 67 -228 149c13 89 152 131 277 178c-6 0 -13 -1 -19 -1c-121 0 -209 67 -198 149c12 81 119 148 240 148c20 0 39 -2 56 -5c17 44 69 82 126 80c64 -3 47 -96 -7 -88c-36 6 -74 14 -93 2
c75 -22 125 -75 116 -137c-2 -14 -7 -27 -13 -40l-1 -1c-5 -8 -10 -16 -17 -23c-92 -117 -289 -132 -308 -262c-9 -67 19 -121 72 -121c58 0 98 67 66 156c-21 59 45 88 87 88zM208 340c-9 -67 9 -121 41 -121s66 54 75 121c10 66 -9 120 -41 120s-65 -54 -75 -120z" />
    <glyph glyph-name="h.h2" unicode="&#xe039;" horiz-adv-x="519" 
d="M508 139c10 -8 4 -21 -6 -21h-199c-21 0 -18 16 -7 25c73 58 77 303 9 303c-19 0 -48 -22 -72 -61c-17 -121 -16 -224 6 -242c8 -8 7 -25 -14 -25h-199c-10 0 -12 13 -1 21c39 26 48 48 53 85l21 149c11 79 7 131 -3 152c-111 -15 -223 26 -258 81c-49 79 122 143 126 51
c4 -99 119 -135 238 -69c31 17 54 35 73 39c21 5 10 -12 6 -25c-17 -53 -30 -109 -40 -164c26 28 60 50 99 50c108 0 164 -88 148 -198l-9 -66c-5 -37 -1 -59 29 -85z" />
    <glyph glyph-name="i.i2" unicode="&#xe03a;" horiz-adv-x="243" 
d="M221 118h-195c-10 0 -12 13 -1 21c39 26 48 48 53 85l12 84c5 37 2 59 -29 86c-9 8 -3 20 7 20c75 0 121 40 157 61c37 27 52 72 42 102c-6 13 -13 21 -26 26c7 -13 8 -30 1 -49c-14 -40 -59 -73 -100 -73c-40 0 -61 33 -47 73c12 31 39 57 71 68c75 29 116 -1 127 -33
c12 -33 1 -80 -31 -116l-5 -11c-52 -178 -55 -291 -22 -319c9 -8 7 -25 -14 -25z" />
    <glyph glyph-name="j.j2" unicode="&#xe03b;" horiz-adv-x="235" 
d="M267 475c-1 -4 -4 -9 -5 -13c-35 -120 -59 -292 -52 -395c8 -119 -94 -202 -229 -202c-148 0 -198 117 -109 173c84 54 136 -17 89 -60c-41 -36 22 -100 70 -73c73 39 24 148 52 349c12 83 9 113 -21 140c-10 8 -4 20 7 20c73 0 122 39 158 60c39 26 53 73 43 103
c-5 12 -12 21 -25 26c7 -13 8 -30 1 -49c-14 -40 -59 -73 -99 -73c-41 0 -61 33 -47 73c11 30 38 56 69 68c75 29 115 2 127 -33c13 -33 2 -79 -29 -114z" />
    <glyph glyph-name="k.k2" unicode="&#xe03c;" horiz-adv-x="506" 
d="M495 143c11 -8 15 -25 -7 -25h-210c-11 0 -16 13 -8 21c30 26 30 48 26 85c-6 54 -13 147 -67 134c-14 -109 -10 -199 10 -215c8 -8 7 -25 -14 -25h-199c-10 0 -12 13 -1 21c39 26 48 48 53 85l21 149c11 79 7 131 -3 152c-111 -15 -223 26 -258 81
c-49 79 122 143 126 51c4 -99 119 -135 238 -69c31 17 54 35 73 39c21 5 10 -12 6 -25c-23 -69 -38 -145 -48 -215c53 14 156 140 232 88c61 -42 -20 -122 -87 -76c-21 15 -42 9 -64 -2c87 -24 84 -187 181 -254z" />
    <glyph glyph-name="l.l2" unicode="&#xe03d;" horiz-adv-x="243" 
d="M225 118h-199c-10 0 -12 13 -1 21c39 26 48 48 53 85l21 149c11 79 7 131 -3 152c-111 -15 -223 26 -258 81c-49 79 122 143 126 51c4 -99 119 -135 238 -69c31 17 54 35 73 39c21 5 10 -12 6 -25c-62 -191 -75 -431 -42 -459c8 -8 7 -25 -14 -25z" />
    <glyph glyph-name="p.p2" unicode="&#xe03e;" horiz-adv-x="473" 
d="M320 488c109 -1 186 -83 172 -185s-116 -185 -226 -185c-26 0 -50 5 -72 14c-36 -153 -100 -229 -188 -256c-140 -44 -292 63 -229 175c42 75 189 56 162 -32c-15 -49 8 -132 61 -111c43 18 68 242 78 316l12 84c5 37 2 59 -29 86c-9 8 -4 20 7 20c95 0 141 74 250 74h2z
M270 146c32 0 67 71 79 157c12 87 -3 157 -35 157s-68 -70 -80 -157c-12 -86 4 -157 36 -157z" />
    <glyph glyph-name="q.q2" unicode="&#xe03f;" horiz-adv-x="471" 
d="M515 19c-1 88 150 107 172 32c32 -112 -150 -219 -280 -175c-80 27 -122 103 -115 256c-24 -9 -50 -14 -76 -14c-111 0 -188 83 -174 185s114 184 224 185h2c108 0 134 -74 230 -74c10 0 12 -12 0 -20c-38 -27 -48 -49 -53 -86l-12 -84c-10 -74 -49 -298 -8 -316
c47 -21 91 62 90 111zM220 146c31 0 67 71 79 157c12 87 -4 157 -35 157c-32 0 -68 -70 -80 -157c-12 -86 4 -157 36 -157z" />
    <glyph glyph-name="r.r2" unicode="&#xe040;" horiz-adv-x="280" 
d="M549 672c140 0 71 -149 -40 -149c-53 0 -37 45 -64 45c-49 0 -146 -97 -212 -203c-28 -122 -25 -199 2 -222c9 -8 7 -25 -14 -25h-195c-10 0 -12 13 -1 21c39 26 48 48 53 85l12 84c5 37 2 59 -29 86c-9 8 -3 20 7 20c96 0 145 65 184 73c22 4 9 -12 5 -25l-6 -25
c47 75 166 235 298 235z" />
    <glyph glyph-name="s.s2" unicode="&#xe041;" horiz-adv-x="412" 
d="M196 399c-31 -115 205 -119 205 -276c0 -80 -104 -174 -202 -178h-2c-74 -2 -173 26 -187 96c-23 111 211 132 184 5c-20 -95 70 -91 94 -24c39 113 -222 108 -217 284c2 106 87 170 188 170c66 0 132 -36 136 -82c6 -67 -147 -105 -133 -7c14 100 -53 63 -66 12z" />
    <glyph glyph-name="t.t2" unicode="&#xe042;" horiz-adv-x="281" 
d="M308 444c14 0 16 -11 15 -24c-2 -13 -8 -24 -22 -24h-49c-24 -129 -20 -232 4 -253c9 -8 7 -25 -14 -25h-202c-13 0 -11 16 0 25c37 31 46 106 52 148c4 27 13 72 3 105h-22c-14 0 -16 11 -14 24c1 13 7 24 21 24h6c56 0 91 36 121 70c-128 -40 -272 4 -312 69
c-48 79 121 142 126 51c4 -99 120 -135 239 -70l6 3c21 8 29 -8 24 -21c-11 -35 -19 -69 -27 -102h45z" />
    <glyph glyph-name="v.v2" unicode="&#xe043;" horiz-adv-x="354" 
d="M561 648c83 -21 40 -129 -56 -129c-145 0 -284 -364 -284 -364c-9 -20 -20 -37 -42 -37h-66c-31 0 -41 12 -45 39l-23 134c-20 120 -39 155 -64 172c-12 8 -15 25 6 25h214c11 0 16 -12 7 -21c-65 -62 -1 -265 3 -274c39 145 210 489 350 455z" />
    <glyph glyph-name="w.w2" unicode="&#xe044;" horiz-adv-x="605" 
d="M814 648c83 -21 40 -129 -56 -129c-145 0 -284 -364 -284 -364c-9 -20 -20 -37 -42 -37h-66c-31 0 -41 12 -45 39l-23 134c0 8 -1 15 -4 22l-70 -158c-9 -20 -20 -37 -42 -37h-66c-31 0 -41 12 -45 39l-23 134c-20 120 -39 155 -64 172c-12 8 -15 25 6 25h214
c11 0 16 -12 7 -21c-65 -62 -1 -265 3 -274c0 0 48 121 61 204c-12 39 -26 56 -42 66c-11 8 -15 25 6 25h215c11 0 16 -12 7 -21c-65 -62 -1 -265 3 -274c40 145 210 489 350 455z" />
    <glyph glyph-name="x.x2" unicode="&#xe045;" horiz-adv-x="396" 
d="M566 648c82 -21 40 -129 -57 -129c-60 0 -121 -44 -168 -137l-43 -82c24 -69 60 -137 92 -157c12 -9 18 -25 -3 -25h-207c-10 0 -18 13 -10 21c21 19 16 45 5 78c-5 17 -10 32 -15 46c-18 -45 -33 -98 -14 -124c6 -8 -1 -21 -14 -21h-108c-12 0 -8 13 7 21
c40 20 56 48 76 85l41 78c-37 111 -62 144 -89 161c-13 8 -19 25 2 25h206c11 0 18 -12 11 -21c-15 -17 -10 -67 6 -124l17 39c67 144 171 289 265 266z" />
    <glyph glyph-name="d.d3" unicode="&#xe046;" horiz-adv-x="456" 
d="M529 19c-2 88 150 107 172 32c31 -112 -151 -219 -280 -175c-77 26 -128 129 -132 254c-23 -7 -48 -12 -73 -12c-110 0 -188 83 -174 185s116 185 226 185c21 0 41 -3 59 -9c-2 19 -6 34 -14 46c-110 -13 -218 27 -252 81c-49 79 122 143 126 51c4 -99 120 -135 239 -69
c31 17 54 35 73 39c21 5 10 -12 6 -25c-23 -74 -33 -107 -42 -173l-29 -205c-11 -76 -48 -294 4 -316c48 -20 92 62 91 111zM220 146c32 0 68 71 80 157c12 87 -4 157 -36 157s-67 -70 -79 -157c-12 -86 3 -157 35 -157z" />
    <glyph glyph-name="g.g3" unicode="&#xe047;" horiz-adv-x="460" 
d="M394 172c160 -79 -17 -307 -205 -307c-130 0 -187 86 -166 158c-113 -65 -270 -114 -358 -77c-127 54 6 202 90 136c120 -95 258 -31 311 1l18 11c1 0 1 1 1 1c2 1 4 3 7 3c0 1 1 1 2 1c83 38 199 -14 98 -70c-115 -63 -3 -153 71 -124c107 41 93 202 -68 222
c-56 7 -109 0 -116 35c-5 20 17 43 40 58c-50 27 -79 71 -72 120c12 81 119 148 240 148c20 0 38 -2 55 -5c18 44 70 82 126 80c65 -3 47 -96 -6 -88c-36 6 -74 14 -94 2c76 -22 126 -75 117 -137c-11 -82 -119 -149 -240 -149c-34 0 -65 6 -92 15c-15 -11 -29 -22 -20 -34
c22 -35 180 40 261 0zM283 460c-32 0 -65 -54 -75 -120c-9 -67 9 -121 41 -121s66 54 75 121c10 66 -9 120 -41 120z" />
    <glyph glyph-name="h.h3" unicode="&#xe048;" horiz-adv-x="496" 
d="M574 19c-1 88 150 107 172 32c31 -112 -150 -219 -280 -175c-95 32 -155 139 -126 348c16 116 14 222 -35 222c-19 0 -48 -22 -72 -61c-17 -121 -16 -224 6 -242c8 -8 7 -25 -14 -25h-199c-10 0 -12 13 -1 21c39 26 48 48 53 85l21 149c11 79 7 131 -3 152
c-111 -15 -223 26 -258 81c-49 79 122 143 126 51c4 -99 119 -135 238 -69c31 17 54 35 73 39c21 5 10 -12 6 -25c-17 -53 -30 -109 -40 -164c26 28 60 50 99 50c108 0 164 -88 148 -198l-9 -66c-11 -76 -48 -294 5 -316c47 -20 91 62 90 111z" />
    <glyph glyph-name="l.l3" unicode="&#xe049;" horiz-adv-x="199" 
d="M272 19c-1 88 150 107 172 32c32 -112 -150 -219 -280 -175c-94 32 -148 163 -122 348l21 149c17 121 -3 152 -3 152c-111 -15 -224 26 -258 81c-49 79 122 143 126 51c4 -99 119 -135 238 -69c31 17 54 35 73 39c21 5 10 -12 6 -25c-42 -131 -59 -282 -72 -378
c-10 -74 -44 -294 9 -316c47 -20 91 62 90 111z" />
    <glyph glyph-name="t.t3" unicode="&#xe04a;" horiz-adv-x="281" 
d="M330 19c-1 88 150 107 172 32c32 -112 -150 -219 -280 -175c-94 32 -173 109 -144 310c11 81 25 165 15 210h-20c-14 0 -16 11 -14 24c1 13 7 24 21 24h6c56 0 91 36 121 70c-128 -40 -272 4 -312 69c-48 79 121 142 126 51c4 -99 120 -135 239 -70l6 3
c21 8 29 -8 24 -21c-7 -23 -16 -59 -24 -102h42c14 0 16 -11 15 -24c-2 -13 -8 -24 -22 -24h-45c-35 -190 -65 -466 -16 -488c45 -22 91 62 90 111z" />
    <glyph glyph-name="g.g4" unicode="&#xe04b;" horiz-adv-x="460" 
d="M462 475c-37 6 -74 14 -94 2c76 -22 125 -75 116 -137c-5 -36 -29 -70 -63 -95c18 -25 29 -65 18 -98c-57 -170 -372 -81 -386 -144c-17 -70 102 -169 188 -22c41 70 174 27 111 -56c-33 -44 -98 -60 -155 -60c-117 0 -219 72 -175 187c73 182 369 80 388 120
c7 16 -8 41 -18 55c-41 -22 -93 -36 -147 -36c-121 0 -209 67 -198 149c12 81 119 148 240 148c19 0 38 -2 55 -5c17 44 70 82 126 80c65 -3 47 -96 -6 -88zM249 219c31 0 65 54 74 121c10 66 -9 120 -40 120c-32 0 -65 -54 -75 -120c-9 -67 9 -121 41 -121z" />
    <glyph glyph-name="t.t4" unicode="&#xe04c;" horiz-adv-x="281" 
d="M256 143c8 -8 7 -25 -15 -25h-202c-13 0 -11 16 1 25c37 31 46 106 52 148c4 27 12 72 2 105h-22c-13 0 -15 11 -13 24c1 13 7 24 20 24h6c96 0 132 106 181 123c21 8 28 -8 24 -21c-9 -29 -17 -57 -24 -85c56 19 102 69 130 193c25 105 220 58 143 -39
c-70 -88 -185 -168 -284 -203c-28 -136 -25 -248 1 -269z" />
    <glyph glyph-name="a.a5" unicode="&#xe04d;" horiz-adv-x="350" 
d="M357 202c7 -7 3 -17 -5 -17h-84c-44 0 -57 39 -57 39c-21 -24 -52 -39 -85 -39c-55 0 -94 43 -87 96c8 54 59 97 114 97c33 0 59 -16 74 -39l4 24c6 48 -4 102 -33 102c-12 0 -15 -20 -9 -41c11 -40 -114 -57 -107 -9c5 35 52 73 127 73c88 0 146 -61 133 -149l-9 -67
c-5 -31 -1 -49 24 -70zM168 229c23 0 44 23 48 52s-11 53 -34 53c-22 0 -43 -24 -47 -53s11 -52 33 -52zM282 158c8 2 16 -3 17 -11c1 -9 -6 -17 -15 -19c-30 -7 -61 -10 -89 -10c-52 0 -92 9 -95 10c-7 1 -12 10 -9 18c3 9 12 14 21 12c1 0 87 -18 170 0z" />
    <glyph glyph-name="e.e5" unicode="&#xe04e;" horiz-adv-x="332" 
d="M331 279c9 11 21 -3 15 -12c-34 -49 -93 -82 -156 -82c-91 0 -155 68 -143 151c12 84 93 152 191 152c65 0 127 -44 119 -97c-7 -54 -65 -97 -129 -97c-21 0 -40 4 -55 12c4 -27 18 -50 50 -60c29 -8 80 2 108 33zM232 465c-14 0 -45 -26 -52 -78c-6 -44 11 -70 31 -70
c21 0 42 33 47 74c6 41 -5 74 -26 74zM262 158c8 2 16 -3 17 -11c1 -9 -5 -17 -15 -19c-30 -7 -61 -10 -88 -10c-53 0 -93 9 -96 10c-7 1 -11 10 -9 18c3 9 13 14 21 12c1 0 87 -18 170 0z" />
    <glyph glyph-name="i.i5" unicode="&#xe04f;" horiz-adv-x="228" 
d="M46 202c31 21 39 39 44 70l9 69c5 30 1 48 -24 70c-8 6 -3 16 6 16c78 0 119 54 151 60c18 4 8 -10 5 -20c-44 -147 -46 -239 -19 -262c7 -7 7 -20 -11 -20h-160c-9 0 -11 10 -1 17zM142 482c-33 0 -50 27 -38 60c11 33 48 60 81 60s50 -27 39 -60
c-12 -33 -49 -60 -82 -60zM211 158c8 2 16 -3 17 -11c1 -9 -6 -17 -15 -19c-30 -7 -61 -10 -88 -10c-53 0 -93 9 -96 10c-7 1 -12 10 -9 18c3 9 12 14 21 12c1 0 87 -18 170 0z" />
    <glyph glyph-name="o.o5" unicode="&#xe050;" horiz-adv-x="352" 
d="M232 488c90 0 154 -68 142 -152c-12 -83 -94 -151 -184 -151c-91 0 -155 68 -143 151c12 84 94 152 185 152zM193 208c26 0 55 57 65 128s-3 129 -29 129s-56 -58 -66 -129s4 -128 30 -128zM271 158c8 2 15 -3 16 -11c1 -9 -5 -17 -14 -19c-30 -7 -61 -10 -89 -10
c-52 0 -92 9 -95 10c-7 1 -12 10 -9 18c3 9 12 14 21 12c1 0 86 -18 170 0z" />
    <glyph glyph-name="t.t5" unicode="&#xe051;" horiz-adv-x="281" 
d="M644 678c56 -40 -6 -150 -94 -138c-159 21 -174 -73 -293 -120c-29 -140 -27 -255 -1 -277c8 -8 7 -25 -15 -25h-202c-13 0 -11 16 1 25c37 31 46 106 52 148c4 27 12 72 2 105h-22c-13 0 -15 11 -13 24c1 13 7 24 20 24h6c96 0 132 106 181 123c21 8 28 -8 24 -21
c-9 -28 -17 -56 -23 -83c130 82 265 291 377 215z" />
    <glyph glyph-name="u.u5" unicode="&#xe052;" horiz-adv-x="421" 
d="M423 202c6 -9 3 -17 -5 -17h-76c-35 0 -56 23 -61 47c-21 -26 -49 -47 -86 -47c-74 0 -126 34 -109 156c5 30 1 48 -24 70c-8 6 -2 16 6 16c79 0 119 54 151 60c18 4 9 -10 5 -20c-35 -98 -52 -245 10 -245c17 0 35 25 50 49l9 70c5 30 2 48 -23 70c-8 6 -3 16 6 16
c78 0 119 54 150 60c18 4 9 -10 5 -20c-19 -66 -51 -205 -8 -265zM306 158c9 2 16 -3 17 -11c1 -9 -5 -17 -14 -19c-30 -7 -62 -10 -89 -10c-52 0 -93 9 -95 10c-8 1 -12 10 -9 18c3 9 12 14 21 12c1 0 86 -18 169 0z" />
    <glyph glyph-name="endash" unicode="&#x2013;" horiz-adv-x="238" 
d="M50 359l4 28h200l-4 -28h-200z" />
    <glyph glyph-name="emdash" unicode="&#x2014;" horiz-adv-x="269" 
d="M50 359l4 28h240l-4 -28h-240z" />
    <glyph glyph-name="Agrave" unicode="&#xc0;" horiz-adv-x="547" 
d="M542 139c12 -8 5 -21 -5 -21h-222c-10 0 -14 12 -7 21c21 24 28 76 27 136h-174c-12 -28 -26 -78 26 -136c7 -8 1 -21 -9 -21h-151c-10 0 -15 13 -1 21c32 17 59 38 82 84l129 289c17 37 24 69 2 95c-7 8 2 20 13 20h97c62 0 92 -62 99 -99c0 -4 49 -300 50 -304
c6 -37 6 -59 44 -85zM174 303h160c-6 106 -34 223 -52 242zM340 777l57 -63c7 -7 5 -17 1 -23c-6 -6 -16 -10 -24 -4l-78 37c-21 12 -23 33 -9 50c15 17 36 20 53 3z" />
    <glyph glyph-name="Aacute" unicode="&#xc1;" horiz-adv-x="547" 
d="M542 139c12 -8 5 -21 -5 -21h-222c-10 0 -14 12 -7 21c21 24 28 76 27 136h-174c-12 -28 -26 -78 26 -136c7 -8 1 -21 -9 -21h-151c-10 0 -15 13 -1 21c32 17 59 38 82 84l129 289c17 37 24 69 2 95c-7 8 2 20 13 20h97c62 0 92 -62 99 -99c0 -4 49 -300 50 -304
c6 -37 6 -59 44 -85zM174 303h160c-6 106 -34 223 -52 242zM409 774c10 -17 2 -38 -23 -50l-87 -37c-11 -6 -19 -2 -22 4c-5 6 -2 16 7 23l74 63c21 17 42 14 51 -3z" />
    <glyph glyph-name="Acircumflex" unicode="&#xc2;" horiz-adv-x="547" 
d="M542 139c12 -8 5 -21 -5 -21h-222c-10 0 -14 12 -7 21c21 24 28 76 27 136h-174c-12 -28 -26 -78 26 -136c7 -8 1 -21 -9 -21h-151c-10 0 -15 13 -1 21c32 17 59 38 82 84l129 289c17 37 24 69 2 95c-7 8 2 20 13 20h97c62 0 92 -62 99 -99c0 -4 49 -300 50 -304
c6 -37 6 -59 44 -85zM174 303h160c-6 106 -34 223 -52 242zM381 777l56 -63c7 -7 5 -17 1 -23c-6 -6 -16 -10 -24 -4l-68 33l-77 -33c-11 -6 -19 -2 -22 4c-5 6 -2 16 7 23l74 63c9 7 17 11 25 12h5c8 -1 16 -5 23 -12z" />
    <glyph glyph-name="Atilde" unicode="&#xc3;" horiz-adv-x="547" 
d="M542 139c12 -8 5 -21 -5 -21h-222c-10 0 -14 12 -7 21c21 24 28 76 27 136h-174c-12 -28 -26 -78 26 -136c7 -8 1 -21 -9 -21h-151c-10 0 -15 13 -1 21c32 17 59 38 82 84l129 289c17 37 24 69 2 95c-7 8 2 20 13 20h97c62 0 92 -62 99 -99c0 -4 49 -300 50 -304
c6 -37 6 -59 44 -85zM174 303h160c-6 106 -34 223 -52 242zM435 729c6 2 9 -4 4 -9c-80 -87 -115 16 -180 -7c-8 -3 -10 6 -4 13c68 84 120 -15 180 3z" />
    <glyph glyph-name="Adieresis" unicode="&#xc4;" horiz-adv-x="547" 
d="M542 139c12 -8 5 -21 -5 -21h-222c-10 0 -14 12 -7 21c21 24 28 76 27 136h-174c-12 -28 -26 -78 26 -136c7 -8 1 -21 -9 -21h-151c-10 0 -15 13 -1 21c32 17 59 38 82 84l129 289c17 37 24 69 2 95c-7 8 2 20 13 20h97c62 0 92 -62 99 -99c0 -4 49 -300 50 -304
c6 -37 6 -59 44 -85zM174 303h160c-6 106 -34 223 -52 242zM299 764c22 0 37 -18 34 -40s-23 -40 -45 -40s-38 18 -35 40s24 40 46 40zM399 764c22 0 37 -18 34 -40s-23 -40 -45 -40s-38 18 -35 40s24 40 46 40z" />
    <glyph glyph-name="Aring" unicode="&#xc5;" horiz-adv-x="547" 
d="M335 722c35 0 60 -29 55 -64c-2 -13 -8 -25 -16 -35c45 -15 68 -64 74 -95c0 -4 49 -300 50 -304c6 -37 6 -59 44 -85c12 -8 5 -21 -5 -21h-222c-10 0 -14 12 -7 21c21 24 28 76 27 136h-174c-12 -28 -26 -78 26 -136c7 -8 1 -21 -9 -21h-151c-10 0 -15 13 -1 21
c32 17 59 38 82 84l129 289c17 37 24 69 2 95c-7 8 2 20 13 20h15c-4 9 -6 19 -4 31c5 35 37 64 72 64zM174 303h160c-6 106 -34 223 -52 242zM322 627h4c15 2 29 15 31 31c2 17 -10 31 -27 31s-33 -14 -35 -31s10 -31 27 -31z" />
    <glyph glyph-name="AE" unicode="&#xc6;" horiz-adv-x="979" 
d="M712 237c9 10 22 7 20 -4l-12 -87c-3 -20 -13 -28 -32 -28h-373c-2 0 -4 0 -6 1c0 1 -1 1 -1 1c-5 4 -6 12 0 19c21 24 28 76 27 136h-174c-12 -28 -26 -78 26 -136c7 -8 1 -21 -9 -21h-151c-10 0 -15 13 -1 21c32 17 59 38 82 84l129 289c17 37 24 69 2 95
c-7 8 2 20 13 20h97c10 0 19 -2 28 -5c2 3 6 5 10 5h281c52 0 113 -15 105 -65c-10 -75 -105 -77 -133 -12c-18 43 -36 48 -68 49c-10 -38 -27 -114 -42 -212h20c62 0 60 21 91 55c9 11 22 8 20 -5l-18 -128c-2 -13 -15 -16 -22 -6c-21 35 -13 56 -75 56h-20
c-7 -57 -14 -120 -16 -187c4 -9 11 -17 22 -26h52c62 0 97 57 128 91zM174 303h160c-6 106 -34 223 -52 242z" />
    <glyph glyph-name="Ccedilla" unicode="&#xc7;" horiz-adv-x="522" 
d="M319 94c78 -33 -7 -174 -95 -159c-98 18 2 127 26 82c12 -22 48 -10 51 22c1 13 -11 22 -26 27c-16 6 -20 18 -7 35l11 17c-144 3 -247 116 -227 255c20 140 157 254 305 254c131 0 249 -112 162 -217c-62 -74 -245 -110 -193 15c55 131 22 172 -36 156
c-61 -17 -97 -124 -76 -238c33 -177 253 -150 300 -31c10 26 36 17 30 -4c-25 -98 -119 -172 -221 -187l-7 -9c-5 -8 -4 -15 3 -18z" />
    <glyph glyph-name="Egrave" unicode="&#xc8;" horiz-adv-x="432" 
d="M423 237c9 10 22 7 20 -4l-12 -87c-3 -20 -13 -28 -32 -28h-373c-10 0 -12 13 -1 21c39 26 48 48 53 85l42 298c5 36 2 59 -29 85c-9 8 -3 20 7 20h281c52 0 113 -15 105 -65c-10 -75 -105 -77 -133 -12c-18 43 -36 48 -68 49c-10 -38 -27 -114 -42 -212h20
c62 0 60 21 91 55c9 11 22 8 20 -5l-18 -128c-2 -13 -15 -16 -22 -6c-21 35 -13 56 -75 56h-20c-8 -64 -15 -136 -17 -213h75c62 0 97 57 128 91zM296 777l57 -63c7 -7 5 -17 1 -23c-6 -6 -16 -10 -24 -4l-78 37c-21 12 -23 33 -9 50c15 17 36 20 53 3z" />
    <glyph glyph-name="Eacute" unicode="&#xc9;" horiz-adv-x="432" 
d="M423 237c9 10 22 7 20 -4l-12 -87c-3 -20 -13 -28 -32 -28h-373c-10 0 -12 13 -1 21c39 26 48 48 53 85l42 298c5 36 2 59 -29 85c-9 8 -3 20 7 20h281c52 0 113 -15 105 -65c-10 -75 -105 -77 -133 -12c-18 43 -36 48 -68 49c-10 -38 -27 -114 -42 -212h20
c62 0 60 21 91 55c9 11 22 8 20 -5l-18 -128c-2 -13 -15 -16 -22 -6c-21 35 -13 56 -75 56h-20c-8 -64 -15 -136 -17 -213h75c62 0 97 57 128 91zM381 774c10 -17 2 -38 -23 -50l-87 -37c-11 -6 -19 -2 -22 4c-5 6 -2 16 7 23l74 63c21 17 42 14 51 -3z" />
    <glyph glyph-name="Ecircumflex" unicode="&#xca;" horiz-adv-x="432" 
d="M423 237c9 10 22 7 20 -4l-12 -87c-3 -20 -13 -28 -32 -28h-373c-10 0 -12 13 -1 21c39 26 48 48 53 85l42 298c5 36 2 59 -29 85c-9 8 -3 20 7 20h281c52 0 113 -15 105 -65c-10 -75 -105 -77 -133 -12c-18 43 -36 48 -68 49c-10 -38 -27 -114 -42 -212h20
c62 0 60 21 91 55c9 11 22 8 20 -5l-18 -128c-2 -13 -15 -16 -22 -6c-21 35 -13 56 -75 56h-20c-8 -64 -15 -136 -17 -213h75c62 0 97 57 128 91zM347 777l56 -63c7 -7 5 -17 1 -23c-6 -6 -16 -10 -24 -4l-68 33l-77 -33c-11 -6 -19 -2 -22 4c-5 6 -2 16 7 23l74 63
c9 7 17 11 25 12h5c8 -1 16 -5 23 -12z" />
    <glyph glyph-name="Edieresis" unicode="&#xcb;" horiz-adv-x="432" 
d="M423 237c9 10 22 7 20 -4l-12 -87c-3 -20 -13 -28 -32 -28h-373c-10 0 -12 13 -1 21c39 26 48 48 53 85l42 298c5 36 2 59 -29 85c-9 8 -3 20 7 20h281c52 0 113 -15 105 -65c-10 -75 -105 -77 -133 -12c-18 43 -36 48 -68 49c-10 -38 -27 -114 -42 -212h20
c62 0 60 21 91 55c9 11 22 8 20 -5l-18 -128c-2 -13 -15 -16 -22 -6c-21 35 -13 56 -75 56h-20c-8 -64 -15 -136 -17 -213h75c62 0 97 57 128 91zM368 764c22 0 37 -18 34 -40s-23 -40 -45 -40s-38 18 -35 40s24 40 46 40zM268 764c22 0 37 -18 34 -40s-23 -40 -45 -40
s-38 18 -35 40s24 40 46 40z" />
    <glyph glyph-name="Igrave" unicode="&#xcc;" horiz-adv-x="255" 
d="M313 603c-41 -29 -63 -160 -73 -230s-24 -202 9 -230c8 -8 7 -25 -14 -25h-202c-21 0 -18 17 -6 25c41 28 63 160 73 230s24 201 -9 230c-9 8 -7 24 14 24h202c21 0 17 -16 6 -24zM221 777l57 -63c7 -7 5 -17 1 -23c-6 -6 -16 -10 -24 -4l-78 37c-21 12 -23 33 -9 50
c15 17 36 20 53 3z" />
    <glyph glyph-name="Iacute" unicode="&#xcd;" horiz-adv-x="255" 
d="M313 603c-41 -29 -63 -160 -73 -230s-24 -202 9 -230c8 -8 7 -25 -14 -25h-202c-21 0 -18 17 -6 25c41 28 63 160 73 230s24 201 -9 230c-9 8 -7 24 14 24h202c21 0 17 -16 6 -24zM286 774c10 -17 2 -38 -23 -50l-87 -37c-11 -6 -19 -2 -22 4c-5 6 -2 16 7 23l74 63
c21 17 42 14 51 -3z" />
    <glyph glyph-name="Icircumflex" unicode="&#xce;" horiz-adv-x="255" 
d="M313 603c-41 -29 -63 -160 -73 -230s-24 -202 9 -230c8 -8 7 -25 -14 -25h-202c-21 0 -18 17 -6 25c41 28 63 160 73 230s24 201 -9 230c-9 8 -7 24 14 24h202c21 0 17 -16 6 -24zM257 777l56 -63c7 -7 5 -17 1 -23c-6 -6 -16 -10 -24 -4l-68 33l-77 -33
c-11 -6 -19 -2 -22 4c-5 6 -2 16 7 23l74 63c9 7 17 11 25 12h5c8 -1 16 -5 23 -12z" />
    <glyph glyph-name="Idieresis" unicode="&#xcf;" horiz-adv-x="255" 
d="M313 603c-41 -29 -63 -160 -73 -230s-24 -202 9 -230c8 -8 7 -25 -14 -25h-202c-21 0 -18 17 -6 25c41 28 63 160 73 230s24 201 -9 230c-9 8 -7 24 14 24h202c21 0 17 -16 6 -24zM277 764c22 0 37 -18 34 -40s-23 -40 -45 -40s-38 18 -35 40s24 40 46 40zM177 764
c22 0 37 -18 34 -40s-23 -40 -45 -40s-38 18 -35 40s24 40 46 40z" />
    <glyph glyph-name="Ntilde" unicode="&#xd1;" horiz-adv-x="499" 
d="M557 607c-38 -26 -45 -24 -50 -61l-48 -346c-6 -37 2 -35 32 -61c10 -8 4 -21 -7 -21h-112c-55 0 -83 22 -100 70l-121 359l-48 -347c-6 -37 2 -35 32 -61c10 -8 4 -21 -6 -21h-103c-10 0 -12 13 -1 21c39 26 44 24 50 61l48 346c5 37 -1 35 -32 61c-9 8 -3 20 7 20h112
c56 0 83 -21 100 -69l120 -359l49 347c5 37 -2 35 -32 61c-9 8 -4 20 7 20h102c11 0 13 -12 1 -20zM434 729c6 2 9 -4 4 -9c-80 -87 -115 16 -180 -7c-8 -3 -10 6 -4 13c68 84 120 -15 180 3z" />
    <glyph glyph-name="Ograve" unicode="&#xd2;" horiz-adv-x="556" 
d="M357 627c149 0 254 -114 234 -254c-20 -141 -157 -255 -306 -255c-148 0 -253 114 -233 255c20 140 157 254 305 254zM290 156c59 0 121 97 138 217c17 119 -18 216 -77 216c-58 0 -119 -97 -136 -216c-17 -120 17 -217 75 -217zM370 777l57 -63c7 -7 5 -17 1 -23
c-6 -6 -16 -10 -24 -4l-78 37c-21 12 -23 33 -9 50c15 17 36 20 53 3z" />
    <glyph glyph-name="Oacute" unicode="&#xd3;" horiz-adv-x="556" 
d="M357 627c149 0 254 -114 234 -254c-20 -141 -157 -255 -306 -255c-148 0 -253 114 -233 255c20 140 157 254 305 254zM290 156c59 0 121 97 138 217c17 119 -18 216 -77 216c-58 0 -119 -97 -136 -216c-17 -120 17 -217 75 -217zM432 774c10 -17 2 -38 -23 -50l-87 -37
c-11 -6 -19 -2 -22 4c-5 6 -2 16 7 23l74 63c21 17 42 14 51 -3z" />
    <glyph glyph-name="Ocircumflex" unicode="&#xd4;" horiz-adv-x="556" 
d="M357 627c149 0 254 -114 234 -254c-20 -141 -157 -255 -306 -255c-148 0 -253 114 -233 255c20 140 157 254 305 254zM290 156c59 0 121 97 138 217c17 119 -18 216 -77 216c-58 0 -119 -97 -136 -216c-17 -120 17 -217 75 -217zM406 777l56 -63c7 -7 5 -17 1 -23
c-6 -6 -16 -10 -24 -4l-68 33l-77 -33c-11 -6 -19 -2 -22 4c-5 6 -2 16 7 23l74 63c9 7 17 11 25 12h5c8 -1 16 -5 23 -12z" />
    <glyph glyph-name="Otilde" unicode="&#xd5;" horiz-adv-x="556" 
d="M357 627c149 0 254 -114 234 -254c-20 -141 -157 -255 -306 -255c-148 0 -253 114 -233 255c20 140 157 254 305 254zM290 156c59 0 121 97 138 217c17 119 -18 216 -77 216c-58 0 -119 -97 -136 -216c-17 -120 17 -217 75 -217zM460 729c6 2 9 -4 4 -9
c-80 -87 -115 16 -180 -7c-8 -3 -10 6 -4 13c68 84 120 -15 180 3z" />
    <glyph glyph-name="Odieresis" unicode="&#xd6;" horiz-adv-x="556" 
d="M357 627c149 0 254 -114 234 -254c-20 -141 -157 -255 -306 -255c-148 0 -253 114 -233 255c20 140 157 254 305 254zM290 156c59 0 121 97 138 217c17 119 -18 216 -77 216c-58 0 -119 -97 -136 -216c-17 -120 17 -217 75 -217zM327 764c22 0 37 -18 34 -40
s-23 -40 -45 -40s-38 18 -35 40s24 40 46 40zM427 764c22 0 37 -18 34 -40s-23 -40 -45 -40s-38 18 -35 40s24 40 46 40z" />
    <glyph glyph-name="Ugrave" unicode="&#xd9;" horiz-adv-x="575" 
d="M643 603c-41 -29 -63 -160 -73 -230s-24 -202 9 -230c9 -8 7 -25 -14 -25h-83c-35 0 -71 18 -78 61c-27 -32 -71 -61 -142 -61c-112 0 -189 63 -168 216l6 39c10 70 24 201 -9 230c-10 8 -7 24 14 24h207c21 0 17 -16 6 -24c-41 -29 -63 -160 -73 -230l-6 -39
c-11 -81 -11 -188 62 -188c34 0 97 34 107 107l17 120c10 70 24 201 -9 230c-9 8 -7 24 14 24h207c21 0 18 -16 6 -24zM375 777l57 -63c7 -7 5 -17 1 -23c-6 -6 -16 -10 -24 -4l-78 37c-21 12 -23 33 -9 50c15 17 36 20 53 3z" />
    <glyph glyph-name="Uacute" unicode="&#xda;" horiz-adv-x="575" 
d="M643 603c-41 -29 -63 -160 -73 -230s-24 -202 9 -230c9 -8 7 -25 -14 -25h-83c-35 0 -71 18 -78 61c-27 -32 -71 -61 -142 -61c-112 0 -189 63 -168 216l6 39c10 70 24 201 -9 230c-10 8 -7 24 14 24h207c21 0 17 -16 6 -24c-41 -29 -63 -160 -73 -230l-6 -39
c-11 -81 -11 -188 62 -188c34 0 97 34 107 107l17 120c10 70 24 201 -9 230c-9 8 -7 24 14 24h207c21 0 18 -16 6 -24zM445 774c10 -17 2 -38 -23 -50l-87 -37c-11 -6 -19 -2 -22 4c-5 6 -2 16 7 23l74 63c21 17 42 14 51 -3z" />
    <glyph glyph-name="Ucircumflex" unicode="&#xdb;" horiz-adv-x="575" 
d="M643 603c-41 -29 -63 -160 -73 -230s-24 -202 9 -230c9 -8 7 -25 -14 -25h-83c-35 0 -71 18 -78 61c-27 -32 -71 -61 -142 -61c-112 0 -189 63 -168 216l6 39c10 70 24 201 -9 230c-10 8 -7 24 14 24h207c21 0 17 -16 6 -24c-41 -29 -63 -160 -73 -230l-6 -39
c-11 -81 -11 -188 62 -188c34 0 97 34 107 107l17 120c10 70 24 201 -9 230c-9 8 -7 24 14 24h207c21 0 18 -16 6 -24zM416 777l56 -63c7 -7 5 -17 1 -23c-6 -6 -16 -10 -24 -4l-68 33l-77 -33c-11 -6 -19 -2 -22 4c-5 6 -2 16 7 23l74 63c9 7 17 11 25 12h5
c8 -1 16 -5 23 -12z" />
    <glyph glyph-name="Udieresis" unicode="&#xdc;" horiz-adv-x="575" 
d="M643 603c-41 -29 -63 -160 -73 -230s-24 -202 9 -230c9 -8 7 -25 -14 -25h-83c-35 0 -71 18 -78 61c-27 -32 -71 -61 -142 -61c-112 0 -189 63 -168 216l6 39c10 70 24 201 -9 230c-10 8 -7 24 14 24h207c21 0 17 -16 6 -24c-41 -29 -63 -160 -73 -230l-6 -39
c-11 -81 -11 -188 62 -188c34 0 97 34 107 107l17 120c10 70 24 201 -9 230c-9 8 -7 24 14 24h207c21 0 18 -16 6 -24zM438 764c22 0 37 -18 34 -40s-23 -40 -45 -40s-38 18 -35 40s24 40 46 40zM338 764c22 0 37 -18 34 -40s-23 -40 -45 -40s-38 18 -35 40s24 40 46 40z
" />
    <glyph glyph-name="Yacute" unicode="&#xdd;" horiz-adv-x="529" 
d="M593 627c10 0 13 -12 -2 -20c-52 -26 -57 -24 -81 -61l-117 -184l-20 -33c-9 -70 -15 -161 14 -186c9 -8 7 -25 -14 -25h-201c-22 0 -19 17 -7 25c36 25 56 116 67 185l-67 194c-13 36 -28 59 -71 85c-13 8 -7 20 4 20h248c11 0 11 -12 4 -20c-26 -26 -24 -49 -11 -85
c0 -2 20 -61 43 -126l95 150c23 37 15 35 -2 61c-6 8 -1 20 10 20h108zM455 775c10 -17 2 -38 -23 -50l-87 -37c-11 -6 -19 -2 -22 4c-4 6 -2 16 7 23l74 63c21 17 42 14 51 -3z" />
    <glyph glyph-name="agrave" unicode="&#xe0;" 
d="M420 139c9 -8 4 -21 -7 -21h-102c-54 0 -68 48 -68 48c-26 -29 -65 -48 -105 -48c-67 0 -114 53 -105 118s71 118 138 118c40 0 74 -19 92 -48l4 30c8 58 -5 124 -41 124c-15 0 -18 -24 -10 -50c14 -49 -139 -69 -130 -11c6 43 62 89 154 89c107 0 178 -74 163 -182
l-12 -82c-5 -37 -2 -59 29 -85zM190 172c28 0 54 29 59 64s-13 64 -41 64c-27 0 -53 -29 -58 -64s13 -64 40 -64zM251 620l57 -63c7 -7 5 -17 1 -23c-6 -6 -16 -10 -24 -4l-78 37c-21 12 -23 33 -9 50c15 17 36 20 53 3z" />
    <glyph glyph-name="adieresis" unicode="&#xe4;" 
d="M420 139c9 -8 4 -21 -7 -21h-102c-54 0 -68 48 -68 48c-26 -29 -65 -48 -105 -48c-67 0 -114 53 -105 118s71 118 138 118c40 0 74 -19 92 -48l4 30c8 58 -5 124 -41 124c-15 0 -18 -24 -10 -50c14 -49 -139 -69 -130 -11c6 43 62 89 154 89c107 0 178 -74 163 -182
l-12 -82c-5 -37 -2 -59 29 -85zM190 172c28 0 54 29 59 64s-13 64 -41 64c-27 0 -53 -29 -58 -64s13 -64 40 -64zM215 607c22 0 37 -18 34 -40s-23 -40 -45 -40s-38 18 -35 40s24 40 46 40zM315 607c22 0 37 -18 34 -40s-23 -40 -45 -40s-38 18 -35 40s24 40 46 40z" />
    <glyph glyph-name="aacute" unicode="&#xe1;" 
d="M420 139c9 -8 4 -21 -7 -21h-102c-54 0 -68 48 -68 48c-26 -29 -65 -48 -105 -48c-67 0 -114 53 -105 118s71 118 138 118c40 0 74 -19 92 -48l4 30c8 58 -5 124 -41 124c-15 0 -18 -24 -10 -50c14 -49 -139 -69 -130 -11c6 43 62 89 154 89c107 0 178 -74 163 -182
l-12 -82c-5 -37 -2 -59 29 -85zM190 172c28 0 54 29 59 64s-13 64 -41 64c-27 0 -53 -29 -58 -64s13 -64 40 -64zM328 617c10 -17 2 -38 -23 -50l-87 -37c-11 -6 -19 -2 -22 4c-5 6 -2 16 7 23l74 63c21 17 42 14 51 -3z" />
    <glyph glyph-name="acircumflex" unicode="&#xe2;" 
d="M420 139c9 -8 4 -21 -7 -21h-102c-54 0 -68 48 -68 48c-26 -29 -65 -48 -105 -48c-67 0 -114 53 -105 118s71 118 138 118c40 0 74 -19 92 -48l4 30c8 58 -5 124 -41 124c-15 0 -18 -24 -10 -50c14 -49 -139 -69 -130 -11c6 43 62 89 154 89c107 0 178 -74 163 -182
l-12 -82c-5 -37 -2 -59 29 -85zM289 620l56 -63c7 -7 5 -17 1 -23c-6 -6 -16 -10 -24 -4l-68 33l-77 -33c-11 -6 -19 -2 -22 4c-5 6 -2 16 7 23l74 63c9 7 17 11 25 12h5c8 -1 16 -5 23 -12zM190 172c28 0 54 29 59 64s-13 64 -41 64c-27 0 -53 -29 -58 -64s13 -64 40 -64z
" />
    <glyph glyph-name="atilde" unicode="&#xe3;" 
d="M420 139c9 -8 4 -21 -7 -21h-102c-54 0 -68 48 -68 48c-26 -29 -65 -48 -105 -48c-67 0 -114 53 -105 118s71 118 138 118c40 0 74 -19 92 -48l4 30c8 58 -5 124 -41 124c-15 0 -18 -24 -10 -50c14 -49 -139 -69 -130 -11c6 43 62 89 154 89c107 0 178 -74 163 -182
l-12 -82c-5 -37 -2 -59 29 -85zM190 172c28 0 54 29 59 64s-13 64 -41 64c-27 0 -53 -29 -58 -64s13 -64 40 -64zM346 572c6 2 9 -4 4 -9c-80 -87 -115 16 -180 -7c-8 -3 -11 6 -5 13c69 84 121 -15 181 3z" />
    <glyph glyph-name="aring" unicode="&#xe5;" 
d="M420 139c9 -8 4 -21 -7 -21h-102c-54 0 -68 48 -68 48c-26 -29 -65 -48 -105 -48c-67 0 -114 53 -105 118s71 118 138 118c40 0 74 -19 92 -48l4 30c8 58 -5 124 -41 124c-15 0 -18 -24 -10 -50c14 -49 -139 -69 -130 -11c6 43 62 89 154 89c107 0 178 -74 163 -182
l-12 -82c-5 -37 -2 -59 29 -85zM259 654c35 0 60 -29 55 -64c-4 -35 -37 -63 -72 -63s-59 28 -55 63c5 35 37 64 72 64zM190 172c28 0 54 29 59 64s-13 64 -41 64c-27 0 -53 -29 -58 -64s13 -64 40 -64zM246 559c17 0 33 14 35 31c3 17 -9 31 -26 31s-33 -14 -36 -31
c-2 -17 10 -31 27 -31z" />
    <glyph glyph-name="ae" unicode="&#xe6;" horiz-adv-x="828" 
d="M609 233c12 13 27 -4 19 -15c-41 -59 -114 -100 -191 -100c-7 0 -13 0 -20 1c-1 -1 -2 -1 -4 -1h-102c-54 0 -68 48 -68 48c-26 -29 -65 -48 -105 -48c-67 0 -114 53 -105 118s71 118 138 118c40 0 74 -19 92 -48l4 30c8 58 -5 124 -41 124c-15 0 -18 -24 -10 -50
c14 -49 -139 -69 -130 -11c6 43 62 89 154 89c48 0 89 -15 117 -42c40 26 88 42 140 42c78 0 155 -53 145 -119c-9 -65 -80 -118 -158 -118c-26 0 -48 6 -68 15c5 -33 23 -61 62 -73c35 -10 98 3 131 40zM488 460c-16 0 -53 -31 -62 -95c-8 -53 13 -86 37 -86
c27 0 51 41 58 90c7 50 -6 91 -33 91zM190 172c28 0 54 29 59 64s-13 64 -41 64c-27 0 -53 -29 -58 -64s13 -64 40 -64z" />
    <glyph glyph-name="ccedilla" unicode="&#xe7;" horiz-adv-x="400" 
d="M193 95c62 -26 -6 -139 -76 -127c-78 14 1 102 20 66c10 -18 39 -8 42 17c0 11 -10 18 -21 22c-14 5 -16 14 -6 28l15 23c-84 20 -137 93 -125 179c14 102 115 185 226 185c76 0 133 -29 161 -97c30 -69 -130 -133 -127 -60c4 73 16 129 -18 129
c-55 0 -158 -228 -27 -267c35 -10 98 3 131 40c12 13 27 -4 19 -15c-41 -59 -114 -100 -191 -100c-7 0 -13 0 -20 1l-5 -9c-5 -7 -4 -12 2 -15z" />
    <glyph glyph-name="egrave" unicode="&#xe8;" horiz-adv-x="399" 
d="M388 233c12 13 27 -4 19 -15c-41 -59 -114 -100 -191 -100c-111 0 -188 83 -174 185s114 185 234 185c78 0 155 -53 145 -119c-9 -65 -80 -118 -158 -118c-26 0 -48 6 -68 15c5 -33 23 -61 62 -73c35 -10 98 3 131 40zM267 460c-16 0 -53 -31 -62 -95
c-8 -53 13 -86 37 -86c27 0 51 41 58 90c7 50 -6 91 -33 91zM272 620l57 -63c7 -7 5 -17 1 -23c-6 -6 -16 -10 -24 -4l-78 37c-21 12 -23 33 -9 50c15 17 36 20 53 3z" />
    <glyph glyph-name="eacute" unicode="&#xe9;" horiz-adv-x="399" 
d="M388 233c12 13 27 -4 19 -15c-41 -59 -114 -100 -191 -100c-111 0 -188 83 -174 185s114 185 234 185c78 0 155 -53 145 -119c-9 -65 -80 -118 -158 -118c-26 0 -48 6 -68 15c5 -33 23 -61 62 -73c35 -10 98 3 131 40zM267 460c-16 0 -53 -31 -62 -95
c-8 -53 13 -86 37 -86c27 0 51 41 58 90c7 50 -6 91 -33 91zM342 617c10 -17 2 -38 -23 -50l-87 -37c-11 -6 -19 -2 -22 4c-5 6 -2 16 7 23l74 63c21 17 42 14 51 -3z" />
    <glyph glyph-name="ecircumflex" unicode="&#xea;" horiz-adv-x="399" 
d="M388 233c12 13 27 -4 19 -15c-41 -59 -114 -100 -191 -100c-111 0 -188 83 -174 185s114 185 234 185c78 0 155 -53 145 -119c-9 -65 -80 -118 -158 -118c-26 0 -48 6 -68 15c5 -33 23 -61 62 -73c35 -10 98 3 131 40zM267 460c-16 0 -53 -31 -62 -95
c-8 -53 13 -86 37 -86c27 0 51 41 58 90c7 50 -6 91 -33 91zM313 620l56 -63c7 -7 5 -17 1 -23c-6 -6 -16 -10 -24 -4l-68 33l-77 -33c-11 -6 -19 -2 -22 4c-5 6 -2 16 7 23l74 63c9 7 17 11 25 12h5c8 -1 16 -5 23 -12z" />
    <glyph glyph-name="edieresis" unicode="&#xeb;" horiz-adv-x="399" 
d="M388 233c12 13 27 -4 19 -15c-41 -59 -114 -100 -191 -100c-111 0 -188 83 -174 185s114 185 234 185c78 0 155 -53 145 -119c-9 -65 -80 -118 -158 -118c-26 0 -48 6 -68 15c5 -33 23 -61 62 -73c35 -10 98 3 131 40zM267 460c-16 0 -53 -31 -62 -95
c-8 -53 13 -86 37 -86c27 0 51 41 58 90c7 50 -6 91 -33 91zM238 607c22 0 37 -18 34 -40s-23 -40 -45 -40s-38 18 -35 40s24 40 46 40zM338 607c22 0 37 -18 34 -40s-23 -40 -45 -40s-38 18 -35 40s24 40 46 40z" />
    <glyph glyph-name="igrave" unicode="&#xec;" horiz-adv-x="247" 
d="M221 118h-195c-10 0 -12 13 -1 21c39 26 48 48 53 85l12 84c5 37 2 59 -29 86c-9 8 -3 20 7 20c96 0 145 65 184 73c22 4 9 -12 5 -25c-52 -178 -55 -291 -22 -319c9 -8 7 -25 -14 -25zM167 611l58 -63c7 -7 5 -17 0 -23c-6 -6 -15 -10 -23 -4l-78 37
c-21 12 -23 33 -9 50s36 20 52 3z" />
    <glyph glyph-name="iacute" unicode="&#xed;" horiz-adv-x="247" 
d="M221 118h-195c-10 0 -12 13 -1 21c39 26 48 48 53 85l12 84c5 37 2 59 -29 86c-9 8 -3 20 7 20c96 0 145 65 184 73c22 4 9 -12 5 -25c-52 -178 -55 -291 -22 -319c9 -8 7 -25 -14 -25zM237 597c10 -17 2 -38 -23 -50l-87 -37c-11 -6 -19 -2 -22 4c-4 6 -2 16 7 23l74 63
c21 17 42 14 51 -3z" />
    <glyph glyph-name="icircumflex" unicode="&#xee;" horiz-adv-x="247" 
d="M221 118h-195c-10 0 -12 13 -1 21c39 26 48 48 53 85l12 84c5 37 2 59 -29 86c-9 8 -3 20 7 20c96 0 145 65 184 73c22 4 9 -12 5 -25c-52 -178 -55 -291 -22 -319c9 -8 7 -25 -14 -25zM207 608l56 -63c7 -7 6 -17 1 -23c-6 -6 -16 -10 -24 -4l-68 33l-77 -33
c-11 -6 -19 -2 -22 4c-4 6 -2 16 7 23l74 63c9 7 17 11 26 12h5c7 -1 15 -5 22 -12z" />
    <glyph glyph-name="idieresis" unicode="&#xef;" horiz-adv-x="247" 
d="M221 118h-195c-10 0 -12 13 -1 21c39 26 48 48 53 85l12 84c5 37 2 59 -29 86c-9 8 -3 20 7 20c96 0 145 65 184 73c22 4 9 -12 5 -25c-52 -178 -55 -291 -22 -319c9 -8 7 -25 -14 -25zM231 588c22 0 38 -18 35 -40c-4 -22 -24 -40 -46 -40s-38 18 -34 40
c3 22 23 40 45 40zM131 588c22 0 38 -18 35 -40c-4 -22 -24 -40 -46 -40s-38 18 -34 40c3 22 23 40 45 40z" />
    <glyph glyph-name="ntilde" unicode="&#xf1;" horiz-adv-x="515" 
d="M505 139c9 -8 3 -21 -7 -21h-199c-21 0 -18 16 -6 25c72 58 77 299 8 299c-20 0 -45 -30 -67 -68c-29 -127 -26 -208 1 -231c9 -8 7 -25 -14 -25h-195c-10 0 -12 13 -1 21c39 26 48 48 53 85l12 84c5 37 2 59 -29 86c-9 8 -3 20 7 20c96 0 145 65 184 73
c22 4 9 -12 5 -25l-6 -21c24 26 53 47 85 47c108 0 165 -88 149 -198l-9 -66c-5 -37 -2 -59 29 -85zM414 572c6 2 9 -4 4 -9c-80 -87 -115 16 -180 -7c-8 -3 -11 6 -5 13c69 84 121 -15 181 3z" />
    <glyph glyph-name="ograve" unicode="&#xf2;" horiz-adv-x="425" 
d="M268 488c110 0 187 -83 173 -185s-115 -185 -225 -185c-111 0 -188 83 -174 185s115 185 226 185zM220 146c31 0 67 71 79 157c12 87 -4 157 -35 157c-32 0 -68 -70 -80 -157c-12 -86 4 -157 36 -157zM282 620l57 -63c7 -7 5 -17 1 -23c-6 -6 -16 -10 -24 -4l-78 37
c-21 12 -23 33 -9 50c15 17 36 20 53 3z" />
    <glyph glyph-name="oacute" unicode="&#xf3;" horiz-adv-x="425" 
d="M268 488c110 0 187 -83 173 -185s-115 -185 -225 -185c-111 0 -188 83 -174 185s115 185 226 185zM220 146c31 0 67 71 79 157c12 87 -4 157 -35 157c-32 0 -68 -70 -80 -157c-12 -86 4 -157 36 -157zM344 617c10 -17 2 -38 -23 -50l-87 -37c-11 -6 -19 -2 -22 4
c-5 6 -2 16 7 23l74 63c21 17 42 14 51 -3z" />
    <glyph glyph-name="ocircumflex" unicode="&#xf4;" horiz-adv-x="425" 
d="M268 488c110 0 187 -83 173 -185s-115 -185 -225 -185c-111 0 -188 83 -174 185s115 185 226 185zM220 146c31 0 67 71 79 157c12 87 -4 157 -35 157c-32 0 -68 -70 -80 -157c-12 -86 4 -157 36 -157zM313 620l56 -63c7 -7 5 -17 1 -23c-6 -6 -16 -10 -24 -4l-68 33
l-77 -33c-11 -6 -19 -2 -22 4c-5 6 -2 16 7 23l74 63c9 7 17 11 25 12h5c8 -1 16 -5 23 -12z" />
    <glyph glyph-name="otilde" unicode="&#xf5;" horiz-adv-x="425" 
d="M268 488c110 0 187 -83 173 -185s-115 -185 -225 -185c-111 0 -188 83 -174 185s115 185 226 185zM220 146c31 0 67 71 79 157c12 87 -4 157 -35 157c-32 0 -68 -70 -80 -157c-12 -86 4 -157 36 -157zM367 572c6 2 9 -4 4 -9c-80 -87 -115 16 -180 -7c-8 -3 -11 6 -5 13
c69 84 121 -15 181 3z" />
    <glyph glyph-name="odieresis" unicode="&#xf6;" horiz-adv-x="425" 
d="M268 488c110 0 187 -83 173 -185s-115 -185 -225 -185c-111 0 -188 83 -174 185s115 185 226 185zM220 146c31 0 67 71 79 157c12 87 -4 157 -35 157c-32 0 -68 -70 -80 -157c-12 -86 4 -157 36 -157zM235 607c22 0 37 -18 34 -40s-23 -40 -45 -40s-38 18 -35 40
s24 40 46 40zM335 607c22 0 37 -18 34 -40s-23 -40 -45 -40s-38 18 -35 40s24 40 46 40z" />
    <glyph glyph-name="ugrave" unicode="&#xf9;" horiz-adv-x="501" 
d="M511 462c-24 -80 -63 -249 -11 -323c8 -10 4 -21 -6 -21h-92c-44 0 -68 29 -74 58c-26 -32 -61 -58 -106 -58c-90 0 -153 42 -132 190c5 37 2 59 -29 86c-9 8 -3 20 7 20c96 0 145 65 184 73c22 4 10 -12 5 -25c-41 -119 -62 -298 13 -298c21 0 44 30 61 60l12 84
c5 37 2 59 -29 86c-9 8 -3 20 7 20c96 0 146 65 184 73c22 4 10 -12 6 -25zM332 620l57 -63c7 -7 5 -17 1 -23c-6 -6 -16 -10 -24 -4l-78 37c-21 12 -23 33 -9 50c15 17 36 20 53 3z" />
    <glyph glyph-name="uacute" unicode="&#xfa;" horiz-adv-x="501" 
d="M511 462c-24 -80 -63 -249 -11 -323c8 -10 4 -21 -6 -21h-92c-44 0 -68 29 -74 58c-26 -32 -61 -58 -106 -58c-90 0 -153 42 -132 190c5 37 2 59 -29 86c-9 8 -3 20 7 20c96 0 145 65 184 73c22 4 10 -12 5 -25c-41 -119 -62 -298 13 -298c21 0 44 30 61 60l12 84
c5 37 2 59 -29 86c-9 8 -3 20 7 20c96 0 146 65 184 73c22 4 10 -12 6 -25zM397 617c10 -17 2 -38 -23 -50l-87 -37c-11 -6 -19 -2 -22 4c-5 6 -2 16 7 23l74 63c21 17 42 14 51 -3z" />
    <glyph glyph-name="ucircumflex" unicode="&#xfb;" horiz-adv-x="501" 
d="M511 462c-24 -80 -63 -249 -11 -323c8 -10 4 -21 -6 -21h-92c-44 0 -68 29 -74 58c-26 -32 -61 -58 -106 -58c-90 0 -153 42 -132 190c5 37 2 59 -29 86c-9 8 -3 20 7 20c96 0 145 65 184 73c22 4 10 -12 5 -25c-41 -119 -62 -298 13 -298c21 0 44 30 61 60l12 84
c5 37 2 59 -29 86c-9 8 -3 20 7 20c96 0 146 65 184 73c22 4 10 -12 6 -25zM364 620l56 -63c7 -7 5 -17 1 -23c-6 -6 -16 -10 -24 -4l-68 33l-77 -33c-11 -6 -19 -2 -22 4c-5 6 -2 16 7 23l74 63c9 7 17 11 25 12h5c8 -1 16 -5 23 -12z" />
    <glyph glyph-name="udieresis" unicode="&#xfc;" horiz-adv-x="501" 
d="M511 462c-24 -80 -63 -249 -11 -323c8 -10 4 -21 -6 -21h-92c-44 0 -68 29 -74 58c-26 -32 -61 -58 -106 -58c-90 0 -153 42 -132 190c5 37 2 59 -29 86c-9 8 -3 20 7 20c96 0 145 65 184 73c22 4 10 -12 5 -25c-41 -119 -62 -298 13 -298c21 0 44 30 61 60l12 84
c5 37 2 59 -29 86c-9 8 -3 20 7 20c96 0 146 65 184 73c22 4 10 -12 6 -25zM379 607c22 0 37 -18 34 -40s-23 -40 -45 -40s-38 18 -35 40s24 40 46 40zM279 607c22 0 37 -18 34 -40s-23 -40 -45 -40s-38 18 -35 40s24 40 46 40z" />
    <glyph glyph-name="yacute" unicode="&#xfd;" horiz-adv-x="457" 
d="M497 488c12 0 8 -13 -6 -21c-38 -20 -52 -48 -69 -85l-87 -195l-63 -138c-69 -146 -146 -183 -204 -183c-108 0 -136 109 -81 170c64 72 176 48 147 -32c-32 -86 52 -71 127 82l15 32h-63c-40 0 -44 15 -50 50l-22 123c-19 120 -39 155 -64 172c-12 8 -16 25 6 25h218
c10 0 14 -10 7 -21c-66 -111 -5 -265 -1 -274l1 -3l3 9s92 221 57 268c-6 9 0 21 13 21h116zM386 617c10 -17 2 -38 -23 -50l-87 -37c-11 -6 -19 -2 -22 4c-5 6 -2 16 7 23l74 63c21 17 42 14 51 -3z" />
    <glyph glyph-name="ydieresis" unicode="&#xff;" horiz-adv-x="457" 
d="M497 488c12 0 8 -13 -6 -21c-38 -20 -52 -48 -69 -85l-87 -195l-63 -138c-69 -146 -146 -183 -204 -183c-108 0 -136 109 -81 170c64 72 176 48 147 -32c-32 -86 52 -71 127 82l15 32h-63c-40 0 -44 15 -50 50l-22 123c-19 120 -39 155 -64 172c-12 8 -16 25 6 25h218
c10 0 14 -10 7 -21c-66 -111 -5 -265 -1 -274l1 -3l3 9s92 221 57 268c-6 9 0 21 13 21h116zM386 607c22 0 37 -18 34 -40s-23 -40 -45 -40s-38 18 -35 40s24 40 46 40zM286 607c22 0 37 -18 34 -40s-23 -40 -45 -40s-38 18 -35 40s24 40 46 40z" />
    <glyph glyph-name="minus" unicode="&#x2212;" horiz-adv-x="225" 
d="M50 359l4 28h200l-4 -28h-200z" />
    <glyph glyph-name="guilsinglleft" unicode="&#x2039;" horiz-adv-x="181" 
d="M215 529l17 -19l-142 -137l104 -137l-23 -19l-119 156z" />
    <glyph glyph-name="guilsinglright" unicode="&#x203a;" horiz-adv-x="183" 
d="M71 510l24 19l118 -156l-162 -156l-18 19l143 137z" />
    <glyph glyph-name="Eth" unicode="&#xd0;" horiz-adv-x="520" 
d="M71 361l4 28h26l19 133c5 36 2 59 -29 85c-9 8 -3 20 7 20h210c154 0 264 -114 244 -254s-162 -255 -316 -255h-210c-10 0 -12 13 -1 21c39 26 48 48 53 85l19 137h-26zM220 147c92 8 160 104 177 226s-24 218 -114 226c-11 -38 -28 -113 -42 -210h34l-4 -28h-34
c-9 -64 -15 -137 -17 -214z" />
    <glyph glyph-name="Oslash" unicode="&#xd8;" horiz-adv-x="556" 
d="M357 627c15 0 30 -2 45 -4l7 20h28l-9 -26c109 -30 179 -128 163 -244c-20 -141 -157 -255 -306 -255c-10 0 -19 0 -28 1l-7 -23h-29l9 27c-118 25 -195 127 -178 250c20 140 157 254 305 254zM215 373c-12 -87 2 -162 33 -197l137 400c-9 8 -21 13 -34 13
c-58 0 -119 -97 -136 -216zM290 156c59 0 121 97 138 217c10 74 1 140 -23 179l-134 -392c7 -3 12 -4 19 -4z" />
    <glyph glyph-name="oslash" unicode="&#xf8;" horiz-adv-x="425" 
d="M135 50l25 75c-80 23 -130 94 -118 178c14 102 115 185 226 185c5 0 10 0 15 -1l25 72h28l-26 -76c87 -18 143 -92 131 -180c-14 -102 -115 -185 -225 -185c-10 0 -20 0 -29 2l-23 -70h-29zM220 146c31 0 67 71 79 157c8 53 4 100 -7 128l-92 -274c6 -7 12 -11 20 -11z
M184 303c-6 -41 -5 -78 0 -106l89 261c-3 1 -6 2 -9 2c-32 0 -68 -70 -80 -157z" />
    <glyph glyph-name="questiondown" unicode="&#xbf;" horiz-adv-x="388" 
d="M185 118c-105 3 -162 49 -153 115c16 111 209 162 218 227c5 33 59 37 54 0c-19 -135 -123 -184 -123 -280c0 -46 37 -52 42 23c9 121 224 112 168 6c-35 -66 -129 -93 -204 -91h-2zM284 516c-31 0 -53 24 -48 55c4 31 33 56 64 56c30 0 51 -25 47 -56
c-5 -31 -33 -55 -63 -55z" />
    <glyph glyph-name="OE" unicode="&#x152;" horiz-adv-x="796" 
d="M775 237c9 10 22 7 20 -4l-12 -87c-3 -20 -13 -28 -32 -28h-373c-7 0 -10 6 -8 12c-27 -8 -56 -12 -85 -12c-148 0 -253 114 -233 255c20 140 157 254 305 254c29 0 56 -5 81 -13c-1 7 5 13 12 13h281c52 0 113 -15 105 -65c-10 -75 -105 -77 -133 -12
c-18 43 -36 48 -68 49c-10 -38 -27 -114 -42 -212h20c62 0 60 21 91 55c9 11 22 8 20 -5l-18 -128c-2 -13 -15 -16 -22 -6c-21 35 -13 56 -75 56h-20c-8 -64 -15 -136 -17 -213h75c62 0 97 57 128 91zM290 156c59 0 121 97 138 217c17 119 -18 216 -77 216
c-58 0 -119 -97 -136 -216c-17 -120 17 -217 75 -217z" />
    <glyph glyph-name="caron" unicode="&#x2c7;" horiz-adv-x="209" 
d="M145 526l-56 63c-7 7 -5 17 0 23s15 10 23 4l68 -33l77 33c11 6 19 2 23 -4s1 -16 -8 -23l-74 -63c-9 -7 -17 -11 -25 -12h-5c-8 1 -16 5 -23 12z" />
    <glyph glyph-name="Scaron" unicode="&#x160;" horiz-adv-x="421" 
d="M332 417c52 -40 107 -82 107 -142c1 -77 -90 -153 -200 -156h-3c-58 -2 -86 17 -121 28c-40 13 -103 -58 -97 -14l22 154c4 28 20 34 34 6c87 -163 182 -173 208 -113c43 100 -223 130 -214 284c5 103 89 160 201 163h3c79 2 169 -25 188 -91c29 -106 -184 -115 -158 6
c16 75 -63 69 -76 23c-19 -62 48 -104 106 -148zM271 696l-56 63c-7 7 -5 17 -1 23c6 6 16 10 24 4l68 -33l77 33c11 6 19 2 22 -4c5 -6 2 -16 -7 -23l-74 -63c-9 -7 -17 -11 -25 -12h-5c-8 1 -16 5 -23 12z" />
    <glyph glyph-name="scaron" unicode="&#x161;" horiz-adv-x="339" 
d="M198 434c-27 -86 151 -105 153 -197c1 -56 -80 -116 -168 -118l-2 -1c-64 -1 -135 19 -150 67c-25 77 146 92 127 4c-13 -55 34 -50 46 -17c32 85 -154 92 -152 192c1 74 78 121 167 124h2c63 1 136 -18 151 -67c24 -77 -147 -92 -127 -4c12 55 -37 51 -47 17zM210 539
l-56 63c-7 7 -6 17 -1 23c6 6 16 10 24 4l68 -33l77 33c11 6 19 2 22 -4c4 -6 2 -16 -7 -23l-74 -63c-9 -7 -17 -11 -25 -12h-5c-8 1 -16 5 -23 12z" />
    <glyph glyph-name="Ydieresis" unicode="&#x178;" horiz-adv-x="529" 
d="M593 627c10 0 13 -12 -2 -20c-52 -26 -57 -24 -81 -61l-117 -184l-20 -33c-9 -70 -15 -161 14 -186c9 -8 7 -25 -14 -25h-201c-22 0 -19 17 -7 25c36 25 56 116 67 185l-67 194c-13 36 -28 59 -71 85c-13 8 -7 20 4 20h248c11 0 11 -12 4 -20c-26 -26 -24 -49 -11 -85
c0 -2 20 -61 43 -126l95 150c23 37 15 35 -2 61c-6 8 -1 20 10 20h108zM450 764c22 0 37 -18 34 -40s-23 -40 -45 -40s-38 18 -35 40s24 40 46 40zM350 764c22 0 37 -18 34 -40s-23 -40 -45 -40s-38 18 -35 40s24 40 46 40z" />
    <glyph glyph-name="quotesinglbase" unicode="&#x201a;" horiz-adv-x="132" 
d="M85 224c30 0 50 -23 46 -53c-9 -62 -76 -96 -134 -103c-7 -1 -10 6 -4 9c21 10 49 27 57 46c-22 10 -28 33 -25 48c4 30 31 53 60 53z" />
    <glyph glyph-name="quotedblbase" unicode="&#x201e;" horiz-adv-x="256" 
d="M209 224c30 0 50 -23 46 -53c-9 -62 -76 -96 -135 -103c-7 -1 -10 6 -4 9c22 10 50 27 58 46c-22 10 -28 33 -25 48c4 30 31 53 60 53zM85 224c30 0 50 -23 46 -53c-9 -62 -76 -96 -134 -103c-7 -1 -10 6 -4 9c21 10 49 27 57 46c-22 10 -28 33 -25 48c4 30 31 53 60 53z
" />
    <glyph glyph-name="ellipsis" unicode="&#x2026;" horiz-adv-x="396" 
d="M84 224c29 0 50 -23 46 -53c-5 -29 -32 -53 -61 -53s-50 24 -45 53c4 30 31 53 60 53zM216 224c29 0 50 -23 46 -53c-5 -29 -32 -53 -61 -53s-50 24 -45 53c4 30 31 53 60 53zM348 224c29 0 50 -23 46 -53c-5 -29 -32 -53 -61 -53s-50 24 -45 53c4 30 31 53 60 53z" />
    <glyph glyph-name="oe" unicode="&#x153;" horiz-adv-x="660" 
d="M645 233c12 13 27 -4 19 -15c-41 -59 -114 -100 -191 -100c-50 0 -93 16 -123 43c-39 -27 -85 -43 -134 -43c-111 0 -188 83 -174 185s115 185 226 185c49 0 92 -17 122 -44c40 27 89 44 143 44c78 0 155 -53 145 -119c-9 -65 -80 -118 -158 -118c-26 0 -48 6 -68 15
c5 -33 23 -61 62 -73c35 -10 98 3 131 40zM220 146c31 0 67 71 79 157c12 87 -4 157 -35 157c-32 0 -68 -70 -80 -157c-12 -86 4 -157 36 -157zM524 460c-16 0 -53 -31 -62 -95c-8 -53 13 -86 37 -86c27 0 51 41 58 90c7 50 -6 91 -33 91z" />
    <glyph glyph-name="zcaron" unicode="&#x17e;" horiz-adv-x="414" 
d="M453 488c21 0 11 -16 -3 -25c-62 -37 -134 -247 -204 -317h17c62 0 97 57 128 91c9 10 22 7 20 -4l-12 -87c-3 -20 -13 -28 -32 -28h-304c-21 0 -18 16 -2 25c48 28 218 282 190 313c-13 14 -63 -13 -64 -59c0 -63 -170 -72 -125 18c21 44 87 73 150 73h241zM255 539
l-56 63c-7 7 -6 17 -1 23c6 6 16 10 24 4l68 -33l77 33c11 6 19 2 22 -4c4 -6 2 -16 -7 -23l-74 -63c-9 -7 -17 -11 -25 -12h-5c-8 1 -16 5 -23 12z" />
    <glyph glyph-name="Zcaron" unicode="&#x17d;" horiz-adv-x="466" 
d="M468 297c10 10 22 7 21 -4c-1 -7 -32 -120 -39 -147c-5 -20 -12 -28 -31 -28h-357c-23 0 -35 21 -13 39c109 92 245 356 288 442h-11c-44 0 -77 -38 -112 -89c-46 -65 -148 -36 -138 36c7 50 69 81 122 81h302c22 0 26 -14 13 -38c-59 -116 -146 -298 -276 -443h49
c62 0 151 116 182 151zM303 696l-56 63c-7 7 -5 17 -1 23c6 6 16 10 24 4l68 -33l77 33c11 6 19 2 22 -4c5 -6 2 -16 -7 -23l-74 -63c-9 -7 -17 -11 -25 -12h-5c-8 1 -16 5 -23 12z" />
    <glyph glyph-name="fi" unicode="&#xfb01;" horiz-adv-x="516" 
d="M311 396h-71l-3 -23c-14 -99 -19 -213 2 -230c8 -8 7 -25 -15 -25h-198c-10 0 -12 13 -1 21c39 26 48 48 53 85l24 172h-16c-14 0 -16 11 -14 24c1 13 7 24 21 24h16v2c15 108 125 181 232 181c93 0 191 -60 154 -144c-38 -90 -186 -80 -135 24c30 63 10 98 -24 91
c-35 -7 -67 -75 -86 -154h68c13 0 15 -11 14 -24c-2 -13 -8 -24 -21 -24zM502 143c8 -8 7 -25 -15 -25h-195c-10 0 -12 13 -1 21c39 26 49 48 54 85l3 24c6 37 2 59 -30 85c-9 8 -3 21 7 21c96 0 146 65 184 72c22 5 11 -11 7 -24c-53 -179 -48 -231 -14 -259z" />
    <glyph glyph-name="fl" unicode="&#xfb02;" horiz-adv-x="508" 
d="M496 143c8 -8 7 -25 -15 -25h-198c-11 0 -12 13 -1 21c39 26 48 48 53 85l34 239c12 90 -13 136 -35 136c-39 0 -67 -73 -85 -155h69c13 0 15 -11 14 -24c-2 -13 -8 -24 -21 -24h-71l-3 -23c-14 -99 -19 -213 2 -230c8 -8 7 -25 -15 -25h-198c-10 0 -12 13 -1 21
c39 26 48 48 53 85l24 172h-16c-14 0 -16 11 -14 24c1 13 7 24 21 24h16v2c15 108 118 181 225 181c45 0 82 -20 110 -48c38 20 65 44 88 48c21 5 10 -12 6 -25c-15 -46 -27 -95 -36 -144v-1c-29 -150 -31 -293 -6 -314z" />
    <glyph glyph-name="d" unicode="d" horiz-adv-x="475" 
d="M462 139c10 -8 4 -21 -6 -21h-240c-111 0 -188 83 -174 185s115 185 226 185c21 0 41 -3 59 -9c-3 25 -10 44 -22 55c-10 8 -5 20 5 20c96 0 150 66 189 73c21 5 10 -12 6 -25c-24 -74 -34 -107 -43 -173l-29 -205c-5 -37 -1 -59 29 -85zM184 303c-12 -86 4 -157 36 -157
c31 0 67 71 79 157c12 87 -4 157 -35 157c-32 0 -68 -70 -80 -157z" />
    <glyph glyph-name="plusminus" unicode="&#xb1;" horiz-adv-x="235" 
d="M185 506l-12 -86h86l-4 -28h-86l-12 -86h-28l12 86h-86l4 28h86l12 86h28zM33 240l4 28h200l-4 -28h-200z" />
    <glyph glyph-name="a" unicode="a" 
d="M420 139c9 -8 4 -21 -7 -21h-102c-54 0 -68 48 -68 48c-26 -29 -65 -48 -105 -48c-67 0 -114 53 -105 118s71 118 138 118c40 0 74 -19 92 -48l4 30c8 58 -5 124 -41 124c-15 0 -18 -24 -10 -50c14 -49 -139 -69 -130 -11c6 43 62 89 154 89c107 0 178 -74 163 -182
l-12 -82c-5 -37 -2 -59 29 -85zM190 172c28 0 54 29 59 64s-13 64 -41 64c-27 0 -53 -29 -58 -64s13 -64 40 -64z" />
    <glyph glyph-name="b" unicode="b" horiz-adv-x="475" 
d="M318 488c110 0 188 -83 174 -185s-116 -185 -226 -185h-240c-10 0 -12 13 -1 21c39 26 48 48 53 85l32 225c5 37 2 59 -29 85c-9 8 -4 20 6 20c96 0 150 66 188 73c21 5 10 -12 6 -25c-13 -40 -24 -83 -32 -125c22 7 45 11 69 11zM270 146c32 0 68 71 80 157
c12 87 -4 157 -36 157s-68 -70 -80 -157c-12 -86 4 -157 36 -157z" />
    <glyph glyph-name="c" unicode="c" horiz-adv-x="400" 
d="M284 460c-55 0 -158 -228 -27 -267c35 -10 98 3 131 40c12 13 27 -4 19 -15c-41 -59 -114 -100 -191 -100c-111 0 -188 83 -174 185s115 185 226 185c76 0 133 -29 161 -97c30 -69 -130 -133 -127 -60c4 73 16 129 -18 129z" />
    <glyph glyph-name="V.V2" unicode="&#xe065;" horiz-adv-x="593" 
d="M835 693c118 0 46 -189 -15 -155c-59 34 -102 48 -149 -39l-189 -349c-20 -41 -73 -44 -85 0c-8 25 -112 420 -119 444c-51 -17 -79 -73 -51 -112c46 -63 -15 -136 -92 -136c-128 0 -101 281 180 281h165c10 0 10 -12 2 -20c-28 -26 -29 -49 -20 -85l62 -244l118 221
c55 106 114 194 193 194z" />
    </font>
</defs>
</svg>
